<svg width="25" height="25" viewBox="0 0 25 25" fill="none" xmlns="http://www.w3.org/2000/svg">
<g clip-path="url(#clip0_1_1287)">
<path d="M18.5633 0H5.81326C2.70666 0 0.188263 2.62333 0.188263 5.85938V19.1406C0.188263 22.3767 2.70666 25 5.81326 25H18.5633C21.6699 25 24.1883 22.3767 24.1883 19.1406V5.85938C24.1883 2.62333 21.6699 0 18.5633 0Z" fill="white"/>
<path d="M18.5633 0H5.81326C2.70666 0 0.188263 2.62333 0.188263 5.85938V19.1406C0.188263 22.3767 2.70666 25 5.81326 25H18.5633C21.6699 25 24.1883 22.3767 24.1883 19.1406V5.85938C24.1883 2.62333 21.6699 0 18.5633 0Z" fill="#0A66C2"/>
<path d="M17.5053 21.2583H20.2494C20.3488 21.2583 20.4442 21.2172 20.5145 21.1439C20.5848 21.0707 20.6243 20.9714 20.6244 20.8678L20.6258 14.8285C20.6258 11.672 19.9728 9.2457 16.4316 9.2457C15.0854 9.19355 13.8159 9.91641 13.1309 11.1234C13.1276 11.1293 13.1225 11.1339 13.1164 11.1364C13.1103 11.139 13.1036 11.1394 13.0973 11.1376C13.091 11.1358 13.0854 11.132 13.0814 11.1266C13.0774 11.1212 13.0752 11.1145 13.0751 11.1077V9.92773C13.0751 9.82413 13.0356 9.72478 12.9653 9.65152C12.895 9.57826 12.7996 9.53711 12.7001 9.53711H10.096C9.99659 9.53711 9.90121 9.57826 9.83088 9.65152C9.76055 9.72478 9.72104 9.82413 9.72104 9.92773V20.8672C9.72104 20.9708 9.76055 21.0701 9.83088 21.1434C9.90121 21.2167 9.99659 21.2578 10.096 21.2578H12.8399C12.9394 21.2578 13.0348 21.2167 13.1051 21.1434C13.1754 21.0701 13.2149 20.9708 13.2149 20.8672V15.4597C13.2149 13.9307 13.4934 12.4499 15.3131 12.4499C17.107 12.4499 17.1303 14.1995 17.1303 15.5587V20.8677C17.1303 20.9713 17.1698 21.0706 17.2401 21.1439C17.3105 21.2171 17.4058 21.2583 17.5053 21.2583ZM3.75076 5.82295C3.75076 6.98164 4.66642 7.93496 5.77876 7.93496C6.89083 7.93486 7.80592 6.98096 7.80592 5.82256C7.80573 4.66416 6.89054 3.71094 5.77839 3.71094C4.66595 3.71094 3.75076 4.66436 3.75076 5.82295ZM4.40317 21.2583H7.1507C7.25016 21.2583 7.34554 21.2171 7.41587 21.1439C7.48619 21.0706 7.5257 20.9713 7.5257 20.8677V9.92773C7.5257 9.82413 7.48619 9.72478 7.41587 9.65152C7.34554 9.57826 7.25016 9.53711 7.1507 9.53711H4.40317C4.30371 9.53711 4.20833 9.57826 4.138 9.65152C4.06768 9.72478 4.02817 9.82413 4.02817 9.92773V20.8677C4.02817 20.9713 4.06768 21.0706 4.138 21.1439C4.20833 21.2171 4.30371 21.2583 4.40317 21.2583Z" fill="white"/>
</g>
<defs>
<clipPath id="clip0_1_1287">
<rect width="24" height="25" fill="white" transform="translate(0.188263)"/>
</clipPath>
</defs>
</svg>
