<svg width="1440" height="618" viewBox="0 0 1440 618" fill="none" xmlns="http://www.w3.org/2000/svg">
<g opacity="0.1">
<path opacity="0.0144928" d="M1402.23 1062.65C1411.29 1067.45 1422.43 1065.69 1429.55 1058.32L1655.89 824.239C1660.1 819.881 1662.42 814.036 1662.35 807.974L1656.73 341.909C1656.67 337.142 1655.14 332.511 1652.33 328.656L1412.19 -1.45093C1407.1 -8.44073 1398.53 -11.9895 1389.99 -10.6373L1109.54 33.7818C1101 35.134 1093.94 41.1587 1091.27 49.3778L964.882 437.537C963.406 442.07 963.375 446.95 964.793 451.501L1103.47 896.491C1105.28 902.279 1109.29 907.12 1114.65 909.963L1402.23 1062.65Z" stroke="url(#paint0_linear_1_1089)" stroke-width="4"/>
<path opacity="0.0289855" d="M1351.08 1061.16C1359.86 1066.4 1371.04 1065.23 1378.53 1058.27L1615.45 838.326C1619.9 834.195 1622.53 828.473 1622.78 822.408L1641.61 360.976C1641.8 356.198 1640.5 351.478 1637.89 347.473L1416.81 8.49589C1412.09 1.26526 1403.73 -2.71587 1395.14 -1.81351L1114.43 27.6904C1105.84 28.5928 1098.49 34.2267 1095.38 42.2799L949.604 419.815C947.882 424.276 947.592 429.162 948.776 433.795L1063.13 881.229C1064.63 887.111 1068.4 892.16 1073.61 895.275L1351.08 1061.16Z" stroke="url(#paint1_linear_1_1089)" stroke-width="4"/>
<path opacity="0.0434783" d="M1300.32 1058.12C1308.8 1063.79 1319.99 1063.2 1327.83 1056.67L1574.47 851.325C1579.14 847.435 1582.09 841.853 1582.65 835.8L1625.43 380.271C1625.88 375.496 1624.82 370.7 1622.41 366.554L1420.66 19.7877C1416.32 12.3359 1408.19 7.93442 1399.58 8.38562L1119.39 23.0695C1110.78 23.5207 1103.15 28.7488 1099.61 36.6129L935.215 402.569C933.249 406.944 932.701 411.824 933.646 416.526L1023.8 865.088C1025 871.048 1028.51 876.292 1033.56 879.673L1300.32 1058.12Z" stroke="url(#paint2_linear_1_1089)" stroke-width="4"/>
<path opacity="0.057971" d="M1250.04 1053.56C1258.19 1059.64 1269.37 1059.64 1277.52 1053.56L1533.02 863.218C1537.9 859.581 1541.15 854.155 1542.03 848.131L1608.19 399.737C1608.89 394.977 1608.09 390.117 1605.88 385.841L1423.67 32.37C1419.72 24.7173 1411.83 19.9087 1403.22 19.9087L1124.34 19.9087C1115.73 19.9087 1107.84 24.7173 1103.9 32.37L921.683 385.841C919.478 390.117 918.67 394.977 919.372 399.737L985.529 848.131C986.418 854.155 989.659 859.581 994.542 863.218L1250.04 1053.56Z" stroke="url(#paint3_linear_1_1089)" stroke-width="4"/>
<path opacity="0.0724638" d="M1200.31 1047.54C1208.13 1054 1219.25 1054.58 1227.7 1048.97L1491.16 873.991C1496.24 870.617 1499.77 865.363 1500.98 859.386L1589.89 419.313C1590.84 414.583 1590.29 409.671 1588.3 405.275L1425.77 46.1842C1422.22 38.3512 1414.6 33.1497 1406.02 32.6997L1129.2 18.1925C1120.62 17.7425 1112.5 22.1192 1108.15 29.5387L908.974 369.673C906.535 373.837 905.468 378.664 905.924 383.468L948.345 830.423C948.921 836.495 951.885 842.088 956.585 845.975L1200.31 1047.54Z" stroke="url(#paint4_linear_1_1089)" stroke-width="4"/>
<path opacity="0.0869565" d="M1151.22 1040.08C1158.67 1046.91 1169.71 1048.07 1178.43 1042.94L1448.95 883.63C1454.22 880.531 1458.03 875.466 1459.55 869.551L1570.52 438.942C1571.73 434.253 1571.43 429.303 1569.66 424.797L1426.9 61.1688C1423.76 53.1766 1416.43 47.5976 1407.89 46.7001L1133.9 17.9016C1125.36 17.0041 1117.03 20.9376 1112.3 28.1028L897.053 354.103C894.385 358.143 893.06 362.922 893.267 367.759L912.285 812.031C912.546 818.133 915.224 823.881 919.728 828.006L1151.22 1040.08Z" stroke="url(#paint5_linear_1_1089)" stroke-width="4"/>
<path opacity="0.101449" d="M1102.83 1031.24C1109.91 1038.42 1120.83 1040.15 1129.78 1035.51L1406.46 892.13C1411.89 889.315 1415.98 884.453 1417.81 878.618L1550.1 458.564C1551.56 453.931 1551.52 448.955 1549.97 444.35L1427.01 77.2597C1424.29 69.1299 1417.27 63.1896 1408.8 61.8483L1138.35 19.0129C1129.88 17.6716 1121.37 21.1521 1116.26 28.0425L885.882 339.168C882.991 343.071 881.411 347.79 881.367 352.647L877.378 793.021C877.323 799.138 879.706 805.025 884.002 809.381L1102.83 1031.24Z" stroke="url(#paint6_linear_1_1089)" stroke-width="4"/>
<path opacity="0.115942" d="M1055.2 1021.08C1061.89 1028.59 1072.68 1030.88 1081.84 1026.74L1363.74 899.485C1369.33 896.964 1373.67 892.32 1375.82 886.581L1528.63 478.123C1530.34 473.559 1530.55 468.57 1529.24 463.877L1426.04 94.3908C1423.74 86.1448 1417.05 79.8605 1408.67 78.0805L1142.48 21.4996C1134.11 19.7196 1125.44 22.7384 1119.98 29.3348L875.422 324.903C872.315 328.658 870.481 333.302 870.185 338.166L843.649 773.465C843.276 779.58 845.359 785.592 849.435 790.166L1055.2 1021.08Z" stroke="url(#paint7_linear_1_1089)" stroke-width="4"/>
<path opacity="0.130435" d="M1008.42 1009.65C1014.7 1017.46 1025.32 1020.3 1034.66 1016.68L1320.87 905.696C1326.59 903.477 1331.19 899.064 1333.64 893.438L1506.12 497.562C1508.07 493.08 1508.55 488.092 1507.47 483.322L1423.96 112.493C1422.08 104.152 1415.73 97.5423 1407.47 95.3296L1146.23 25.3307C1137.97 23.118 1129.17 25.6681 1123.37 31.9517L865.632 311.341C862.317 314.935 860.233 319.492 859.683 324.35L811.119 753.43C810.429 759.528 812.204 765.648 816.05 770.43L1008.42 1009.65Z" stroke="url(#paint8_linear_1_1089)" stroke-width="4"/>
<path opacity="0.144928" d="M962.537 996.996C968.397 1005.09 978.811 1008.47 988.308 1005.37L1277.89 910.763C1283.74 908.854 1288.57 904.687 1291.32 899.189L1482.58 516.824C1484.78 512.436 1485.51 507.462 1484.68 502.628L1420.7 131.493C1419.25 123.081 1413.26 116.164 1405.14 113.526L1149.52 30.4706C1141.41 27.8328 1132.49 29.9082 1126.38 35.8615L856.471 298.511C852.955 301.933 850.625 306.389 849.822 311.228L779.805 732.988C778.799 739.051 780.261 745.265 783.866 750.244L962.537 996.996Z" stroke="url(#paint9_linear_1_1089)" stroke-width="4"/>
<path opacity="0.15942" d="M917.609 983.196C923.036 991.548 933.222 995.459 942.844 992.883L1234.89 914.695C1240.83 913.103 1245.89 909.193 1248.93 903.84L1458.03 535.856C1460.47 531.576 1461.46 526.628 1460.87 521.741L1416.24 151.32C1415.22 142.858 1409.6 135.654 1401.65 132.599L1152.3 36.8825C1144.34 33.828 1135.34 35.4244 1128.92 41.0306L847.895 286.441C844.187 289.679 841.616 294.021 840.559 298.829L749.721 712.21C748.4 718.223 749.544 724.515 752.898 729.677L917.609 983.196Z" stroke="url(#paint10_linear_1_1089)" stroke-width="4"/>
<path opacity="0.173913" d="M873.693 968.307C878.675 976.896 888.607 981.318 898.324 979.273L1191.9 917.498C1197.94 916.229 1203.21 912.589 1206.53 907.396L1432.5 554.602C1435.16 550.442 1436.42 545.536 1436.07 540.608L1410.53 171.898C1409.95 163.408 1404.72 155.937 1396.94 152.475L1154.48 44.5236C1146.71 41.0622 1137.66 42.1764 1130.95 47.4201L839.859 275.155C835.969 278.199 833.161 282.415 831.853 287.178L720.875 691.167C719.241 697.113 720.064 703.466 723.158 708.8L873.693 968.307Z" stroke="url(#paint11_linear_1_1089)" stroke-width="4"/>
<path opacity="0.188406" d="M830.837 952.397C835.365 961.199 845.016 966.116 854.798 964.606L1149 919.187C1155.11 918.245 1160.58 914.887 1164.18 909.869L1405.99 573.012C1408.88 568.985 1410.4 564.132 1410.3 559.176L1403.56 193.15C1403.4 184.655 1398.57 176.938 1391 173.081L1156.02 53.3504C1148.45 49.493 1139.37 50.1235 1132.4 54.9902L832.318 264.677C828.255 267.516 825.217 271.592 823.659 276.298L693.271 669.93C691.328 675.794 691.826 682.192 694.652 687.684L830.837 952.397Z" stroke="url(#paint12_linear_1_1089)" stroke-width="4"/>
<path opacity="0.202899" d="M789.088 935.536C793.153 944.525 802.498 949.921 812.316 948.946L1106.25 919.777C1112.4 919.166 1118.05 916.1 1121.92 911.272L1378.55 591.035C1381.66 587.153 1383.43 582.367 1383.59 577.394L1395.29 215.001C1395.56 206.522 1391.14 198.581 1383.8 194.34L1156.86 63.3148C1149.51 59.0734 1140.42 59.2201 1133.22 63.6963L825.226 255.025C821 257.65 817.739 261.574 815.933 266.21L666.911 648.571C664.664 654.336 664.835 660.763 667.384 666.4L789.088 935.536Z" stroke="url(#paint13_linear_1_1089)" stroke-width="4"/>
<path opacity="0.217391" d="M748.486 917.793C752.081 926.945 761.097 932.8 770.921 932.362L1063.69 919.286C1069.88 919.009 1075.7 916.246 1079.82 911.621L1350.19 608.621C1353.51 604.896 1355.53 600.19 1355.94 595.214L1385.69 237.37C1386.39 228.93 1382.4 220.788 1375.3 216.175L1156.93 74.3665C1149.83 69.754 1140.77 69.4178 1133.34 73.4916L818.535 246.216C814.158 248.618 810.681 252.379 808.63 256.931L641.791 627.16C639.245 632.81 639.087 639.249 641.352 645.017L748.486 917.793Z" stroke="url(#paint14_linear_1_1089)" stroke-width="4"/>
<path opacity="0.231884" d="M709.07 899.241C712.189 908.532 720.852 914.827 730.652 914.921L1021.39 917.735C1027.59 917.795 1033.56 915.343 1037.94 910.936L1320.94 625.725C1324.47 622.168 1326.74 617.555 1327.41 612.588L1374.77 260.181C1375.89 251.801 1372.33 243.48 1365.49 238.51L1156.2 86.4529C1149.36 81.4833 1140.35 80.6671 1132.72 84.3274L812.199 238.266C807.681 240.435 803.996 244.021 801.703 248.477L617.905 605.766C615.065 611.287 614.577 617.721 616.553 623.606L709.07 899.241Z" stroke="url(#paint15_linear_1_1089)" stroke-width="4"/>
<path opacity="0.246377" d="M670.872 879.956C673.509 889.36 681.799 896.072 691.546 896.697L979.392 915.149C985.598 915.547 991.701 913.414 996.309 909.238L1290.84 642.3C1294.57 638.922 1297.09 634.416 1298.01 629.47L1362.49 283.353C1364.04 275.055 1360.91 266.578 1354.35 261.266L1154.61 99.5188C1148.05 94.2071 1139.11 92.9149 1131.32 96.152L806.168 231.186C801.522 233.115 797.637 236.514 795.108 240.862L595.241 584.46C592.114 589.835 591.297 596.248 592.976 602.236L670.872 879.956Z" stroke="url(#paint16_linear_1_1089)" stroke-width="4"/>
<path opacity="0.26087" d="M633.919 860.011C636.072 869.502 643.967 876.611 653.632 877.761L937.758 911.555C943.944 912.29 950.164 910.485 954.995 906.552L1259.93 658.305C1263.85 655.117 1266.6 650.729 1267.78 645.818L1348.86 306.808C1350.82 298.613 1348.14 290.003 1341.88 284.365L1152.12 113.507C1145.86 107.869 1137.02 106.106 1129.07 108.912L800.395 224.985C795.634 226.666 791.558 229.867 788.797 234.095L573.784 563.308C570.377 568.523 569.232 574.898 570.61 580.973L633.919 860.011Z" stroke="url(#paint17_linear_1_1089)" stroke-width="4"/>
<path opacity="0.275362" d="M598.235 839.482C599.902 849.036 607.384 856.518 616.938 858.185L896.534 906.981C902.682 908.054 909.002 906.583 914.043 902.905L1228.24 673.697C1232.33 670.709 1235.32 666.453 1236.75 661.589L1333.87 330.466C1336.24 322.395 1334.01 313.676 1328.06 307.729L1148.69 128.357C1142.74 122.41 1134.02 120.183 1125.95 122.55L794.831 219.669C789.967 221.095 785.711 224.089 782.723 228.184L553.515 542.376C549.837 547.418 548.366 553.738 549.439 559.886L598.235 839.482Z" stroke="url(#paint18_linear_1_1089)" stroke-width="4"/>
<path opacity="0.289855" d="M563.839 818.447C565.02 828.039 572.07 835.869 581.485 838.046L855.768 901.461C861.859 902.87 868.261 901.738 873.5 898.326L1195.8 688.439C1200.07 685.662 1203.29 681.549 1204.97 676.744L1317.52 354.25C1320.29 346.324 1318.52 337.52 1312.9 331.281L1144.28 144.011C1138.66 137.772 1130.09 135.089 1121.92 137.012L789.428 215.243C784.475 216.408 780.047 219.184 776.84 223.134L534.413 521.732C530.472 526.585 528.677 532.834 529.441 539.039L563.839 818.447Z" stroke="url(#paint19_linear_1_1089)" stroke-width="4"/>
<path opacity="0.304348" d="M530.746 796.983C531.441 806.586 538.044 814.741 547.293 817.417L815.505 895.029C821.521 896.77 827.987 895.982 833.41 892.847L1162.67 702.495C1167.09 699.937 1170.54 695.98 1172.46 691.248L1299.83 378.082C1302.98 370.32 1301.67 361.455 1296.4 354.943L1138.86 160.404C1133.59 153.891 1125.19 150.763 1116.94 152.237L784.138 211.708C779.109 212.607 774.522 215.154 771.101 218.949L516.451 501.436C512.258 506.088 510.142 512.249 510.595 518.496L530.746 796.983Z" stroke="url(#paint20_linear_1_1089)" stroke-width="4"/>
<path opacity="0.318841" d="M498.966 775.167C499.177 784.757 505.318 793.209 514.374 796.373L775.788 887.72C781.711 889.79 788.223 889.35 793.814 886.502L1128.88 715.83C1133.45 713.502 1137.11 709.712 1139.28 705.064L1280.79 401.886C1284.33 394.307 1283.47 385.405 1278.56 378.639L1132.4 177.473C1127.48 170.706 1119.28 167.142 1110.98 168.164L778.913 209.062C773.822 209.689 769.086 212 765.459 215.628L499.601 481.551C495.164 485.989 492.734 492.046 492.872 498.319L498.966 775.167Z" stroke="url(#paint21_linear_1_1089)" stroke-width="4"/>
<path opacity="0.333333" d="M468.505 753.075C468.235 762.627 473.9 771.351 482.736 774.99L736.659 879.573C742.471 881.967 749.01 881.878 754.755 879.326L1094.47 728.415C1099.18 726.324 1103.05 722.713 1105.46 718.161L1260.43 425.585C1264.34 418.208 1263.94 409.294 1259.39 402.293L1124.87 195.154C1120.33 188.153 1112.35 184.165 1104.02 184.734L773.705 207.302C768.566 207.653 763.694 209.719 759.869 213.169L483.829 462.136C479.161 466.346 476.42 472.284 476.243 478.567L468.505 753.075Z" stroke="url(#paint22_linear_1_1089)" stroke-width="4"/>
<path opacity="0.347826" d="M439.362 730.785C438.617 740.275 443.795 749.243 452.386 753.342L698.155 870.629C703.839 873.341 710.386 873.604 716.269 871.356L1059.5 740.221C1064.33 738.375 1068.4 734.954 1071.05 730.51L1238.76 449.107C1243.02 441.95 1243.09 433.047 1238.92 425.832L1116.26 213.381C1112.1 206.166 1104.35 201.768 1096.02 201.883L768.468 206.421C763.296 206.493 758.299 208.306 754.284 211.567L469.101 443.248C464.213 447.219 461.167 453.021 460.674 459.3L439.362 730.785Z" stroke="url(#paint23_linear_1_1089)" stroke-width="4"/>
<path opacity="0.362319" d="M411.536 708.372C410.322 717.775 415.002 726.96 423.323 731.504L660.312 860.928C665.85 863.952 672.387 864.569 678.393 862.633L1024.01 751.222C1028.96 749.628 1033.21 746.407 1036.1 742.084L1215.81 472.378C1220.42 465.459 1220.93 456.591 1217.16 449.183L1106.54 232.089C1102.77 224.681 1095.29 219.887 1086.98 219.55L763.155 206.41C757.965 206.199 752.856 207.752 748.661 210.815L455.377 424.941C450.281 428.662 446.938 434.312 446.129 440.57L411.536 708.372Z" stroke="url(#paint24_linear_1_1089)" stroke-width="4"/>
<path opacity="0.376812" d="M385.019 685.911C383.342 695.204 387.515 704.578 395.543 709.55L623.164 850.515C628.538 853.843 635.046 854.813 641.157 853.196L988.048 761.395C993.091 760.06 997.531 757.05 1000.64 752.859L1191.6 495.33C1196.54 488.665 1197.51 479.855 1194.13 472.276L1095.71 251.211C1092.33 243.632 1085.14 238.457 1076.88 237.67L757.722 207.258C752.528 206.763 747.32 208.049 742.954 210.904L442.617 407.267C437.326 410.727 433.692 416.211 432.569 422.433L385.019 685.911Z" stroke="url(#paint25_linear_1_1089)" stroke-width="4"/>
<path opacity="0.391304" d="M359.798 663.478C357.667 672.637 361.327 682.172 369.04 687.553L586.74 839.435C591.935 843.059 598.394 844.38 604.595 843.087L951.661 770.72C956.791 769.651 961.402 766.862 964.731 762.814L1166.16 517.893C1171.42 511.499 1172.84 502.771 1169.87 495.041L1083.75 270.682C1080.78 262.953 1073.89 257.414 1065.7 256.181L752.123 208.953C746.941 208.172 741.648 209.185 737.12 211.822L430.777 390.276C425.304 393.464 421.387 398.768 419.952 404.938L359.798 663.478Z" stroke="url(#paint26_linear_1_1089)" stroke-width="4"/>
<path opacity="0.405797" d="M335.859 641.142C333.283 650.146 336.424 659.813 343.8 665.583L551.068 827.732C556.067 831.642 562.459 833.314 568.732 832.35L914.902 779.181C920.104 778.382 924.875 775.822 928.419 771.93L1139.53 540.002C1145.09 533.892 1146.95 525.269 1144.4 517.412L1070.65 290.435C1068.1 282.578 1061.53 276.693 1053.43 275.019L746.316 211.476C741.162 210.409 735.797 211.143 731.119 213.555L419.809 374.013C414.168 376.921 409.979 382.03 408.234 388.132L335.859 641.142Z" stroke="url(#paint27_linear_1_1089)" stroke-width="4"/>
<path opacity="0.42029" d="M313.18 618.977C310.171 627.803 312.788 637.573 319.808 643.712L516.174 815.455C520.96 819.641 527.266 821.659 533.594 821.029L877.819 786.762C883.08 786.238 888.001 783.918 891.752 780.191L1111.75 561.594C1117.6 555.783 1119.89 547.288 1117.76 539.325L1056.42 310.404C1054.28 302.442 1048.05 296.23 1040.08 294.122L740.259 214.811C735.147 213.459 729.725 213.909 724.907 216.086L409.665 358.522C403.871 361.141 399.418 366.041 397.366 372.06L313.18 618.977Z" stroke="url(#paint28_linear_1_1089)" stroke-width="4"/>
<path opacity="0.434783" d="M291.739 597.051C288.307 605.678 290.4 615.522 297.043 622.008L482.078 802.652C486.637 807.103 492.838 809.463 499.203 809.17L840.464 793.453C845.77 793.209 850.829 791.135 854.78 787.584L1082.86 582.608C1088.97 577.11 1091.69 568.764 1089.98 560.719L1041.05 330.525C1039.34 322.48 1033.46 315.96 1025.64 313.426L733.91 218.937C728.857 217.301 723.392 217.464 718.445 219.399L400.295 343.844C394.361 346.165 389.656 350.843 387.302 356.764L291.739 597.051Z" stroke="url(#paint29_linear_1_1089)" stroke-width="4"/>
<path opacity="0.449275" d="M271.507 575.43C267.667 583.838 269.233 593.728 275.483 600.538L448.8 789.37C453.117 794.073 459.195 796.771 465.579 796.817L802.888 799.244C808.225 799.283 813.409 797.464 817.553 794.099L1052.89 602.986C1059.26 597.813 1062.39 589.638 1061.11 581.534L1024.55 350.732C1023.27 342.628 1017.77 335.821 1010.11 332.869L727.231 223.833C722.251 221.914 716.758 221.786 711.694 223.472L391.645 330.015C385.588 332.031 380.641 336.475 377.988 342.282L271.507 575.43Z" stroke="url(#paint30_linear_1_1089)" stroke-width="4"/>
<path opacity="0.463768" d="M252.454 554.18C248.219 562.349 249.26 572.256 255.101 579.366L416.357 775.659C420.417 780.602 426.354 783.631 432.739 784.017L765.143 804.131C770.496 804.455 775.794 802.898 780.121 799.73L1021.91 622.674C1028.51 617.837 1032.05 609.855 1031.19 601.713L1006.94 370.963C1006.08 362.821 1000.96 355.748 993.498 352.391L720.184 229.474C715.293 227.274 709.787 226.853 704.618 228.283L383.661 317.068C377.495 318.774 372.318 322.97 369.374 328.65L252.454 554.18Z" stroke="url(#paint31_linear_1_1089)" stroke-width="4"/>
<path opacity="0.478261" d="M234.545 533.364C229.93 541.275 230.448 551.17 235.865 558.556L384.76 761.568C388.551 766.738 394.328 770.09 400.697 770.817L727.279 808.111C732.633 808.722 738.032 807.434 742.534 804.471L989.948 641.621C996.77 637.131 1000.7 629.361 1000.27 621.205L988.215 391.155C987.788 383 983.068 375.682 975.814 371.93L712.733 235.834C707.946 233.358 702.442 232.641 697.181 233.809L376.287 305.035C370.028 306.424 364.634 310.362 361.404 315.899L234.545 533.364Z" stroke="url(#paint32_linear_1_1089)" stroke-width="4"/>
<path opacity="0.492754" d="M217.742 513.041C212.762 520.676 212.762 530.532 217.742 538.167L354.022 747.149C357.531 752.53 363.13 756.198 369.464 757.266L689.348 811.183C694.689 812.083 700.176 811.07 704.842 808.322L957.072 659.779C964.091 655.645 968.4 648.107 968.4 639.96L968.4 411.248C968.4 403.101 964.091 395.563 957.072 391.429L704.842 242.886C700.176 240.138 694.689 239.125 689.348 240.025L369.464 293.942C363.13 295.01 357.531 298.678 354.022 304.059L217.742 513.041Z" stroke="url(#paint33_linear_1_1089)" stroke-width="4"/>
<path opacity="0.507246" d="M202.004 493.267C196.677 500.61 196.164 510.398 200.694 518.257L324.149 732.448C327.363 738.025 332.768 742 339.05 743.407L651.401 813.35C656.713 814.54 662.274 813.807 667.096 811.281L923.331 677.102C930.529 673.332 935.204 666.044 935.629 657.93L947.513 431.181C947.938 423.066 944.05 415.33 937.286 410.828L696.48 250.6C691.948 247.585 686.494 246.274 681.087 246.902L363.136 283.812C356.742 284.555 350.951 287.943 347.171 293.154L202.004 493.267Z" stroke="url(#paint34_linear_1_1089)" stroke-width="4"/>
<path opacity="0.521739" d="M187.288 474.097C181.631 481.132 180.612 490.825 184.683 498.882L295.146 717.518C298.055 723.276 303.248 727.547 309.459 729.291L613.487 814.619C618.755 816.098 624.378 815.65 629.345 813.356L888.782 693.55C896.14 690.153 901.167 683.133 902.014 675.074L925.575 450.898C926.423 442.838 922.965 434.927 916.475 430.074L687.616 258.946C683.234 255.669 677.828 254.062 672.367 254.413L357.242 274.667C350.805 275.08 344.836 278.179 340.794 283.206L187.288 474.097Z" stroke="url(#paint35_linear_1_1089)" stroke-width="4"/>
<path opacity="0.536232" d="M173.547 455.583C167.578 462.294 166.062 471.866 169.665 480.093L267.015 702.406C269.608 708.328 274.574 712.886 280.696 714.962L575.657 814.998C580.866 816.765 586.535 816.606 591.637 814.551L853.485 709.086C860.982 706.067 866.345 699.333 867.609 691.35L902.613 470.342C903.877 462.359 900.859 454.298 894.661 449.11L678.22 267.891C674.003 264.36 668.66 262.457 663.16 262.528L351.722 266.52C345.258 266.603 339.127 269.402 334.831 274.233L173.547 455.583Z" stroke="url(#paint36_linear_1_1089)" stroke-width="4"/>
<path opacity="0.550725" d="M160.732 437.771C154.47 444.146 152.467 453.57 155.595 461.94L239.755 687.163C242.023 693.232 246.745 698.063 252.761 700.468L537.96 814.499C543.094 816.552 548.796 816.686 554.022 814.877L817.5 723.676C825.117 721.04 830.798 714.608 832.474 706.724L878.654 489.462C880.33 481.577 877.756 473.391 871.87 467.884L668.266 277.402C664.228 273.624 658.964 271.427 653.438 271.214L346.516 259.386C340.042 259.136 333.763 261.629 329.223 266.251L160.732 437.771Z" stroke="url(#paint37_linear_1_1089)" stroke-width="4"/>
<path opacity="0.565217" d="M148.792 420.707C142.256 426.731 139.777 435.982 142.425 444.468L213.363 671.835C215.297 678.034 219.761 683.126 225.653 685.855L500.442 813.134C505.487 815.471 511.207 815.901 516.545 814.345L780.888 737.29C788.605 735.041 794.587 728.926 796.668 721.162L853.73 508.203C855.81 500.439 853.687 492.153 848.128 486.346L657.728 287.443C653.883 283.427 648.714 280.939 643.177 280.441L341.563 253.273C335.096 252.691 328.684 254.869 323.91 259.27L148.792 420.707Z" stroke="url(#paint38_linear_1_1089)" stroke-width="4"/>
<path opacity="0.57971" d="M137.673 404.431C130.884 410.095 127.942 419.148 130.106 427.72L187.833 656.472C189.425 662.782 193.616 668.122 199.366 671.168L463.151 810.922C468.092 813.539 473.816 814.267 479.254 812.97L743.713 749.903C751.509 748.044 757.776 742.261 760.252 734.638L827.874 526.52C830.351 518.897 828.681 510.535 823.466 504.449L646.584 297.981C642.947 293.736 637.888 290.96 632.353 290.174L336.801 248.188C330.358 247.272 323.829 249.129 318.832 253.298L137.673 404.431Z" stroke="url(#paint39_linear_1_1089)" stroke-width="4"/>
<path opacity="0.594203" d="M127.32 388.981C120.298 394.273 116.908 403.104 118.585 411.735L163.155 641.119C164.399 647.521 168.303 653.094 173.895 656.451L426.133 807.879C430.953 810.773 436.667 811.801 442.194 810.769L706.039 761.492C713.894 760.025 720.425 754.586 723.289 747.126L801.122 544.363C803.986 536.903 802.772 528.491 797.916 522.144L634.813 308.977C631.397 304.512 626.463 301.453 620.944 300.378L332.17 244.131C325.768 242.884 319.138 244.414 313.929 248.339L127.32 388.981Z" stroke="url(#paint40_linear_1_1089)" stroke-width="4"/>
<path opacity="0.608696" d="M117.676 374.39C110.443 379.301 106.619 387.889 107.81 396.55L139.319 625.822C140.209 632.298 143.813 638.089 149.229 641.749L389.431 804.029C394.117 807.195 399.804 808.524 405.408 807.761L667.931 772.04C675.825 770.965 682.601 765.883 685.841 758.604L773.513 561.69C776.754 554.412 775.997 545.975 771.513 539.39L622.397 320.395C619.214 315.721 614.421 312.383 608.933 311.019L327.609 241.101C321.265 239.525 314.55 240.722 309.142 244.394L117.676 374.39Z" stroke="url(#paint41_linear_1_1089)" stroke-width="4"/>
<path opacity="0.623188" d="M108.683 360.69C101.259 365.212 97.0194 373.533 97.7244 382.198L116.311 610.626C116.842 617.156 120.133 623.15 125.358 627.103L353.088 799.395C357.624 802.827 363.271 804.457 368.939 803.968L629.453 781.531C637.366 780.85 644.367 776.134 647.973 769.058L745.088 578.459C748.693 571.383 748.393 562.947 744.293 556.145L609.319 332.196C606.382 327.324 601.745 323.713 596.302 322.061L323.058 239.095C316.789 237.191 310.006 238.051 304.411 241.46L108.683 360.69Z" stroke="url(#paint42_linear_1_1089)" stroke-width="4"/>
<path opacity="0.637681" d="M100.282 347.906C92.6893 352.033 88.0505 360.067 88.273 368.706L94.1147 595.574C94.2837 602.139 97.2508 608.318 102.268 612.555L317.146 794.003C321.518 797.695 327.109 799.625 332.828 799.415L590.672 789.957C598.583 789.667 605.789 785.329 609.748 778.473L715.888 594.633C719.846 587.777 720 579.367 716.296 572.371L595.564 344.342C592.887 339.285 588.42 335.407 583.037 333.467L318.459 238.101C312.281 235.875 305.446 236.395 299.676 239.531L100.282 347.906Z" stroke="url(#paint43_linear_1_1089)" stroke-width="4"/>
<path opacity="0.652174" d="M92.4117 336.061C84.672 339.786 79.6534 347.514 79.3978 356.1L72.7119 580.708C72.5161 587.287 75.1484 593.635 79.9427 598.145L281.643 787.881C285.836 791.826 291.357 794.054 297.114 794.126L551.653 797.311C559.543 797.409 566.933 793.457 571.23 786.839L685.957 610.175C690.255 603.557 690.86 595.199 687.561 588.031L581.121 356.793C578.714 351.563 574.433 347.426 569.123 345.2L313.752 238.11C307.682 235.565 300.813 235.742 294.882 238.597L92.4117 336.061Z" stroke="url(#paint44_linear_1_1089)" stroke-width="4"/>
<path opacity="0.666667" d="M85.0114 325.174C77.1468 328.494 71.7681 335.897 71.0406 344.403L52.0824 566.068C51.5201 572.642 53.808 579.141 58.3643 583.912L246.617 781.059C250.618 785.249 256.053 787.774 261.835 788.131L512.462 803.59C520.31 804.074 527.863 800.515 532.485 794.153L655.343 625.053C659.965 618.691 661.017 610.408 658.131 603.093L565.981 369.511C563.855 364.121 559.773 359.733 554.552 357.223L308.881 239.105C302.935 236.246 296.048 236.079 289.97 238.645L85.0114 325.174Z" stroke="url(#paint45_linear_1_1089)" stroke-width="4"/>
<path opacity="0.681159" d="M78.0194 315.26C70.0519 318.172 64.334 325.233 63.1423 333.631L32.2037 551.694C31.2747 558.242 33.2091 564.872 37.5132 569.894L212.104 773.569C215.898 777.995 221.232 780.816 227.027 781.459L473.162 808.797C480.951 809.662 488.644 806.502 493.575 800.412L624.091 639.238C629.023 633.148 630.515 624.966 628.049 617.527L550.135 382.455C548.3 376.92 544.432 372.289 539.314 369.498L303.79 241.069C297.984 237.903 291.096 237.389 284.884 239.659L78.0194 315.26Z" stroke="url(#paint46_linear_1_1089)" stroke-width="4"/>
<path opacity="0.695652" d="M71.3737 306.33C63.3253 308.831 57.2898 315.535 55.6433 323.8L13.0513 537.621C11.7562 544.123 13.3294 550.867 17.3674 556.124L178.136 765.444C181.711 770.098 186.929 773.21 192.723 774.142L433.819 812.936C441.528 814.176 449.34 811.421 454.565 805.618L592.251 652.702C597.475 646.9 599.399 638.842 597.36 631.305L533.577 395.585C532.045 389.92 528.404 385.056 523.402 381.987L298.424 243.979C292.773 240.513 285.902 239.653 279.571 241.621L71.3737 306.33Z" stroke="url(#paint47_linear_1_1089)" stroke-width="4"/>
<path opacity="0.710145" d="M65.0127 298.392C56.9056 300.483 50.5748 306.814 48.4843 314.921L-5.40044 523.886C-7.05976 530.321 -5.85481 537.159 -2.096 542.639L144.746 756.722C148.088 761.593 153.176 764.992 158.955 766.214L394.496 816.018C402.107 817.627 410.016 815.28 415.517 809.779L559.871 665.425C565.372 659.924 567.719 652.015 566.11 644.404L516.306 408.864C515.084 403.084 511.685 397.996 506.814 394.655L292.731 247.812C287.251 244.053 280.413 242.848 273.978 244.508L65.0127 298.392Z" stroke="url(#paint48_linear_1_1089)" stroke-width="4"/>
<path opacity="0.724638" d="M58.8742 291.45C50.7302 293.13 44.1273 299.076 41.605 306.999L-23.1799 510.522C-25.2005 516.869 -24.3697 523.781 -20.9025 529.469L111.963 747.437C115.059 752.516 120.001 756.198 125.753 757.71L355.254 818.054C362.749 820.025 370.733 818.088 376.493 812.903L527 677.385C532.76 672.199 535.52 664.461 534.344 656.801L498.32 422.25C497.417 416.371 494.272 411.071 489.545 407.461L286.659 252.54C281.365 248.497 274.577 246.948 268.053 248.294L58.8742 291.45Z" stroke="url(#paint49_linear_1_1089)" stroke-width="4"/>
<path opacity="0.73913" d="M52.8971 285.504C44.738 286.775 37.8868 292.323 34.9465 300.04L-40.316 497.559C-42.6938 503.799 -42.242 510.765 -39.0781 516.646L79.8133 737.63C82.6508 742.904 87.4335 746.863 93.1446 748.666L316.155 819.062C323.517 821.386 331.554 819.861 337.553 815.003L493.692 688.565C499.691 683.706 502.853 676.162 502.111 668.478L479.62 435.705C479.044 429.743 476.165 424.242 471.596 420.37L280.16 258.132C275.066 253.814 268.346 251.924 261.748 252.952L52.8971 285.504Z" stroke="url(#paint50_linear_1_1089)" stroke-width="4"/>
<path opacity="0.753623" d="M47.0209 280.549C38.8681 281.415 31.7927 286.556 28.4496 294.042L-56.8396 485.028C-59.5694 491.141 -59.5004 498.14 -56.6507 504.197L48.3217 727.339C50.8891 732.797 55.4974 737.027 61.1541 739.12L277.259 819.061C284.47 821.729 292.538 820.616 298.758 816.097L459.995 698.952C466.215 694.432 469.766 687.104 469.457 679.421L460.209 449.19C459.966 443.163 457.367 437.473 452.97 433.345L273.188 264.556C268.307 259.974 261.672 257.745 255.015 258.452L47.0209 280.549Z" stroke="url(#paint51_linear_1_1089)" stroke-width="4"/>
<path opacity="0.768116" d="M41.1855 276.58C33.0601 277.044 25.7854 281.769 22.0559 289.002L-72.7829 472.956C-75.8583 478.921 -76.1748 485.932 -73.6494 492.15L17.5102 716.605C19.7961 722.234 24.216 726.729 29.8049 729.11L238.623 818.075C245.667 821.076 253.743 820.375 260.164 816.204L425.961 708.535C432.383 704.365 436.308 697.272 436.431 689.616L440.092 462.667C440.19 456.593 437.881 450.726 433.669 446.349L265.697 271.776C261.043 266.94 254.51 264.377 247.81 264.761L41.1855 276.58Z" stroke="url(#paint52_linear_1_1089)" stroke-width="4"/>
<path opacity="0.782609" d="M35.3321 273.584C27.2549 273.652 19.8058 277.953 15.7078 284.914L-88.179 461.367C-91.5926 467.165 -92.2962 474.167 -90.1045 480.528L-12.6014 705.47C-10.6078 711.256 -6.39038 716.009 -0.882549 718.677L200.302 816.129C207.163 819.453 215.226 819.161 221.828 815.349L391.642 717.307C398.244 713.495 402.529 706.659 403.081 699.055L419.278 476.098C419.721 469.994 417.713 463.965 413.699 459.345L257.645 279.755C253.232 274.676 246.816 271.784 240.088 271.842L35.3321 273.584Z" stroke="url(#paint53_linear_1_1089)" stroke-width="4"/>
<path opacity="0.797101" d="M29.4035 271.548C21.3948 271.227 13.7967 275.098 9.34894 281.766L-103.062 450.284C-106.805 455.896 -107.896 462.868 -106.047 469.355L-41.9956 693.977C-40.3047 699.907 -36.3035 704.91 -30.89 707.862L162.35 813.255C169.014 816.89 177.042 817.002 183.805 813.556L357.088 725.264C363.851 721.818 368.479 715.257 369.455 707.73L397.774 489.447C398.568 483.332 396.872 477.154 393.069 472.301L248.993 288.453C244.833 283.143 238.551 279.928 231.811 279.658L29.4035 271.548Z" stroke="url(#paint54_linear_1_1089)" stroke-width="4"/>
<path opacity="0.811594" d="M23.3433 270.454C15.4229 269.751 7.70121 273.189 2.92386 279.546L-117.467 439.729C-121.53 445.135 -123.008 452.055 -121.508 458.65L-70.6581 682.169C-69.2796 688.228 -65.5081 693.472 -60.2021 696.706L124.82 809.485C131.271 813.417 139.243 813.93 146.145 810.857L322.351 732.406C329.253 729.332 334.206 723.065 335.601 715.639L375.593 502.677C376.74 496.57 375.367 490.259 371.787 485.18L239.705 297.827C235.808 292.3 229.676 288.768 222.94 288.17L23.3433 270.454Z" stroke="url(#paint55_linear_1_1089)" stroke-width="4"/>
<path opacity="0.826087" d="M17.0973 270.282C9.28439 269.205 1.4647 272.207 -3.62111 278.235L-131.43 429.719C-135.802 434.901 -137.665 441.748 -136.521 448.431L-98.5764 670.089C-97.5196 676.263 -93.9908 681.738 -88.8053 685.251L87.7586 804.853C93.9848 809.07 101.88 809.978 108.9 807.283L287.48 738.732C294.5 736.037 299.76 730.081 301.565 722.78L352.748 515.754C354.251 509.674 353.21 503.244 349.864 497.949L229.745 307.835C226.123 302.103 220.157 298.261 213.44 297.335L17.0973 270.282Z" stroke="url(#paint56_linear_1_1089)" stroke-width="4"/>
<path opacity="0.84058" d="M10.6129 271.008C2.92594 269.567 -4.96621 272.132 -10.3384 277.815L-144.987 420.27C-149.657 425.211 -151.902 431.964 -151.12 438.716L-125.741 657.783C-125.014 664.055 -121.741 669.752 -116.689 673.539L51.2138 799.398C57.2018 803.887 64.9991 805.181 72.1164 802.869L252.524 744.251C259.642 741.938 265.189 736.308 267.395 729.157L329.253 528.644C331.115 522.61 330.414 516.077 327.315 510.576L219.083 318.43C215.746 312.507 209.961 308.364 203.279 307.112L10.6129 271.008Z" stroke="url(#paint57_linear_1_1089)" stroke-width="4"/>
<path opacity="0.855072" d="M3.83936 272.604C-3.70365 270.811 -11.6428 272.938 -17.2783 278.263L-158.176 411.397C-163.13 416.078 -165.753 422.715 -165.337 429.518L-152.145 645.293C-151.757 651.648 -148.751 657.557 -143.845 661.614L15.2288 793.161C20.9668 797.906 28.6469 799.58 35.839 797.653L217.533 748.968C224.725 747.041 230.54 741.751 233.136 734.773L305.125 541.313C307.346 535.346 306.993 528.726 304.152 523.029L207.689 329.566C204.648 323.467 199.058 319.03 192.427 317.453L3.83936 272.604Z" stroke="url(#paint58_linear_1_1089)" stroke-width="4"/>
<path opacity="0.869565" d="M-3.27163 275.042C-10.6536 272.907 -18.6145 274.599 -24.4896 279.552L-171.033 403.11C-176.257 407.515 -179.252 414.015 -179.207 420.849L-177.784 632.666C-177.741 639.086 -175.016 645.196 -170.268 649.518L-20.1554 786.184C-14.6782 791.17 -7.13479 793.214 0.110387 791.674L182.554 752.894C189.799 751.354 195.859 746.419 198.835 739.636L280.382 553.73C282.961 547.85 282.966 541.16 280.394 535.277L195.54 341.194C192.802 334.932 187.422 330.213 180.858 328.313L-3.27163 275.042Z" stroke="url(#paint59_linear_1_1089)" stroke-width="4"/>
<path opacity="0.884058" d="M-10.7662 278.29C-17.9708 275.825 -25.9284 277.085 -32.0186 281.656L-183.596 395.42C-189.076 399.533 -192.437 405.874 -192.763 412.718L-202.655 619.945C-202.964 626.414 -200.531 632.714 -195.954 637.296L-54.9009 778.513C-49.6946 783.725 -42.3065 786.128 -35.03 784.976L147.632 756.045C154.909 754.892 161.193 750.324 164.533 743.758L255.044 565.865C257.981 560.092 258.348 553.349 256.056 547.292L182.611 353.265C180.186 346.857 175.03 341.864 168.547 339.646L-10.7662 278.29Z" stroke="url(#paint60_linear_1_1089)" stroke-width="4"/>
<path opacity="0.898551" d="M-18.6882 282.312C-25.6998 279.531 -33.6296 280.364 -39.9097 284.543L-195.902 388.332C-201.621 392.137 -205.34 398.3 -206.041 405.134L-226.76 607.175C-227.427 613.675 -225.297 620.152 -220.903 624.988L-88.973 770.194C-84.0465 775.616 -76.8317 778.367 -69.5459 777.601L112.813 758.434C120.099 757.668 126.584 753.478 130.275 747.15L229.132 577.688C232.425 572.044 233.161 565.266 231.158 559.046L168.885 365.728C166.779 359.189 161.86 353.934 155.474 351.401L-18.6882 282.312Z" stroke="url(#paint61_linear_1_1089)" stroke-width="4"/>
<path opacity="0.913043" d="M-27.0785 287.072C-33.8825 283.988 -41.7604 284.401 -48.2048 288.179L-207.988 381.851C-213.931 385.334 -217.999 391.298 -219.074 398.102L-250.101 594.4C-251.131 600.913 -249.315 607.555 -245.116 612.638L-122.34 761.275C-117.701 766.89 -110.677 769.977 -103.403 769.596L78.1394 760.081C85.413 759.7 92.0761 755.896 96.1023 749.827L202.669 589.171C206.314 583.676 207.425 576.881 205.721 570.511L154.345 378.532C152.564 371.877 147.895 366.372 141.621 363.528L-27.0785 287.072Z" stroke="url(#paint62_linear_1_1089)" stroke-width="4"/>
<path opacity="0.927536" d="M-35.9755 292.53C-42.5583 289.159 -50.3605 289.159 -56.9433 292.53L-219.892 375.979C-226.04 379.128 -230.447 384.872 -231.896 391.624L-272.685 581.663C-274.081 588.171 -272.591 594.964 -268.598 600.289L-154.973 751.807C-150.629 757.599 -143.812 761.008 -136.572 761.008L43.6532 761.008C50.8931 761.008 57.7104 757.599 62.054 751.807L175.679 600.289C179.672 594.964 181.162 588.171 179.766 581.663L138.978 391.624C137.528 384.872 133.121 379.128 126.974 375.979L-35.9755 292.53Z" stroke="url(#paint63_linear_1_1089)" stroke-width="4"/>
<path opacity="0.942029" d="M-45.4149 298.646C-51.7636 295.003 -59.4674 294.599 -66.1621 297.559L-231.651 370.718C-237.985 373.518 -242.72 379.023 -244.541 385.705L-294.518 569.009C-296.286 575.492 -295.13 582.423 -291.354 587.982L-186.847 741.841C-182.804 747.793 -176.21 751.51 -169.025 751.887L9.39396 761.237C16.5789 761.614 23.5261 758.606 28.1687 753.11L148.186 611.017C152.522 605.884 154.396 599.111 153.316 592.479L122.774 404.955C121.66 398.12 117.527 392.15 111.52 388.703L-45.4149 298.646Z" stroke="url(#paint64_linear_1_1089)" stroke-width="4"/>
<path opacity="0.956522" d="M-55.4292 305.376C-61.5321 301.477 -69.1151 300.68 -75.8954 303.225L-243.3 366.065C-249.801 368.505 -254.852 373.752 -257.042 380.341L-315.612 556.478C-317.753 562.917 -316.941 569.973 -313.394 575.758L-217.941 731.43C-214.204 737.524 -207.846 741.534 -200.737 742.282L-24.6004 760.794C-17.4913 761.541 -10.4389 758.941 -5.51692 753.757L120.217 621.332C124.889 616.411 127.15 609.678 126.395 602.935L105.726 418.469C104.953 411.569 101.104 405.387 95.2525 401.648L-55.4292 305.376Z" stroke="url(#paint65_linear_1_1089)" stroke-width="4"/>
<path opacity="0.971014" d="M-66.0482 312.677C-71.8946 308.538 -79.3354 307.36 -86.1746 309.489L-254.876 362.016C-261.524 364.086 -266.876 369.055 -269.432 375.531L-335.979 544.112C-338.496 550.488 -338.038 557.654 -334.73 563.657L-248.235 720.628C-244.809 726.846 -238.702 731.134 -231.689 732.244L-58.2945 759.707C-51.2816 760.818 -44.1488 758.628 -38.9682 753.772L91.7994 631.213C96.8006 626.525 99.4506 619.852 99.0272 613.01L87.832 432.116C87.402 425.167 83.8474 418.787 78.1648 414.764L-66.0482 312.677Z" stroke="url(#paint66_linear_1_1089)" stroke-width="4"/>
<path opacity="0.985507" d="M-77.2981 320.501C-82.8783 316.14 -90.1564 314.593 -97.0279 316.307L-266.413 358.564C-273.186 360.254 -278.825 364.928 -281.742 371.27L-355.634 531.952C-358.527 538.244 -358.431 545.505 -355.373 551.719L-277.716 709.486C-274.602 715.812 -268.759 720.361 -261.862 721.826L-91.6542 758.005C-84.7576 759.471 -77.5696 757.693 -72.1521 753.18L62.9613 640.639C68.2827 636.206 71.3235 629.612 71.2394 622.687L69.0912 445.842C69.0064 438.862 65.756 432.298 60.2555 427.999L-77.2981 320.501Z" stroke="url(#paint67_linear_1_1089)" stroke-width="4"/>
<path d="M-89.2028 328.803C-94.5082 324.238 -101.604 322.336 -108.481 323.638L-277.945 355.702C-284.823 357.003 -290.733 361.365 -294.004 367.554L-374.594 520.038C-377.865 526.226 -378.139 533.567 -375.34 539.982L-306.371 698.062C-303.572 704.478 -298.004 709.269 -291.243 711.081L-124.649 755.72C-117.888 757.531 -110.67 756.166 -105.038 752.009L33.7314 649.593C39.3632 645.436 42.7957 638.942 43.0575 631.947L49.5063 459.597C49.7681 452.602 46.8304 445.869 41.525 441.304L-89.2028 328.803Z" stroke="url(#paint68_linear_1_1089)" stroke-width="4"/>
</g>
<defs>
<linearGradient id="paint0_linear_1_1089" x1="1417.91" y1="1073.24" x2="1234.03" y2="-87.7779" gradientUnits="userSpaceOnUse">
<stop stop-color="#59C031"/>
<stop offset="1" stop-color="#2F36AB"/>
</linearGradient>
<linearGradient id="paint1_linear_1_1089" x1="1366.15" y1="1072.5" x2="1244.36" y2="-86.2337" gradientUnits="userSpaceOnUse">
<stop stop-color="#59C031"/>
<stop offset="1" stop-color="#2F36AB"/>
</linearGradient>
<linearGradient id="paint2_linear_1_1089" x1="1314.74" y1="1070.17" x2="1254.31" y2="-82.9853" gradientUnits="userSpaceOnUse">
<stop stop-color="#59C031"/>
<stop offset="1" stop-color="#2F36AB"/>
</linearGradient>
<linearGradient id="paint3_linear_1_1089" x1="1263.78" y1="1066.29" x2="1263.78" y2="-78.0695" gradientUnits="userSpaceOnUse">
<stop stop-color="#59C031"/>
<stop offset="1" stop-color="#2F36AB"/>
</linearGradient>
<linearGradient id="paint4_linear_1_1089" x1="1213.34" y1="1060.9" x2="1272.69" y2="-71.5288" gradientUnits="userSpaceOnUse">
<stop stop-color="#59C031"/>
<stop offset="1" stop-color="#2F36AB"/>
</linearGradient>
<linearGradient id="paint5_linear_1_1089" x1="1163.51" y1="1054.05" x2="1280.95" y2="-63.4098" gradientUnits="userSpaceOnUse">
<stop stop-color="#59C031"/>
<stop offset="1" stop-color="#2F36AB"/>
</linearGradient>
<linearGradient id="paint6_linear_1_1089" x1="1114.34" y1="1045.77" x2="1288.49" y2="-53.7629" gradientUnits="userSpaceOnUse">
<stop stop-color="#59C031"/>
<stop offset="1" stop-color="#2F36AB"/>
</linearGradient>
<linearGradient id="paint7_linear_1_1089" x1="1065.93" y1="1036.12" x2="1295.23" y2="-42.6424" gradientUnits="userSpaceOnUse">
<stop stop-color="#59C031"/>
<stop offset="1" stop-color="#2F36AB"/>
</linearGradient>
<linearGradient id="paint8_linear_1_1089" x1="1018.33" y1="1025.15" x2="1301.08" y2="-30.1069" gradientUnits="userSpaceOnUse">
<stop stop-color="#59C031"/>
<stop offset="1" stop-color="#2F36AB"/>
</linearGradient>
<linearGradient id="paint9_linear_1_1089" x1="971.605" y1="1012.93" x2="1306" y2="-16.2191" gradientUnits="userSpaceOnUse">
<stop stop-color="#59C031"/>
<stop offset="1" stop-color="#2F36AB"/>
</linearGradient>
<linearGradient id="paint10_linear_1_1089" x1="925.824" y1="999.51" x2="1309.9" y2="-1.04308" gradientUnits="userSpaceOnUse">
<stop stop-color="#59C031"/>
<stop offset="1" stop-color="#2F36AB"/>
</linearGradient>
<linearGradient id="paint11_linear_1_1089" x1="881.037" y1="984.954" x2="1312.73" y2="15.3514" gradientUnits="userSpaceOnUse">
<stop stop-color="#59C031"/>
<stop offset="1" stop-color="#2F36AB"/>
</linearGradient>
<linearGradient id="paint12_linear_1_1089" x1="837.299" y1="969.331" x2="1314.44" y2="32.8944" gradientUnits="userSpaceOnUse">
<stop stop-color="#59C031"/>
<stop offset="1" stop-color="#2F36AB"/>
</linearGradient>
<linearGradient id="paint13_linear_1_1089" x1="794.658" y1="952.709" x2="1314.96" y2="51.5116" gradientUnits="userSpaceOnUse">
<stop stop-color="#59C031"/>
<stop offset="1" stop-color="#2F36AB"/>
</linearGradient>
<linearGradient id="paint14_linear_1_1089" x1="753.158" y1="935.157" x2="1314.27" y2="71.127" gradientUnits="userSpaceOnUse">
<stop stop-color="#59C031"/>
<stop offset="1" stop-color="#2F36AB"/>
</linearGradient>
<linearGradient id="paint15_linear_1_1089" x1="712.837" y1="916.749" x2="1312.3" y2="91.6631" gradientUnits="userSpaceOnUse">
<stop stop-color="#59C031"/>
<stop offset="1" stop-color="#2F36AB"/>
</linearGradient>
<linearGradient id="paint16_linear_1_1089" x1="673.732" y1="897.559" x2="1309.02" y2="113.04" gradientUnits="userSpaceOnUse">
<stop stop-color="#59C031"/>
<stop offset="1" stop-color="#2F36AB"/>
</linearGradient>
<linearGradient id="paint17_linear_1_1089" x1="635.873" y1="877.662" x2="1304.41" y2="135.177" gradientUnits="userSpaceOnUse">
<stop stop-color="#59C031"/>
<stop offset="1" stop-color="#2F36AB"/>
</linearGradient>
<linearGradient id="paint18_linear_1_1089" x1="599.285" y1="857.135" x2="1298.43" y2="157.992" gradientUnits="userSpaceOnUse">
<stop stop-color="#59C031"/>
<stop offset="1" stop-color="#2F36AB"/>
</linearGradient>
<linearGradient id="paint19_linear_1_1089" x1="563.991" y1="836.054" x2="1291.06" y2="181.402" gradientUnits="userSpaceOnUse">
<stop stop-color="#59C031"/>
<stop offset="1" stop-color="#2F36AB"/>
</linearGradient>
<linearGradient id="paint20_linear_1_1089" x1="530.008" y1="814.497" x2="1282.28" y2="205.323" gradientUnits="userSpaceOnUse">
<stop stop-color="#59C031"/>
<stop offset="1" stop-color="#2F36AB"/>
</linearGradient>
<linearGradient id="paint21_linear_1_1089" x1="497.348" y1="792.542" x2="1272.07" y2="229.672" gradientUnits="userSpaceOnUse">
<stop stop-color="#59C031"/>
<stop offset="1" stop-color="#2F36AB"/>
</linearGradient>
<linearGradient id="paint22_linear_1_1089" x1="466.019" y1="770.267" x2="1260.44" y2="254.365" gradientUnits="userSpaceOnUse">
<stop stop-color="#59C031"/>
<stop offset="1" stop-color="#2F36AB"/>
</linearGradient>
<linearGradient id="paint23_linear_1_1089" x1="436.024" y1="747.75" x2="1247.37" y2="279.319" gradientUnits="userSpaceOnUse">
<stop stop-color="#59C031"/>
<stop offset="1" stop-color="#2F36AB"/>
</linearGradient>
<linearGradient id="paint24_linear_1_1089" x1="407.363" y1="725.067" x2="1232.87" y2="304.451" gradientUnits="userSpaceOnUse">
<stop stop-color="#59C031"/>
<stop offset="1" stop-color="#2F36AB"/>
</linearGradient>
<linearGradient id="paint25_linear_1_1089" x1="380.03" y1="702.295" x2="1216.94" y2="329.679" gradientUnits="userSpaceOnUse">
<stop stop-color="#59C031"/>
<stop offset="1" stop-color="#2F36AB"/>
</linearGradient>
<linearGradient id="paint26_linear_1_1089" x1="354.015" y1="679.509" x2="1199.59" y2="354.922" gradientUnits="userSpaceOnUse">
<stop stop-color="#59C031"/>
<stop offset="1" stop-color="#2F36AB"/>
</linearGradient>
<linearGradient id="paint27_linear_1_1089" x1="329.305" y1="656.782" x2="1180.84" y2="380.1" gradientUnits="userSpaceOnUse">
<stop stop-color="#59C031"/>
<stop offset="1" stop-color="#2F36AB"/>
</linearGradient>
<linearGradient id="paint28_linear_1_1089" x1="305.881" y1="634.188" x2="1160.71" y2="405.137" gradientUnits="userSpaceOnUse">
<stop stop-color="#59C031"/>
<stop offset="1" stop-color="#2F36AB"/>
</linearGradient>
<linearGradient id="paint29_linear_1_1089" x1="283.721" y1="611.797" x2="1139.22" y2="429.955" gradientUnits="userSpaceOnUse">
<stop stop-color="#59C031"/>
<stop offset="1" stop-color="#2F36AB"/>
</linearGradient>
<linearGradient id="paint30_linear_1_1089" x1="262.801" y1="589.678" x2="1116.4" y2="454.481" gradientUnits="userSpaceOnUse">
<stop stop-color="#59C031"/>
<stop offset="1" stop-color="#2F36AB"/>
</linearGradient>
<linearGradient id="paint31_linear_1_1089" x1="243.09" y1="567.896" x2="1092.28" y2="478.643" gradientUnits="userSpaceOnUse">
<stop stop-color="#59C031"/>
<stop offset="1" stop-color="#2F36AB"/>
</linearGradient>
<linearGradient id="paint32_linear_1_1089" x1="224.556" y1="546.518" x2="1066.89" y2="502.373" gradientUnits="userSpaceOnUse">
<stop stop-color="#59C031"/>
<stop offset="1" stop-color="#2F36AB"/>
</linearGradient>
<linearGradient id="paint33_linear_1_1089" x1="207.161" y1="525.604" x2="1040.27" y2="525.604" gradientUnits="userSpaceOnUse">
<stop stop-color="#59C031"/>
<stop offset="1" stop-color="#2F36AB"/>
</linearGradient>
<linearGradient id="paint34_linear_1_1089" x1="190.867" y1="505.213" x2="1012.48" y2="548.271" gradientUnits="userSpaceOnUse">
<stop stop-color="#59C031"/>
<stop offset="1" stop-color="#2F36AB"/>
</linearGradient>
<linearGradient id="paint35_linear_1_1089" x1="175.631" y1="485.402" x2="983.544" y2="570.317" gradientUnits="userSpaceOnUse">
<stop stop-color="#59C031"/>
<stop offset="1" stop-color="#2F36AB"/>
</linearGradient>
<linearGradient id="paint36_linear_1_1089" x1="161.408" y1="466.223" x2="953.521" y2="591.681" gradientUnits="userSpaceOnUse">
<stop stop-color="#59C031"/>
<stop offset="1" stop-color="#2F36AB"/>
</linearGradient>
<linearGradient id="paint37_linear_1_1089" x1="148.149" y1="447.727" x2="922.462" y2="612.312" gradientUnits="userSpaceOnUse">
<stop stop-color="#59C031"/>
<stop offset="1" stop-color="#2F36AB"/>
</linearGradient>
<linearGradient id="paint38_linear_1_1089" x1="135.803" y1="429.96" x2="890.421" y2="632.159" gradientUnits="userSpaceOnUse">
<stop stop-color="#59C031"/>
<stop offset="1" stop-color="#2F36AB"/>
</linearGradient>
<linearGradient id="paint39_linear_1_1089" x1="124.32" y1="412.966" x2="857.453" y2="651.176" gradientUnits="userSpaceOnUse">
<stop stop-color="#59C031"/>
<stop offset="1" stop-color="#2F36AB"/>
</linearGradient>
<linearGradient id="paint40_linear_1_1089" x1="113.642" y1="396.784" x2="823.619" y2="669.319" gradientUnits="userSpaceOnUse">
<stop stop-color="#59C031"/>
<stop offset="1" stop-color="#2F36AB"/>
</linearGradient>
<linearGradient id="paint41_linear_1_1089" x1="103.716" y1="381.451" x2="788.978" y2="686.549" gradientUnits="userSpaceOnUse">
<stop stop-color="#59C031"/>
<stop offset="1" stop-color="#2F36AB"/>
</linearGradient>
<linearGradient id="paint42_linear_1_1089" x1="94.4811" y1="366.999" x2="753.592" y2="702.833" gradientUnits="userSpaceOnUse">
<stop stop-color="#59C031"/>
<stop offset="1" stop-color="#2F36AB"/>
</linearGradient>
<linearGradient id="paint43_linear_1_1089" x1="85.8797" y1="353.458" x2="717.526" y2="718.139" gradientUnits="userSpaceOnUse">
<stop stop-color="#59C031"/>
<stop offset="1" stop-color="#2F36AB"/>
</linearGradient>
<linearGradient id="paint44_linear_1_1089" x1="77.8509" y1="340.85" x2="680.845" y2="732.439" gradientUnits="userSpaceOnUse">
<stop stop-color="#59C031"/>
<stop offset="1" stop-color="#2F36AB"/>
</linearGradient>
<linearGradient id="paint45_linear_1_1089" x1="70.3336" y1="329.199" x2="643.613" y2="745.711" gradientUnits="userSpaceOnUse">
<stop stop-color="#59C031"/>
<stop offset="1" stop-color="#2F36AB"/>
</linearGradient>
<linearGradient id="paint46_linear_1_1089" x1="63.266" y1="318.522" x2="605.898" y2="757.937" gradientUnits="userSpaceOnUse">
<stop stop-color="#59C031"/>
<stop offset="1" stop-color="#2F36AB"/>
</linearGradient>
<linearGradient id="paint47_linear_1_1089" x1="56.5856" y1="308.832" x2="567.767" y2="769.102" gradientUnits="userSpaceOnUse">
<stop stop-color="#59C031"/>
<stop offset="1" stop-color="#2F36AB"/>
</linearGradient>
<linearGradient id="paint48_linear_1_1089" x1="50.2306" y1="300.139" x2="529.287" y2="779.195" gradientUnits="userSpaceOnUse">
<stop stop-color="#59C031"/>
<stop offset="1" stop-color="#2F36AB"/>
</linearGradient>
<linearGradient id="paint49_linear_1_1089" x1="44.138" y1="292.448" x2="490.523" y2="788.21" gradientUnits="userSpaceOnUse">
<stop stop-color="#59C031"/>
<stop offset="1" stop-color="#2F36AB"/>
</linearGradient>
<linearGradient id="paint50_linear_1_1089" x1="38.2463" y1="285.763" x2="451.545" y2="796.144" gradientUnits="userSpaceOnUse">
<stop stop-color="#59C031"/>
<stop offset="1" stop-color="#2F36AB"/>
</linearGradient>
<linearGradient id="paint51_linear_1_1089" x1="32.4937" y1="280.081" x2="412.416" y2="803" gradientUnits="userSpaceOnUse">
<stop stop-color="#59C031"/>
<stop offset="1" stop-color="#2F36AB"/>
</linearGradient>
<linearGradient id="paint52_linear_1_1089" x1="26.8196" y1="275.398" x2="373.203" y2="808.782" gradientUnits="userSpaceOnUse">
<stop stop-color="#59C031"/>
<stop offset="1" stop-color="#2F36AB"/>
</linearGradient>
<linearGradient id="paint53_linear_1_1089" x1="21.1641" y1="271.704" x2="333.97" y2="813.5" gradientUnits="userSpaceOnUse">
<stop stop-color="#59C031"/>
<stop offset="1" stop-color="#2F36AB"/>
</linearGradient>
<linearGradient id="paint54_linear_1_1089" x1="15.4686" y1="268.988" x2="294.781" y2="817.168" gradientUnits="userSpaceOnUse">
<stop stop-color="#59C031"/>
<stop offset="1" stop-color="#2F36AB"/>
</linearGradient>
<linearGradient id="paint55_linear_1_1089" x1="9.67565" y1="267.233" x2="255.695" y2="819.803" gradientUnits="userSpaceOnUse">
<stop stop-color="#59C031"/>
<stop offset="1" stop-color="#2F36AB"/>
</linearGradient>
<linearGradient id="paint56_linear_1_1089" x1="3.72963" y1="266.421" x2="216.775" y2="821.423" gradientUnits="userSpaceOnUse">
<stop stop-color="#59C031"/>
<stop offset="1" stop-color="#2F36AB"/>
</linearGradient>
<linearGradient id="paint57_linear_1_1089" x1="-2.42359" y1="266.53" x2="178.077" y2="822.054" gradientUnits="userSpaceOnUse">
<stop stop-color="#59C031"/>
<stop offset="1" stop-color="#2F36AB"/>
</linearGradient>
<linearGradient id="paint58_linear_1_1089" x1="-8.83613" y1="267.534" x2="139.658" y2="821.722" gradientUnits="userSpaceOnUse">
<stop stop-color="#59C031"/>
<stop offset="1" stop-color="#2F36AB"/>
</linearGradient>
<linearGradient id="paint59_linear_1_1089" x1="-15.558" y1="269.406" x2="101.572" y2="820.457" gradientUnits="userSpaceOnUse">
<stop stop-color="#59C031"/>
<stop offset="1" stop-color="#2F36AB"/>
</linearGradient>
<linearGradient id="paint60_linear_1_1089" x1="-22.6371" y1="272.115" x2="63.8692" y2="818.294" gradientUnits="userSpaceOnUse">
<stop stop-color="#59C031"/>
<stop offset="1" stop-color="#2F36AB"/>
</linearGradient>
<linearGradient id="paint61_linear_1_1089" x1="-30.1189" y1="275.626" x2="26.5995" y2="815.266" gradientUnits="userSpaceOnUse">
<stop stop-color="#59C031"/>
<stop offset="1" stop-color="#2F36AB"/>
</linearGradient>
<linearGradient id="paint62_linear_1_1089" x1="-38.0462" y1="279.905" x2="-10.1911" y2="811.414" gradientUnits="userSpaceOnUse">
<stop stop-color="#59C031"/>
<stop offset="1" stop-color="#2F36AB"/>
</linearGradient>
<linearGradient id="paint63_linear_1_1089" x1="-46.4594" y1="284.914" x2="-46.4594" y2="806.777" gradientUnits="userSpaceOnUse">
<stop stop-color="#59C031"/>
<stop offset="1" stop-color="#2F36AB"/>
</linearGradient>
<linearGradient id="paint64_linear_1_1089" x1="-55.396" y1="290.612" x2="-82.1652" y2="801.399" gradientUnits="userSpaceOnUse">
<stop stop-color="#59C031"/>
<stop offset="1" stop-color="#2F36AB"/>
</linearGradient>
<linearGradient id="paint65_linear_1_1089" x1="-64.8905" y1="296.958" x2="-117.271" y2="795.325" gradientUnits="userSpaceOnUse">
<stop stop-color="#59C031"/>
<stop offset="1" stop-color="#2F36AB"/>
</linearGradient>
<linearGradient id="paint66_linear_1_1089" x1="-74.9749" y1="303.907" x2="-151.743" y2="788.603" gradientUnits="userSpaceOnUse">
<stop stop-color="#59C031"/>
<stop offset="1" stop-color="#2F36AB"/>
</linearGradient>
<linearGradient id="paint67_linear_1_1089" x1="-85.6773" y1="311.415" x2="-185.55" y2="781.28" gradientUnits="userSpaceOnUse">
<stop stop-color="#59C031"/>
<stop offset="1" stop-color="#2F36AB"/>
</linearGradient>
<linearGradient id="paint68_linear_1_1089" x1="-97.0237" y1="319.434" x2="-218.665" y2="773.407" gradientUnits="userSpaceOnUse">
<stop stop-color="#59C031"/>
<stop offset="1" stop-color="#2F36AB"/>
</linearGradient>
</defs>
</svg>
