<svg width="23" height="25" viewBox="0 0 23 25" fill="none" xmlns="http://www.w3.org/2000/svg">
<g clip-path="url(#clip0_1_1282)">
<path d="M16.3552 9.00187C17.9654 10.1523 19.9379 10.8292 22.0684 10.8292V6.73178C21.6651 6.73187 21.263 6.6898 20.8685 6.60627V9.83152C18.7383 9.83152 16.766 9.15471 15.1554 8.00437V16.3661C15.1554 20.5491 11.7627 23.9398 7.57785 23.9398C6.01639 23.9398 4.56501 23.468 3.35941 22.6588C4.73544 24.0651 6.65441 24.9374 8.77734 24.9374C12.9625 24.9374 16.3554 21.5467 16.3554 17.3635V9.00187H16.3552ZM17.8354 4.86808C17.0124 3.96954 16.4721 2.80833 16.3552 1.52454V0.997559H15.2182C15.5044 2.6292 16.4807 4.02316 17.8354 4.86808ZM6.0063 19.4489C5.54655 18.8465 5.29803 18.1094 5.29915 17.3515C5.29915 15.4384 6.85096 13.8872 8.76553 13.8872C9.12227 13.887 9.47691 13.9418 9.81699 14.0495V9.86049C9.41958 9.80609 9.01854 9.7829 8.61768 9.79144V13.052C8.27745 12.9441 7.92262 12.8894 7.5657 12.8897C5.65122 12.8897 4.09949 14.4407 4.09949 16.3541C4.09949 17.707 4.87509 18.8783 6.0063 19.4489Z" fill="#FF004F"/>
<path d="M15.1554 8.00428C16.766 9.15463 18.7382 9.83144 20.8685 9.83144V6.60618C19.6794 6.35299 18.6267 5.73196 17.8353 4.86808C16.4805 4.02308 15.5044 2.62911 15.2182 0.997559H12.2317V17.3633C12.2249 19.2713 10.6758 20.8161 8.76534 20.8161C7.63965 20.8161 6.63948 20.2798 6.00612 19.4489C4.87508 18.8783 4.09939 17.707 4.09939 16.3542C4.09939 14.441 5.65112 12.8898 7.5656 12.8898C7.93241 12.8898 8.28594 12.9469 8.61758 13.052V9.79152C4.5062 9.87644 1.19974 13.234 1.19974 17.3634C1.19974 19.4248 2.0231 21.2935 3.35948 22.6589C4.56508 23.468 6.01638 23.94 7.57793 23.94C11.7628 23.94 15.1555 20.549 15.1555 16.3661V8.00437L15.1554 8.00428Z" fill="black"/>
<path d="M20.8685 6.60603V5.73414C19.7962 5.73576 18.7451 5.43562 17.8353 4.86802C18.6406 5.74924 19.7011 6.35692 20.8685 6.60621V6.60603ZM15.2181 0.997414C15.1908 0.841518 15.1699 0.684578 15.1553 0.526983V0H11.0317V16.3659C11.0252 18.2737 9.47604 19.8185 7.56552 19.8185C7.0239 19.8193 6.48969 19.6927 6.00603 19.449C6.6394 20.2797 7.63957 20.8159 8.76526 20.8159C10.6756 20.8159 12.2249 19.2713 12.2316 17.3634V0.9975H15.2181V0.997414ZM8.61776 9.79138V8.86302C8.27318 8.81592 7.9258 8.79236 7.57802 8.7925C3.39267 8.7925 0 12.1834 0 16.3659C0 18.9883 1.33336 21.2993 3.35957 22.6587C2.02319 21.2934 1.19983 19.4246 1.19983 17.3633C1.19983 13.234 4.50621 9.87629 8.61776 9.79138Z" fill="#00F2EA"/>
</g>
<defs>
<clipPath id="clip0_1_1282">
<rect width="22.069" height="25" fill="white"/>
</clipPath>
</defs>
</svg>
