<svg width="31" height="23" viewBox="0 0 31 23" fill="none" xmlns="http://www.w3.org/2000/svg">
<path fill-rule="evenodd" clip-rule="evenodd" d="M13.0723 0.54146C13.0723 0.568201 12.2956 0.582186 10.8203 0.582186C8.84463 0.582186 8.56827 0.589791 8.56827 0.64352C8.56827 0.696758 8.42022 0.704854 7.47153 0.704854C6.52283 0.704854 6.37478 0.713195 6.37478 0.766188C6.37478 0.818445 6.27256 0.827523 5.68952 0.827523C5.10625 0.827523 5.00403 0.836845 5.00403 0.888857C5.00403 0.940132 4.92577 0.950191 4.53403 0.950191C4.13241 0.950191 4.06403 0.959759 4.06403 1.01471C4.06403 1.06501 4.02384 1.07752 3.87791 1.07237C3.54021 1.06035 3.47653 1.07016 3.47653 1.13419C3.47653 1.18203 3.42436 1.19553 3.24153 1.19553C3.0587 1.19553 3.00653 1.20927 3.00653 1.25686C3.00653 1.2998 2.96517 1.3182 2.86952 1.3182C2.77364 1.3182 2.73228 1.33684 2.73228 1.37953C2.73228 1.4205 2.69327 1.44087 2.61478 1.44087C2.53653 1.44087 2.49728 1.46147 2.49728 1.5022C2.49728 1.54317 2.45827 1.56353 2.37978 1.56353C2.30153 1.56353 2.26228 1.58414 2.26228 1.62487C2.26228 1.65872 2.23596 1.6862 2.20353 1.6862C2.17134 1.6862 2.14478 1.71393 2.14478 1.74754C2.14478 1.78851 2.10577 1.80887 2.02728 1.80887C1.94903 1.80887 1.90978 1.82948 1.90978 1.87021C1.90978 1.90406 1.88346 1.93154 1.85103 1.93154C1.81884 1.93154 1.79228 1.95926 1.79228 1.99287C1.79228 2.02673 1.76596 2.05421 1.73353 2.05421C1.70134 2.05421 1.67478 2.08193 1.67478 2.11554C1.67478 2.1494 1.64846 2.17688 1.61603 2.17688C1.58384 2.17688 1.55728 2.2046 1.55728 2.23821C1.55728 2.27207 1.53096 2.29954 1.49853 2.29954C1.46634 2.29954 1.43978 2.32727 1.43978 2.36088C1.43978 2.39474 1.41346 2.42221 1.38103 2.42221C1.34202 2.42221 1.32228 2.46318 1.32228 2.54488C1.32228 2.62682 1.30278 2.66755 1.26353 2.66755C1.23134 2.66755 1.20478 2.69527 1.20478 2.72888C1.20478 2.76274 1.17846 2.79022 1.14603 2.79022C1.10702 2.79022 1.08728 2.83119 1.08728 2.91289C1.08728 2.99483 1.06778 3.03556 1.02853 3.03556C0.989523 3.03556 0.969783 3.07653 0.969783 3.15822C0.969783 3.24017 0.950278 3.28089 0.911033 3.28089C0.870143 3.28089 0.852283 3.32407 0.852283 3.42417C0.852283 3.52402 0.834658 3.5672 0.793533 3.5672C0.747943 3.5672 0.734783 3.62167 0.734783 3.81254C0.734783 4.00341 0.721858 4.05788 0.676033 4.05788C0.629973 4.05788 0.617283 4.11455 0.617283 4.32358C0.617283 4.5326 0.604828 4.58952 0.558533 4.58952C0.511063 4.58952 0.499783 4.65527 0.499783 4.93692C0.499783 5.21856 0.488738 5.28456 0.441033 5.28456C0.392153 5.28456 0.382283 5.36626 0.382283 5.77524C0.382283 6.18421 0.372648 6.26591 0.323533 6.26591C0.273713 6.26591 0.264783 6.37263 0.264783 6.98156C0.264783 7.59024 0.256088 7.69696 0.206033 7.69696C0.157388 7.69696 0.147283 7.7762 0.147283 8.16384C0.147283 8.49897 0.133653 8.6366 0.0984035 8.65132C0.0591585 8.66776 0.0591585 8.67267 0.0984035 8.67512C0.160678 8.67929 0.170548 10.314 0.108273 10.314C0.0828935 10.314 0.0690285 10.7502 0.0690285 11.5407C0.0690285 12.3311 0.0828935 12.7673 0.108273 12.7673C0.133418 12.7673 0.147283 13.2239 0.147283 14.0554C0.147283 15.1731 0.155038 15.3434 0.206033 15.3434C0.256088 15.3434 0.264783 15.4523 0.264783 16.0794C0.264783 16.7065 0.273478 16.8154 0.323533 16.8154C0.372648 16.8154 0.382283 16.8971 0.382283 17.3061C0.382283 17.7151 0.392153 17.7968 0.441033 17.7968C0.488503 17.7968 0.499783 17.8603 0.499783 18.1238C0.499783 18.3873 0.511298 18.4511 0.558533 18.4511C0.605063 18.4511 0.617283 18.5095 0.617283 18.733C0.617283 18.9457 0.631853 19.0205 0.676033 19.0382C0.717628 19.0548 0.734783 19.1223 0.734783 19.2675C0.734783 19.4231 0.749118 19.4731 0.793533 19.4731C0.832778 19.4731 0.852283 19.5141 0.852283 19.5958C0.852283 19.6777 0.872023 19.7185 0.911033 19.7185C0.950278 19.7185 0.969783 19.7594 0.969783 19.8411C0.969783 19.9231 0.989523 19.9638 1.02853 19.9638C1.06778 19.9638 1.08728 20.0048 1.08728 20.0865C1.08728 20.1684 1.10702 20.2092 1.14603 20.2092C1.18528 20.2092 1.20478 20.2501 1.20478 20.3318C1.20478 20.4138 1.22452 20.4545 1.26353 20.4545C1.29596 20.4545 1.32228 20.4822 1.32228 20.5158C1.32228 20.5497 1.34884 20.5772 1.38103 20.5772C1.41346 20.5772 1.43978 20.6049 1.43978 20.6385C1.43978 20.6723 1.46634 20.6998 1.49853 20.6998C1.53096 20.6998 1.55728 20.7275 1.55728 20.7612C1.55728 20.795 1.58384 20.8225 1.61603 20.8225C1.64846 20.8225 1.67478 20.8502 1.67478 20.8838C1.67478 20.9177 1.70134 20.9452 1.73353 20.9452C1.76596 20.9452 1.79463 20.9729 1.79722 21.0065C1.80662 21.1245 1.81226 21.1431 1.84751 21.177C1.86819 21.1966 1.87195 21.1905 1.85667 21.1628C1.8421 21.1363 1.84821 21.1029 1.87007 21.0887C1.89192 21.0747 1.90978 21.0919 1.90978 21.1267C1.90978 21.1618 1.93634 21.1905 1.96853 21.1905C2.00096 21.1905 2.02728 21.2182 2.02728 21.2518C2.02728 21.2928 2.06653 21.3132 2.14478 21.3132C2.22327 21.3132 2.26228 21.3338 2.26228 21.3745C2.26228 21.4084 2.28884 21.4358 2.32103 21.4358C2.35346 21.4358 2.37978 21.4636 2.37978 21.4972C2.37978 21.5401 2.42114 21.5585 2.51702 21.5585C2.61267 21.5585 2.65403 21.5771 2.65403 21.6198C2.65403 21.6608 2.69327 21.6812 2.77153 21.6812C2.8479 21.6812 2.88903 21.702 2.88903 21.7403C2.88903 21.7818 2.94449 21.8031 3.07515 21.8119C3.19829 21.8203 3.25774 21.8416 3.2514 21.8755C3.24435 21.9123 3.31344 21.9265 3.49603 21.9265C3.69625 21.9265 3.75077 21.9398 3.75077 21.9878C3.75077 22.0384 3.82033 22.0492 4.14228 22.0492C4.46447 22.0492 4.53403 22.0602 4.53403 22.1105C4.53403 22.1623 4.62497 22.1718 5.1173 22.1718C5.59975 22.1718 5.70456 22.1826 5.72313 22.2332C5.7424 22.2852 5.87987 22.2945 6.62811 22.2945C7.38646 22.2945 7.51077 22.3033 7.51077 22.3558C7.51077 22.4093 7.71099 22.4172 9.07728 22.4172C10.0958 22.4172 10.644 22.4317 10.644 22.4582C10.644 22.4851 12.1649 22.4991 15.1285 22.4991C18.0921 22.4991 19.6133 22.4851 19.6133 22.4582C19.6133 22.4317 20.1549 22.4172 21.1603 22.4172C22.5094 22.4172 22.7073 22.4093 22.7073 22.3558C22.7073 22.3033 22.8314 22.2945 23.5885 22.2945C24.3459 22.2945 24.4698 22.2859 24.4698 22.2332C24.4698 22.1814 24.5633 22.1718 25.077 22.1718C25.5905 22.1718 25.684 22.1625 25.684 22.1105C25.684 22.0602 25.7536 22.0492 26.0758 22.0492C26.4062 22.0492 26.4673 22.0391 26.4673 21.9849C26.4673 21.9363 26.5037 21.9221 26.6142 21.9275C26.9002 21.9412 26.9765 21.9282 26.9765 21.8652C26.9765 21.8198 27.0221 21.8038 27.1528 21.8038C27.2834 21.8038 27.329 21.7881 27.329 21.7425C27.329 21.7018 27.3683 21.6812 27.4465 21.6812C27.5248 21.6812 27.564 21.6608 27.564 21.6198C27.564 21.5771 27.6054 21.5585 27.701 21.5585C27.7969 21.5585 27.8383 21.5401 27.8383 21.4972C27.8383 21.4564 27.8773 21.4358 27.9558 21.4358C28.034 21.4358 28.0733 21.4155 28.0733 21.3745C28.0733 21.3409 28.0996 21.3132 28.132 21.3132C28.1642 21.3132 28.1908 21.2857 28.1908 21.2518C28.1908 21.2182 28.2171 21.1905 28.2495 21.1905C28.2817 21.1905 28.3083 21.163 28.3083 21.1292C28.3083 21.0956 28.3346 21.0678 28.367 21.0678C28.3992 21.0678 28.4258 21.0404 28.4258 21.0065C28.4258 20.9658 28.4648 20.9452 28.5433 20.9452C28.6476 20.9452 28.6608 20.9317 28.6608 20.8225C28.6608 20.7408 28.6803 20.6998 28.7195 20.6998C28.7517 20.6998 28.7783 20.6723 28.7783 20.6385C28.7783 20.6049 28.8046 20.5772 28.837 20.5772C28.8692 20.5772 28.8958 20.5497 28.8958 20.5158C28.8958 20.4822 28.9221 20.4545 28.9545 20.4545C28.9867 20.4545 29.0133 20.427 29.0133 20.3932C29.0133 20.3595 29.0396 20.3318 29.072 20.3318C29.111 20.3318 29.1308 20.2911 29.1308 20.2092C29.1308 20.1275 29.1503 20.0865 29.1895 20.0865C29.2285 20.0865 29.2483 20.0458 29.2483 19.9638C29.2483 19.8821 29.2678 19.8411 29.307 19.8411C29.3479 19.8411 29.3658 19.798 29.3658 19.6981C29.3658 19.5983 29.3834 19.5551 29.4245 19.5551C29.4689 19.5551 29.4833 19.5045 29.4833 19.3463C29.4833 19.1773 29.4946 19.1419 29.542 19.1608C29.5904 19.1802 29.6008 19.1383 29.6008 18.9199C29.6008 18.7121 29.6132 18.6554 29.6595 18.6554C29.7065 18.6554 29.7183 18.5941 29.7183 18.3488C29.7183 18.1034 29.73 18.0421 29.777 18.0421C29.8257 18.0421 29.8358 17.9626 29.8358 17.5718C29.8358 17.1812 29.8456 17.1017 29.8945 17.1017C29.9441 17.1017 29.9533 17.0041 29.9533 16.4678C29.9533 15.9317 29.9622 15.8341 30.012 15.8341C30.0625 15.8341 30.0708 15.6976 30.0708 14.8527C30.0708 14.0078 30.0788 13.8714 30.1295 13.8714C30.181 13.8714 30.1883 13.5828 30.1883 11.5203C30.1883 9.4575 30.181 9.16898 30.1295 9.16898C30.0788 9.16898 30.0708 9.03037 30.0708 8.16604C30.0708 7.31203 30.0618 7.15943 30.012 7.13931C29.9634 7.11993 29.9533 7.01051 29.9533 6.50683C29.9533 5.99285 29.9441 5.8979 29.8945 5.8979C29.8459 5.8979 29.8358 5.82283 29.8358 5.46856C29.8358 5.10522 29.8261 5.03922 29.774 5.03922C29.7258 5.03922 29.7138 4.99727 29.7187 4.84492C29.7303 4.49237 29.7209 4.42588 29.6595 4.42588C29.6125 4.42588 29.6008 4.36455 29.6008 4.11921C29.6008 3.87387 29.589 3.81254 29.542 3.81254C29.5009 3.81254 29.4833 3.76936 29.4833 3.66951C29.4833 3.56941 29.4654 3.52623 29.4245 3.52623C29.3735 3.52623 29.3373 3.3123 29.3606 3.14964C29.363 3.13345 29.3371 3.13148 29.3035 3.14498C29.2647 3.16043 29.2452 3.14866 29.2499 3.11284C29.2668 2.98551 29.245 2.91289 29.1895 2.91289C29.1571 2.91289 29.1308 2.88541 29.1308 2.85155C29.1308 2.81794 29.1042 2.79022 29.072 2.79022C29.0328 2.79022 29.0133 2.74949 29.0133 2.66755C29.0133 2.58585 28.9935 2.54488 28.9545 2.54488C28.9221 2.54488 28.8958 2.5174 28.8958 2.48355C28.8958 2.44994 28.8692 2.42221 28.837 2.42221C28.8046 2.42221 28.7783 2.39474 28.7783 2.36088C28.7783 2.32727 28.7517 2.29954 28.7195 2.29954C28.6871 2.29954 28.6608 2.26348 28.6608 2.21907C28.6608 2.16436 28.642 2.14621 28.602 2.16216C28.5614 2.17835 28.5433 2.15946 28.5433 2.10082C28.5433 2.04219 28.5249 2.0233 28.4845 2.03949C28.4472 2.05445 28.4258 2.039 28.4258 1.99729C28.4258 1.96123 28.3992 1.93154 28.367 1.93154C28.3346 1.93154 28.3083 1.90406 28.3083 1.87021C28.3083 1.83659 28.2836 1.80887 28.2535 1.80887C28.2237 1.80887 28.1889 1.78139 28.1764 1.74754C28.1642 1.71393 28.1095 1.6862 28.0549 1.6862C27.9929 1.6862 27.9558 1.66339 27.9558 1.62487C27.9558 1.58414 27.9165 1.56353 27.8383 1.56353C27.7598 1.56353 27.7208 1.54317 27.7208 1.5022C27.7208 1.45951 27.6794 1.44087 27.5835 1.44087C27.4879 1.44087 27.4465 1.42246 27.4465 1.37953C27.4465 1.3388 27.4073 1.3182 27.329 1.3182C27.2508 1.3182 27.2115 1.29783 27.2115 1.25686C27.2115 1.21049 27.1636 1.19553 27.0158 1.19553C26.8677 1.19553 26.8198 1.18056 26.8198 1.13419C26.8198 1.08513 26.761 1.07286 26.526 1.07286C26.291 1.07286 26.2323 1.06059 26.2323 1.01153C26.2323 0.96025 26.1514 0.950191 25.7385 0.950191C25.3158 0.950191 25.2481 0.941359 25.2674 0.888857C25.2869 0.835864 25.1957 0.827523 24.5861 0.827523C23.9866 0.827523 23.8823 0.818445 23.8823 0.766188C23.8823 0.713195 23.7366 0.704854 22.8053 0.704854C21.874 0.704854 21.7283 0.696513 21.7283 0.64352C21.7283 0.589791 21.4474 0.582186 19.437 0.582186C17.9356 0.582186 17.1458 0.568201 17.1458 0.54146C17.1458 0.514718 16.4408 0.500488 15.109 0.500488C13.7773 0.500488 13.0723 0.514718 13.0723 0.54146ZM12.5558 7.08386C12.7348 7.19623 12.8887 7.28823 12.8979 7.28823C12.9073 7.28823 13.093 7.39863 13.3106 7.53357C13.5282 7.6685 13.7124 7.7789 13.7202 7.7789C13.7277 7.7789 14.0012 7.94451 14.3279 8.14691C14.6545 8.34931 14.9278 8.51491 14.9356 8.51491C14.9431 8.51491 15.1887 8.66212 15.481 8.84195C15.7736 9.02178 16.0194 9.16898 16.0272 9.16898C16.0352 9.16898 16.2636 9.30711 16.5348 9.47565C16.806 9.64445 17.0349 9.78232 17.0433 9.78232C17.0518 9.78232 17.326 9.94793 17.6527 10.1503C17.9793 10.3527 18.2526 10.5183 18.2601 10.5183C18.2674 10.5183 18.4968 10.6565 18.7699 10.825C19.0427 10.9938 19.2723 11.1317 19.28 11.1317C19.2878 11.1317 19.4058 11.2001 19.5418 11.2838C19.7773 11.4285 19.8462 11.4877 19.8476 11.5463C19.8483 11.5716 19.5181 11.7843 19.1235 12.0129C19.0159 12.0755 18.7543 12.234 18.5421 12.3652C18.3302 12.4965 18.1509 12.6037 18.1436 12.6037C18.1361 12.6037 17.8954 12.7475 17.6085 12.9231C17.3218 13.0988 16.8313 13.3956 16.519 13.5828C16.2067 13.77 15.6996 14.0772 15.3922 14.2654C15.0851 14.4535 14.827 14.6074 14.8188 14.6074C14.8108 14.6074 14.537 14.773 14.2104 14.9754C13.8837 15.1778 13.6088 15.3434 13.5996 15.3434C13.5905 15.3434 13.4725 15.4138 13.3374 15.4997C13.2025 15.5855 12.9686 15.7264 12.8178 15.8127C12.6669 15.8988 12.465 16.0205 12.3689 16.0828C12.2728 16.1451 12.1805 16.1873 12.1633 16.1763C12.1259 16.1523 12.1212 6.94549 12.1584 6.90648C12.2002 6.86306 12.2136 6.86895 12.5558 7.08386Z" fill="#FC0404"/>
</svg>
