<svg width="64" height="64" viewBox="0 0 64 64" fill="none" xmlns="http://www.w3.org/2000/svg">
<g clip-path="url(#clip0_1_1301)">
<mask id="mask0_1_1301" style="mask-type:luminance" maskUnits="userSpaceOnUse" x="-4" y="-4" width="72" height="72">
<path d="M31.6667 63.3333C49.1562 63.3333 63.3333 49.1562 63.3333 31.6667C63.3333 14.1772 49.1562 0 31.6667 0C14.1772 0 0 14.1772 0 31.6667C0 49.1562 14.1772 63.3333 31.6667 63.3333Z" stroke="white" stroke-width="4"/>
<path d="M31.6667 65.3333C50.2607 65.3333 65.3333 50.2607 65.3333 31.6667C65.3333 13.0726 50.2607 -2 31.6667 -2C13.0726 -2 -2 13.0726 -2 31.6667C-2 50.2607 13.0726 65.3333 31.6667 65.3333Z" fill="white" stroke="white" stroke-width="4" stroke-linejoin="round"/>
<path d="M45.9166 36.4166L31.6666 22.1666L17.4166 36.4166" stroke="black" stroke-width="4" stroke-linecap="round" stroke-linejoin="round"/>
</mask>
<g mask="url(#mask0_1_1301)">
<path d="M-6.33337 -6.33331H69.6666V69.6667H-6.33337V-6.33331Z" fill="url(#paint0_linear_1_1301)"/>
</g>
</g>
<rect x="1" y="1" width="61.3333" height="61.3333" rx="30.6667" stroke="white" stroke-width="2"/>
<defs>
<linearGradient id="paint0_linear_1_1301" x1="-14.8334" y1="10.6667" x2="69.6666" y2="69.6667" gradientUnits="userSpaceOnUse">
<stop stop-color="#2E840D"/>
<stop offset="0.171875" stop-color="#2E840D"/>
<stop offset="0.723958" stop-color="#2F36AB"/>
</linearGradient>
<clipPath id="clip0_1_1301">
<rect width="63.3333" height="63.3333" rx="31.6667" fill="white"/>
</clipPath>
</defs>
</svg>
