<svg width="516" height="670" viewBox="0 0 516 670" fill="none" xmlns="http://www.w3.org/2000/svg">
<g filter="url(#filter0_f_48_808)">
<path d="M306 372.333V297.667C306 291.8 301.2 287 295.333 287H220.667C214.8 287 210 291.8 210 297.667V372.333C210 378.2 214.8 383 220.667 383H295.333C301.2 383 306 378.2 306 372.333ZM239.333 343L252.667 359.053L271.333 335L295.333 367H220.667L239.333 343Z" fill="white"/>
<rect x="45.25" y="57.25" width="425.5" height="555.5" rx="212.75" stroke="white" stroke-opacity="0.9" stroke-width="0.5"/>
</g>
<g filter="url(#filter1_f_48_808)">
<path d="M306 371.833V297.167C306 291.3 301.2 286.5 295.333 286.5H220.667C214.8 286.5 210 291.3 210 297.167V371.833C210 377.7 214.8 382.5 220.667 382.5H295.333C301.2 382.5 306 377.7 306 371.833ZM239.333 342.5L252.667 358.553L271.333 334.5L295.333 366.5H220.667L239.333 342.5Z" fill="white"/>
<rect x="39.25" y="49.25" width="437.5" height="570.5" rx="218.75" stroke="white" stroke-opacity="0.8" stroke-width="0.5"/>
</g>
<g filter="url(#filter2_f_48_808)">
<path d="M306.5 371.833V297.167C306.5 291.3 301.7 286.5 295.833 286.5H221.167C215.3 286.5 210.5 291.3 210.5 297.167V371.833C210.5 377.7 215.3 382.5 221.167 382.5H295.833C301.7 382.5 306.5 377.7 306.5 371.833ZM239.833 342.5L253.167 358.553L271.833 334.5L295.833 366.5H221.167L239.833 342.5Z" fill="white"/>
<rect x="18.25" y="21.25" width="480.5" height="626.5" rx="240.25" stroke="white" stroke-opacity="0.5" stroke-width="0.5"/>
</g>
<g filter="url(#filter3_f_48_808)">
<path d="M306 371.833V297.167C306 291.3 301.2 286.5 295.333 286.5H220.667C214.8 286.5 210 291.3 210 297.167V371.833C210 377.7 214.8 382.5 220.667 382.5H295.333C301.2 382.5 306 377.7 306 371.833ZM239.333 342.5L252.667 358.553L271.333 334.5L295.333 366.5H220.667L239.333 342.5Z" fill="white"/>
<rect x="27.25" y="33.25" width="461.5" height="602.5" rx="230.75" stroke="white" stroke-opacity="0.6" stroke-width="0.5"/>
</g>
<g filter="url(#filter4_f_48_808)">
<path d="M306 372.333V297.667C306 291.8 301.2 287 295.333 287H220.667C214.8 287 210 291.8 210 297.667V372.333C210 378.2 214.8 383 220.667 383H295.333C301.2 383 306 378.2 306 372.333ZM239.333 343L252.667 359.053L271.333 335L295.333 367H220.667L239.333 343Z" fill="white"/>
<rect x="5.25" y="5.25" width="505.5" height="659.5" rx="252.75" stroke="white" stroke-opacity="0.2" stroke-width="0.5"/>
</g>
<rect x="56" y="63" width="405" height="543" rx="202.5" fill="white"/>
<path d="M306.5 371.833V297.167C306.5 291.3 301.7 286.5 295.833 286.5H221.167C215.3 286.5 210.5 291.3 210.5 297.167V371.833C210.5 377.7 215.3 382.5 221.167 382.5H295.833C301.7 382.5 306.5 377.7 306.5 371.833ZM239.833 342.5L253.167 358.553L271.833 334.5L295.833 366.5H221.167L239.833 342.5Z" fill="#BFBFBF"/>
<defs>
<filter id="filter0_f_48_808" x="40" y="52" width="436" height="566" filterUnits="userSpaceOnUse" color-interpolation-filters="sRGB">
<feFlood flood-opacity="0" result="BackgroundImageFix"/>
<feBlend mode="normal" in="SourceGraphic" in2="BackgroundImageFix" result="shape"/>
<feGaussianBlur stdDeviation="2.5" result="effect1_foregroundBlur_48_808"/>
</filter>
<filter id="filter1_f_48_808" x="34" y="44" width="448" height="581" filterUnits="userSpaceOnUse" color-interpolation-filters="sRGB">
<feFlood flood-opacity="0" result="BackgroundImageFix"/>
<feBlend mode="normal" in="SourceGraphic" in2="BackgroundImageFix" result="shape"/>
<feGaussianBlur stdDeviation="2.5" result="effect1_foregroundBlur_48_808"/>
</filter>
<filter id="filter2_f_48_808" x="13" y="16" width="491" height="637" filterUnits="userSpaceOnUse" color-interpolation-filters="sRGB">
<feFlood flood-opacity="0" result="BackgroundImageFix"/>
<feBlend mode="normal" in="SourceGraphic" in2="BackgroundImageFix" result="shape"/>
<feGaussianBlur stdDeviation="2.5" result="effect1_foregroundBlur_48_808"/>
</filter>
<filter id="filter3_f_48_808" x="22" y="28" width="472" height="613" filterUnits="userSpaceOnUse" color-interpolation-filters="sRGB">
<feFlood flood-opacity="0" result="BackgroundImageFix"/>
<feBlend mode="normal" in="SourceGraphic" in2="BackgroundImageFix" result="shape"/>
<feGaussianBlur stdDeviation="2.5" result="effect1_foregroundBlur_48_808"/>
</filter>
<filter id="filter4_f_48_808" x="0" y="0" width="516" height="670" filterUnits="userSpaceOnUse" color-interpolation-filters="sRGB">
<feFlood flood-opacity="0" result="BackgroundImageFix"/>
<feBlend mode="normal" in="SourceGraphic" in2="BackgroundImageFix" result="shape"/>
<feGaussianBlur stdDeviation="2.5" result="effect1_foregroundBlur_48_808"/>
</filter>
</defs>
</svg>
