<svg width="114" height="113" viewBox="0 0 114 113" fill="none" xmlns="http://www.w3.org/2000/svg">
<g clip-path="url(#clip0_48_822)">
<path d="M65.5536 15.6908C47.5504 12.0837 30.0347 23.8379 25.334 41.3811L18.7688 65.883C17.1397 71.9627 20.7863 78.1999 26.9329 79.8469L30.6356 80.839C34.7086 81.9304 38.9242 79.5271 40.0037 75.4984L43.9291 60.8485C45.0086 56.8198 42.5594 52.6306 38.4864 51.5393L31.081 49.555L32.7591 43.2922C36.5275 29.2283 50.7653 19.9324 65.0546 23.3294C68.5511 24.1554 71.8483 25.6676 74.7507 27.7765C77.653 29.8854 80.1014 32.548 81.9506 35.6062C83.7998 38.6644 85.0121 42.0561 85.5156 45.5799C86.0191 49.1037 85.8035 52.688 84.8817 56.12L82.919 63.4449L75.5136 61.4607C71.4406 60.3693 67.2249 62.7726 66.1454 66.8013L62.22 81.4512C61.1405 85.4799 63.5897 89.6691 67.6627 90.7604L75.0682 92.7447L74.0868 96.4072L51.8705 90.4543C49.834 89.9086 47.7262 91.1103 47.1864 93.1246C46.6467 95.139 47.8713 97.2336 49.9078 97.7793L68.4214 102.74C74.5679 104.387 80.8445 100.809 82.4736 94.729L92.2871 58.1043C97.3607 39.1693 85.2895 19.6443 65.5536 15.6908Z" fill="#4D5B47"/>
</g>
<defs>
<clipPath id="clip0_48_822">
<rect width="92" height="91" fill="white" transform="translate(24.3438 0.644653) rotate(15)"/>
</clipPath>
</defs>
</svg>
