<svg width="940" height="670" viewBox="0 0 940 670" fill="none" xmlns="http://www.w3.org/2000/svg">
<g opacity="0.06" clip-path="url(#clip0_48_426)">
<path opacity="0.5" d="M-25.2684 -127.436L-24.9911 -127.275L44.186 -87.3324L44.186 -7.14756L43.9088 -6.98583L-25.2684 32.9564L-25.5457 32.7947L-94.7228 -7.14757L-94.7228 -87.3324L-94.4455 -87.4942L-25.2684 -127.436ZM43.1001 -86.7087L-25.2684 -126.166L-93.6368 -86.7087L-93.6368 -7.79441L-25.2684 31.6627L43.1001 -7.7944L43.1001 -86.7087Z" fill="#D0D9DD"/>
<path opacity="0.5" d="M-25.2684 31.6627L-24.9911 31.8245L44.186 71.7668L44.186 151.952L43.9088 152.113L-25.2684 192.056L-94.7228 151.952L-94.7228 71.7668L-94.4455 71.6051L-25.2684 31.6627ZM43.1001 72.3905L-25.2684 32.9334L-93.6368 72.3905L-93.6368 151.305L-25.2684 190.762L43.1001 151.305L43.1001 72.3905Z" fill="#D0D9DD"/>
<path opacity="0.5" d="M-25.2684 270.346L44.186 310.45L44.186 390.635L43.9088 390.797L-25.2684 430.739L-94.7228 390.635L-94.7228 310.45L-94.4455 310.289L-25.2684 270.346ZM43.1001 311.074L-25.2684 271.617L-93.6368 311.074L-93.6368 389.988L-25.2684 429.445L43.1001 389.988L43.1001 311.074Z" fill="#D0D9DD"/>
<path opacity="0.5" d="M-25.2684 349.884L44.186 389.988L44.186 470.173L43.9088 470.335L-25.2684 510.277L-94.7228 470.173L-94.7228 389.988L-94.4455 389.827L-25.2684 349.884ZM43.1001 390.612L-25.2684 351.155L-93.6368 390.612L-93.6368 469.526L-25.2684 508.984L43.1001 469.526L43.1001 390.612Z" fill="#D0D9DD"/>
<path opacity="0.5" d="M-25.2684 509.007L44.186 549.111L44.186 629.296L43.9088 629.457L-25.2684 669.376L-94.7228 629.272L-94.7228 549.088L-94.4455 548.926L-25.2684 508.984L-25.2684 509.007ZM43.1001 549.734L-25.2684 510.277L-93.6368 549.734L-93.6368 628.649L-25.2684 668.106L43.1001 628.649L43.1001 549.734Z" fill="#D0D9DD"/>
<path opacity="0.5" d="M43.6546 151.004L113.109 191.109L113.109 271.293L112.832 271.455L43.6546 311.397L-25.7998 271.293L-25.7998 191.108L-25.5225 190.947L43.6546 151.004ZM112.023 191.732L43.6546 152.275L-24.7139 191.732L-24.7139 270.647L43.6546 310.104L112.023 270.647L112.023 191.732Z" fill="#D0D9DD"/>
<path opacity="0.5" d="M43.6546 230.566L113.109 270.67L113.109 350.855L112.832 351.016L43.6546 390.959L-25.7998 350.855L-25.7998 270.67L-25.5225 270.508L43.6546 230.566ZM112.023 271.293L43.6546 231.836L-24.7139 271.293L-24.7139 350.208L43.6546 389.665L112.023 350.208L112.023 271.293Z" fill="#D0D9DD"/>
<path opacity="0.5" d="M112.555 -127.436L112.832 -127.275L182.009 -87.3324L182.009 -7.14755L181.732 -6.98582L112.555 32.9564L112.277 32.7948L43.1001 -7.14756L43.1001 -87.3324L43.3774 -87.4942L112.555 -127.436ZM180.923 -86.7087L112.555 -126.166L44.186 -86.7087L44.186 -7.7944L112.555 31.6627L180.923 -7.79439L180.923 -86.7087Z" fill="#D0D9DD"/>
<g opacity="0.5">
<path d="M112.555 429.445L182.009 469.549L182.009 549.734L181.732 549.896L112.555 589.838L43.1001 549.734L43.1001 469.549L43.3774 469.388L112.555 429.445ZM180.923 470.173L112.555 430.716L44.186 470.173L44.186 549.088L112.555 588.545L180.923 549.088L180.923 470.173Z" fill="#D0D9DD"/>
</g>
<path opacity="0.5" d="M181.454 -87.6559L181.732 -87.4942L250.909 -47.5518L250.909 32.633L250.632 32.7948L181.454 72.737L112 32.633L112 -47.5519L112.277 -47.7136L181.454 -87.6559ZM249.823 -46.9281L181.454 -86.3853L113.086 -46.9281L113.086 31.9862L181.454 71.4433L249.823 31.9862L249.823 -46.9281Z" fill="#D0D9DD"/>
<path opacity="0.5" d="M181.454 151.004L250.909 191.109L250.909 271.293L250.632 271.455L181.454 311.397L112 271.293L112 191.108L112.277 190.947L181.454 151.004ZM249.823 191.732L181.454 152.275L113.086 191.732L113.086 270.647L181.454 310.104L249.823 270.647L249.823 191.732Z" fill="#D0D9DD"/>
<path opacity="0.5" d="M388.177 31.6628L388.454 31.8245L457.632 71.7668L457.632 151.952L457.354 152.113L388.177 192.056L318.723 151.952L318.723 71.7668L319 71.6051L388.177 31.6628ZM456.546 72.3905L388.177 32.9334L319.809 72.3905L319.809 151.305L388.177 190.762L456.546 151.305L456.546 72.3905Z" fill="#D0D9DD"/>
<path opacity="0.5" d="M457.1 71.4434L526.554 111.547L526.554 191.732L526.277 191.894L457.1 231.836L387.646 191.732L387.646 111.547L387.923 111.386L457.1 71.4434ZM525.469 112.171L457.1 72.714L388.732 112.171L388.732 191.085L457.1 230.543L525.468 191.085L525.469 112.171Z" fill="#D0D9DD"/>
<path opacity="0.5" d="M526 -127.436L526.277 -127.275L595.454 -87.3324L595.454 -7.14751L595.177 -6.98579L526 32.9564L525.723 32.7948L456.546 -7.14753L456.546 -87.3324L456.823 -87.4941L526 -127.436ZM594.368 -86.7087L526 -126.166L457.631 -86.7087L457.631 -7.79436L526 31.6628L594.368 -7.79435L594.368 -86.7087Z" fill="#D0D9DD"/>
<path opacity="0.5" d="M250.377 -127.436L250.655 -127.275L319.832 -87.3324L319.832 -7.14754L319.555 -6.98581L250.377 32.9564L250.1 32.7948L180.923 -7.14755L180.923 -87.3324L181.2 -87.4942L250.377 -127.436ZM318.746 -86.7087L250.377 -126.166L182.009 -86.7087L182.009 -7.79438L250.377 31.6628L318.746 -7.79437L318.746 -86.7087Z" fill="#D0D9DD"/>
<path opacity="0.5" d="M250.377 270.346L319.832 310.45L319.832 390.635L319.555 390.797L250.377 430.739L180.923 390.635L180.923 310.45L181.2 310.289L250.377 270.346ZM318.746 311.074L250.377 271.617L182.009 311.074L182.009 389.988L250.377 429.445L318.746 389.988L318.746 311.074Z" fill="#D0D9DD"/>
<path opacity="0.5" d="M250.377 111.224L319.832 151.328L319.832 231.513L319.555 231.675L250.377 271.617L180.923 231.513L180.923 151.328L181.2 151.166L250.377 111.224ZM318.746 151.952L250.377 112.495L182.009 151.952L182.009 230.866L250.377 270.323L318.746 230.866L318.746 151.952Z" fill="#D0D9DD"/>
<path opacity="0.5" d="M457.1 -87.6559L457.377 -87.4941L526.554 -47.5518L526.554 32.6331L526.277 32.7948L457.1 72.737L387.646 32.633L387.646 -47.5518L387.923 -47.7136L457.1 -87.6559ZM525.469 -46.9281L457.1 -86.3853L388.732 -46.9281L388.732 31.9862L457.1 71.4433L525.468 31.9862L525.469 -46.9281Z" fill="#D0D9DD"/>
<path d="M-25.2684 190.462L44.4633 230.704L44.4633 311.213L44.0474 311.444L-25.2684 351.455L-95.0001 311.213L-95.0001 230.704L-94.5842 230.473L-25.2684 190.462ZM42.8228 231.675L-25.2684 192.379L-93.3596 231.675L-93.3596 310.265L-25.2684 349.561L42.8228 310.265L42.8228 231.675Z" fill="white"/>
<path d="M250.377 31.3624L250.793 31.5935L320.109 71.6051L320.109 152.113L319.693 152.344L250.377 192.356L180.646 152.113L180.646 71.6051L181.062 71.374L250.377 31.3624ZM318.469 72.5754L250.377 33.2799L182.286 72.5754L182.286 151.166L250.377 190.462L318.469 151.166L318.469 72.5754Z" fill="white"/>
<path d="M388.177 -127.76L388.593 -127.529L457.909 -87.5173L457.909 -7.00897L457.493 -6.77794L388.177 33.2336L387.761 33.0026L318.445 -7.00898L318.445 -87.5173L318.861 -87.7483L388.177 -127.76ZM456.268 -86.547L388.177 -125.842L320.086 -86.547L320.086 -7.95615L388.177 31.3393L456.268 -7.95613L456.268 -86.547Z" fill="white"/>
<path d="M43.6546 -8.41816L44.0705 -8.18712L113.386 31.8245L113.386 112.333L112.97 112.564L43.6546 152.575L-26.0771 112.333L-26.0771 31.8245L-25.6612 31.5934L43.6546 -8.41816ZM111.746 32.7948L43.6546 -6.50071L-24.4366 32.7948L-24.4366 111.386L43.6546 150.681L111.746 111.386L111.746 32.7948Z" fill="white"/>
<path d="M43.6546 71.12L113.386 111.363L113.386 191.871L112.97 192.102L43.6546 232.114L-26.0771 191.871L-26.0771 111.363L-25.6612 111.132L43.6546 71.12ZM111.746 112.333L43.6546 73.0374L-24.4366 112.333L-24.4366 190.924L43.6546 230.219L111.746 190.924L111.746 112.333Z" fill="white"/>
<path d="M112.554 -48.1987L112.97 -47.9677L182.286 -7.95609L182.286 72.5522L181.87 72.7833L112.554 112.795L42.8228 72.5522L42.8228 -7.9561L43.2387 -8.18712L112.554 -48.1987ZM180.646 -6.98579L112.554 -46.2813L44.4633 -6.98581L44.4633 71.6051L112.554 110.901L180.646 71.6051L180.646 -6.98579Z" fill="white"/>
<path d="M112.554 349.584L182.286 389.827L182.286 470.335L181.87 470.566L112.554 510.578L42.8228 470.335L42.8228 389.827L43.2387 389.596L112.554 349.584ZM180.646 390.797L112.554 351.501L44.4633 390.797L44.4633 469.388L112.554 508.683L180.646 469.388L180.646 390.797Z" fill="white"/>
<path d="M181.454 -8.41814L181.87 -8.18711L251.186 31.8245L251.186 112.333L250.77 112.564L181.454 152.575L111.723 112.333L111.723 31.8245L112.139 31.5935L181.454 -8.41814ZM249.546 32.7948L181.454 -6.50069L113.363 32.7948L113.363 111.386L181.454 150.681L249.546 111.386L249.546 32.7948Z" fill="white"/>
<path d="M181.454 230.242L251.186 270.485L251.186 350.993L250.77 351.224L181.454 391.236L111.723 350.993L111.723 270.485L112.139 270.254L181.454 230.242ZM249.546 271.455L181.454 232.16L113.363 271.455L113.363 350.046L181.454 389.341L249.546 350.046L249.546 271.455Z" fill="white"/>
<path d="M526 -48.1987L526.416 -47.9677L595.732 -7.95605L595.732 72.5523L595.316 72.7833L526 112.795L456.268 72.5523L456.268 -7.95606L456.684 -8.18708L526 -48.1987ZM594.091 -6.98576L526 -46.2812L457.909 -6.98577L457.909 71.6051L526 110.901L594.091 71.6051L594.091 -6.98576Z" fill="white"/>
<path d="M526 110.901L595.732 151.143L595.732 231.652L595.316 231.883L526 271.894L456.268 231.651L456.268 151.143L456.684 150.912L526 110.901ZM594.091 152.113L526 112.818L457.909 152.113L457.909 230.704L526 270L594.091 230.704L594.091 152.113Z" fill="white"/>
<path opacity="0.5" d="M47.467 228.325L47.467 232.737L43.6547 234.932L39.8192 232.737L39.8192 228.325L43.6547 226.107L47.467 228.325Z" fill="#D0D9DD"/>
<path opacity="0.5" d="M48.5992 545.599L48.5992 551.305L43.6547 554.17L38.6871 551.305L38.6871 545.599L43.6547 542.735L48.5992 545.599Z" fill="#D0D9DD"/>
<path opacity="0.5" d="M51.2101 623.566L51.2101 632.299L43.6547 636.665L36.0762 632.299L36.0762 623.566L43.6547 619.177L51.2101 623.566Z" fill="#D0D9DD"/>
<path opacity="0.5" d="M183.395 149.942L183.395 152.16L181.454 153.268L179.537 152.16L179.537 149.942L181.454 148.81L183.395 149.942Z" fill="#D0D9DD"/>
<path opacity="0.5" d="M183.049 229.595L183.049 231.444L181.455 232.368L179.86 231.444L179.86 229.595L181.455 228.671L183.049 229.595Z" fill="#D0D9DD"/>
<path opacity="0.5" d="M186.168 307.285L186.168 312.737L181.454 315.463L176.741 312.737L176.741 307.285L181.454 304.559L186.168 307.285Z" fill="#D0D9DD"/>
<path opacity="0.5" d="M186.26 386.708L186.26 392.252L181.455 395.024L176.672 392.252L176.672 386.708L181.455 383.936L186.26 386.708Z" fill="#D0D9DD"/>
<path opacity="0.5" d="M116.182 29.3295L116.182 33.5109L112.555 35.6131L108.927 33.5109L108.927 29.3295L112.555 27.2273L116.182 29.3295Z" fill="#D0D9DD"/>
<path opacity="0.5" d="M114.403 109.792L114.403 111.917L112.555 112.98L110.706 111.917L110.706 109.792L112.555 108.729L114.403 109.792Z" fill="#D0D9DD"/>
<path opacity="0.5" d="M116.113 267.643L116.113 271.755L112.555 273.811L108.996 271.755L108.996 267.643L112.555 265.61L116.113 267.643Z" fill="#D0D9DD"/>
<path opacity="0.5" d="M118.4 585.819L118.4 592.564L112.555 595.937L106.709 592.564L106.709 585.819L112.555 582.446L118.4 585.819Z" fill="#D0D9DD"/>
<path opacity="0.5" d="M326.81 -12.2529L326.81 -3.56681L319.277 0.776258L311.768 -3.56681L311.768 -12.2529L319.277 -16.596L326.81 -12.2529Z" fill="#D0D9DD"/>
<path opacity="0.5" d="M459.573 149.618L459.573 152.483L457.1 153.915L454.605 152.483L454.605 149.618L457.1 148.163L459.573 149.618Z" fill="#D0D9DD"/>
<path opacity="0.5" d="M254.375 29.1216L254.375 33.7188L250.378 36.0289L246.38 33.7188L246.38 29.1216L250.378 26.8114L254.375 29.1216Z" fill="#D0D9DD"/>
<path opacity="0.5" d="M601.947 146.985L601.947 155.094L594.9 159.159L587.876 155.093L587.876 146.985L594.9 142.942L601.947 146.985Z" fill="#D0D9DD"/>
<path opacity="0.5" d="M527.733 30.4153L527.733 32.4251L526 33.4185L524.267 32.4251L524.267 30.4153L526 29.4219L527.733 30.4153Z" fill="#D0D9DD"/>
<path opacity="0.5" d="M530.991 187.389L530.991 193.165L526 196.052L521.009 193.165L521.009 187.389L526 184.502L530.991 187.389Z" fill="#D0D9DD"/>
<path opacity="0.5" d="M326.07 306.823L326.07 314.655L319.277 318.582L312.484 314.655L312.484 306.823L319.277 302.919L326.07 306.823Z" fill="#D0D9DD"/>
<path d="M464.609 67.2158L464.609 75.9019L457.1 80.245L449.568 75.9019L449.568 67.2158L457.1 62.8728L464.609 67.2158Z" fill="white"/>
<path d="M461.074 228.232L461.074 232.83L457.1 235.117L453.126 232.83L453.126 228.232L457.1 225.922L461.074 228.232Z" fill="white"/>
<path d="M46.0576 70.1728L46.0576 72.968L43.6547 74.3541L41.2286 72.968L41.2286 70.1728L43.6547 68.7635L46.0576 70.1728Z" fill="white"/>
<path d="M47.8829 148.602L47.8829 153.476L43.6546 155.925L39.4264 153.476L39.4264 148.602L43.6546 146.153L47.8829 148.602Z" fill="white"/>
<path d="M46.0114 308.625L46.0114 311.374L43.6546 312.76L41.2748 311.374L41.2748 308.625L43.6546 307.262L46.0114 308.625Z" fill="white"/>
<path d="M47.8829 387.054L47.8829 391.929L43.6546 394.378L39.4033 391.929L39.4033 387.054L43.6546 384.606L47.8829 387.054Z" fill="white"/>
<path d="M47.4902 466.754L47.4902 471.19L43.6548 473.407L39.7962 471.19L39.7962 466.754L43.6548 464.513L47.4902 466.754Z" fill="white"/>
<path d="M184.25 467.355L184.25 470.566L181.455 472.183L178.682 470.566L178.682 467.355L181.455 465.761L184.25 467.355Z" fill="white"/>
<path d="M187.3 545.068L187.3 551.813L181.455 555.186L175.632 551.813L175.632 545.068L181.455 541.718L187.3 545.068Z" fill="white"/>
<path d="M117.615 187.366L117.615 193.188L112.555 196.122L107.495 193.188L107.495 187.366L112.555 184.432L117.615 187.366Z" fill="white"/>
<path d="M116.806 346.673L116.806 351.594L112.555 354.066L108.303 351.594L108.303 346.673L112.555 344.224L116.806 346.673Z" fill="white"/>
<path d="M114.75 427.297L114.75 429.838L112.555 431.109L110.36 429.838L110.36 427.297L112.555 426.026L114.75 427.297Z" fill="white"/>
<path d="M114.981 508.244L114.981 511.04L112.555 512.426L110.128 511.04L110.128 508.244L112.555 506.835L114.981 508.244Z" fill="white"/>
<path d="M253.959 108.775L253.959 112.91L250.377 114.99L246.796 112.91L246.796 108.775L250.377 106.719L253.959 108.775Z" fill="white"/>
<path d="M252.757 188.914L252.757 191.663L250.377 193.026L247.998 191.663L247.998 188.914L250.377 187.528L252.757 188.914Z" fill="white"/>
<path d="M253.035 268.175L253.035 271.247L250.377 272.795L247.697 271.247L247.697 268.175L250.377 266.627L253.035 268.175Z" fill="white"/>
<path d="M254.975 346.465L254.975 351.802L250.377 354.458L245.756 351.802L245.756 346.465L250.377 343.809L254.975 346.465Z" fill="white"/>
<path d="M254.398 426.257L254.398 430.878L250.377 433.211L246.357 430.878L246.357 426.257L250.377 423.924L254.398 426.257Z" fill="white"/>
<path d="M599.937 68.6713L599.937 74.4697L594.9 77.3573L589.886 74.4697L589.886 68.6713L594.9 65.7605L599.937 68.6713Z" fill="white"/>
<path d="M529.396 108.891L529.396 112.818L526 114.782L522.604 112.818L522.604 108.891L526 106.927L529.396 108.891Z" fill="white"/>
<path d="M529.859 267.482L529.859 271.94L526 274.181L522.141 271.94L522.141 267.482L526 265.241L529.859 267.482Z" fill="white"/>
</g>
<defs>
<clipPath id="clip0_48_426">
<rect width="1035" height="1235" fill="white" transform="translate(940 670) rotate(-180)"/>
</clipPath>
</defs>
</svg>
