<svg width="489" height="872" viewBox="0 0 489 872" fill="none" xmlns="http://www.w3.org/2000/svg">
<g opacity="0.06">
<path opacity="0.5" d="M415.515 149.042L415.682 149.159L457.346 178.108L457.346 236.223L457.179 236.341L415.515 265.289L415.348 265.172L373.684 236.223L373.684 178.108L373.851 177.991L415.515 149.042ZM456.692 178.56L415.515 149.963L374.338 178.56L374.338 235.755L415.515 264.352L456.692 235.755L456.692 178.56Z" fill="#2F36AB"/>
<path opacity="0.5" d="M41.9984 4.8841L42.1654 5.00131L83.8296 33.9501L83.8296 92.0654L83.6626 92.1826L41.9984 121.131L41.8313 121.014L0.167147 92.0654L0.16715 33.9501L0.334127 33.8329L41.9984 4.8841ZM83.1755 34.4022L41.9984 5.80494L0.821195 34.4022L0.821192 91.5966L41.9984 120.194L83.1755 91.5966L83.1755 34.4022Z" fill="#2F36AB"/>
<path opacity="0.5" d="M41.9981 62.5472L42.1651 62.6644L83.8294 91.6133L83.8293 149.729L83.6624 149.846L41.9981 178.794L41.8311 178.677L0.166902 149.729L0.166906 91.6133L0.333883 91.496L41.9981 62.5472ZM83.1753 92.0653L41.9981 63.4681L0.820951 92.0653L0.820948 149.26L41.9981 177.857L83.1753 149.26L83.1753 92.0653Z" fill="#2F36AB"/>
<path opacity="0.5" d="M41.9981 120.211L42.1651 120.328L83.8294 149.276L83.8293 207.392L83.6624 207.509L41.9981 236.458L41.8311 236.341L0.166902 207.392L0.166906 149.276L0.333883 149.159L41.9981 120.211ZM83.1753 149.729L41.9981 121.131L0.820951 149.729L0.820948 206.923L41.9981 235.52L83.1753 206.923L83.1753 149.729Z" fill="#2F36AB"/>
<path opacity="0.5" d="M41.9981 293.183L42.1651 293.3L83.8294 322.249L83.8293 380.365L83.6624 380.482L41.9981 409.431L41.8311 409.313L0.166902 380.365L0.166906 322.249L0.333883 322.132L41.9981 293.183ZM83.1753 322.701L41.9981 294.104L0.820951 322.701L0.820948 379.896L41.9981 408.493L83.1753 379.896L83.1753 322.701Z" fill="#2F36AB"/>
<path opacity="0.5" d="M41.9984 408.493L42.1654 408.61L83.8296 437.559L83.8296 495.674L83.6626 495.792L41.9984 524.74L0.167147 495.674L0.16715 437.559L0.334127 437.442L41.9984 408.493ZM83.1755 438.011L41.9984 409.414L0.821195 438.011L0.821192 495.205L41.9984 523.803L83.1755 495.205L83.1755 438.011Z" fill="#2F36AB"/>
<path opacity="0.5" d="M41.9984 581.483L83.8296 610.549L83.8296 668.664L83.6626 668.781L41.9984 697.73L0.167147 668.664L0.16715 610.549L0.334127 610.431L41.9984 581.483ZM83.1755 611.001L41.9984 582.403L0.821195 611.001L0.821192 668.195L41.9984 696.792L83.1755 668.195L83.1755 611.001Z" fill="#2F36AB"/>
<path opacity="0.5" d="M41.9984 639.129L83.8296 668.195L83.8296 726.31L83.6626 726.428L41.9984 755.376L0.167147 726.31L0.16715 668.195L0.334127 668.078L41.9984 639.129ZM83.1755 668.647L41.9984 640.05L0.821195 668.647L0.821192 725.842L41.9984 754.439L83.1755 725.842L83.1755 668.647Z" fill="#2F36AB"/>
<path opacity="0.5" d="M41.9981 754.455L83.8294 783.521L83.8293 841.637L83.6624 841.754L41.9981 870.686L0.166903 841.62L0.166907 783.505L0.333884 783.388L41.9981 754.439L41.9981 754.455ZM83.1753 783.974L41.9981 755.376L0.820952 783.974L0.820948 841.168L41.9981 869.765L83.1753 841.168L83.1753 783.974Z" fill="#2F36AB"/>
<path opacity="0.5" d="M83.5094 -23.9474L83.6763 -23.8303L125.341 5.11859L125.341 63.2338L125.174 63.351L83.5094 92.2998L83.3424 92.1826L41.6781 63.2338L41.6781 5.11858L41.8451 5.00137L83.5094 -23.9474ZM124.687 5.57069L83.5094 -23.0265L42.3322 5.57068L42.3322 62.765L83.5094 91.3622L124.687 62.765L124.687 5.57069Z" fill="#2F36AB"/>
<path opacity="0.5" d="M83.5096 33.7157L83.6766 33.8329L125.341 62.7817L125.341 120.897L125.174 121.014L83.5096 149.963L83.3426 149.846L41.6784 120.897L41.6784 62.7817L41.8454 62.6645L83.5096 33.7157ZM124.687 63.2338L83.5096 34.6366L42.3324 63.2338L42.3324 120.428L83.5096 149.025L124.687 120.428L124.687 63.2338Z" fill="#2F36AB"/>
<path opacity="0.5" d="M83.5094 206.689L83.6763 206.806L125.341 235.755L125.341 293.87L125.174 293.987L83.5094 322.936L83.3424 322.819L41.6781 293.87L41.6781 235.755L41.8451 235.637L83.5094 206.689ZM124.687 236.207L83.5094 207.609L42.3322 236.207L42.3322 293.401L83.5094 321.998L124.687 293.401L124.687 236.207Z" fill="#2F36AB"/>
<path opacity="0.5" d="M83.5094 264.352L83.6763 264.469L125.341 293.418L125.341 351.533L125.174 351.65L83.5094 380.599L83.3424 380.482L41.6781 351.533L41.6781 293.418L41.8451 293.301L83.5094 264.352ZM124.687 293.87L83.5094 265.273L42.3322 293.87L42.3322 351.064L83.5094 379.661L124.687 351.064L124.687 293.87Z" fill="#2F36AB"/>
<path opacity="0.5" d="M83.5094 494.988L125.341 524.054L125.341 582.169L125.174 582.286L83.5094 611.235L41.6781 582.169L41.6781 524.054L41.8451 523.937L83.5094 494.988ZM124.687 524.506L83.5094 495.909L42.3322 524.506L42.3322 581.7L83.5094 610.297L124.687 581.7L124.687 524.506Z" fill="#2F36AB"/>
<path opacity="0.5" d="M83.5094 552.651L125.341 581.717L125.341 639.832L125.174 639.95L83.5094 668.898L41.6781 639.832L41.6781 581.717L41.8451 581.6L83.5094 552.651ZM124.687 582.169L83.5094 553.572L42.3322 582.169L42.3322 639.364L83.5094 667.961L124.687 639.364L124.687 582.169Z" fill="#2F36AB"/>
<path opacity="0.5" d="M125.007 4.8841L125.174 5.00131L166.838 33.9501L166.838 92.0654L166.671 92.1826L125.007 121.131L124.84 121.014L83.1754 92.0654L83.1755 33.9501L83.3424 33.8329L125.007 4.8841ZM166.184 34.4022L125.007 5.80495L83.8295 34.4022L83.8295 91.5966L125.007 120.194L166.184 91.5966L166.184 34.4022Z" fill="#2F36AB"/>
<path opacity="0.5" d="M125.007 177.874L125.174 177.991L166.838 206.94L166.838 265.055L166.671 265.172L125.007 294.121L124.84 294.004L83.1754 265.055L83.1755 206.94L83.3424 206.823L125.007 177.874ZM166.184 207.392L125.007 178.795L83.8295 207.392L83.8295 264.586L125.007 293.183L166.184 264.586L166.184 207.392Z" fill="#2F36AB"/>
<path opacity="0.5" d="M125.007 293.183L125.174 293.301L166.838 322.249L166.838 380.365L166.671 380.482L125.007 409.431L124.84 409.313L83.1754 380.365L83.1755 322.249L83.3424 322.132L125.007 293.183ZM166.184 322.701L125.007 294.104L83.8295 322.701L83.8295 379.896L125.007 408.493L166.184 379.896L166.184 322.701Z" fill="#2F36AB"/>
<g opacity="0.5">
<path d="M125.007 696.792L166.838 725.858L166.838 783.974L166.671 784.091L125.007 813.04L83.1754 783.974L83.1755 725.858L83.3424 725.741L125.007 696.792ZM166.184 726.31L125.007 697.713L83.8295 726.31L83.8295 783.505L125.007 812.102L166.184 783.505L166.184 726.31Z" fill="#2F36AB"/>
</g>
<path opacity="0.5" d="M166.504 33.7156L166.671 33.8329L208.335 62.7817L208.335 120.897L208.168 121.014L166.504 149.963L166.337 149.846L124.673 120.897L124.673 62.7817L124.84 62.6645L166.504 33.7156ZM207.681 63.2337L166.504 34.6365L125.327 63.2337L125.327 120.428L166.504 149.025L207.681 120.428L207.681 63.2337Z" fill="#2F36AB"/>
<path opacity="0.5" d="M166.504 91.3789L166.671 91.4961L208.335 120.445L208.335 178.56L208.168 178.677L166.504 207.626L166.337 207.509L124.673 178.56L124.673 120.445L124.84 120.328L166.504 91.3789ZM207.681 120.897L166.504 92.2998L125.327 120.897L125.327 178.091L166.504 206.689L207.681 178.091L207.681 120.897Z" fill="#2F36AB"/>
<path opacity="0.5" d="M166.504 264.352L166.671 264.469L208.335 293.418L208.335 351.533L208.168 351.65L166.504 380.599L166.337 380.482L124.673 351.533L124.673 293.418L124.839 293.301L166.504 264.352ZM207.681 293.87L166.504 265.273L125.327 293.87L125.327 351.064L166.504 379.661L207.681 351.064L207.681 293.87Z" fill="#2F36AB"/>
<path opacity="0.5" d="M166.504 322.015L166.671 322.132L208.335 351.081L208.335 409.196L208.168 409.313L166.504 438.262L124.673 409.196L124.673 351.081L124.839 350.964L166.504 322.015ZM207.681 351.533L166.504 322.936L125.327 351.533L125.327 408.727L166.504 437.325L207.681 408.727L207.681 351.533Z" fill="#2F36AB"/>
<path opacity="0.5" d="M166.504 494.988L208.335 524.054L208.335 582.169L208.168 582.286L166.504 611.235L124.673 582.169L124.673 524.054L124.839 523.937L166.504 494.988ZM207.681 524.506L166.504 495.909L125.327 524.506L125.327 581.7L166.504 610.297L207.681 581.7L207.681 524.506Z" fill="#2F36AB"/>
<path opacity="0.5" d="M291.009 4.88412L291.176 5.00133L332.841 33.9501L332.841 92.0654L332.674 92.1826L291.009 121.131L290.842 121.014L249.178 92.0654L249.178 33.9501L249.345 33.8329L291.009 4.88412ZM332.187 34.4022L291.009 5.80496L249.832 34.4022L249.832 91.5966L291.009 120.194L332.187 91.5966L332.187 34.4022Z" fill="#2F36AB"/>
<path opacity="0.5" d="M291.009 177.874L291.176 177.991L332.841 206.94L332.841 265.055L332.674 265.172L291.009 294.121L290.842 294.004L249.178 265.055L249.178 206.94L249.345 206.823L291.009 177.874ZM332.187 207.392L291.009 178.795L249.832 207.392L249.832 264.586L291.009 293.183L332.187 264.586L332.187 207.392Z" fill="#2F36AB"/>
<path opacity="0.5" d="M291.009 408.493L291.176 408.61L332.841 437.559L332.841 495.674L332.674 495.792L291.009 524.74L249.178 495.674L249.178 437.559L249.345 437.442L291.009 408.493ZM332.187 438.011L291.009 409.414L249.832 438.011L249.832 495.205L291.009 523.803L332.187 495.205L332.187 438.011Z" fill="#2F36AB"/>
<path opacity="0.5" d="M332.521 -23.9473L332.688 -23.8302L374.352 5.11868L374.352 63.2339L374.185 63.3511L332.521 92.2999L332.354 92.1827L290.69 63.2339L290.69 5.11867L290.857 5.00146L332.521 -23.9473ZM373.698 5.57078L332.521 -23.0264L291.344 5.57077L291.344 62.7651L332.521 91.3623L373.698 62.7651L373.698 5.57078Z" fill="#2F36AB"/>
<path opacity="0.5" d="M332.521 91.3789L332.688 91.4961L374.352 120.445L374.352 178.56L374.185 178.677L332.521 207.626L332.354 207.509L290.69 178.56L290.69 120.445L290.857 120.328L332.521 91.3789ZM373.698 120.897L332.521 92.2998L291.344 120.897L291.344 178.091L332.521 206.689L373.698 178.091L373.698 120.897Z" fill="#2F36AB"/>
<path opacity="0.5" d="M332.521 206.689L332.688 206.806L374.352 235.755L374.352 293.87L374.185 293.987L332.521 322.936L332.354 322.819L290.69 293.87L290.69 235.755L290.857 235.637L332.521 206.689ZM373.698 236.207L332.521 207.61L291.344 236.207L291.344 293.401L332.521 321.998L373.698 293.401L373.698 236.207Z" fill="#2F36AB"/>
<path opacity="0.5" d="M332.521 264.352L332.688 264.469L374.352 293.418L374.352 351.533L374.185 351.65L332.521 380.599L332.354 380.482L290.69 351.533L290.69 293.418L290.857 293.301L332.521 264.352ZM373.698 293.87L332.521 265.273L291.344 293.87L291.344 351.064L332.521 379.661L373.698 351.064L373.698 293.87Z" fill="#2F36AB"/>
<path opacity="0.5" d="M332.521 437.325L374.352 466.391L374.352 524.506L374.185 524.623L332.521 553.572L290.69 524.506L290.69 466.391L290.857 466.273L332.521 437.325ZM373.698 466.843L332.521 438.246L291.344 466.843L291.344 524.037L332.521 552.634L373.698 524.037L373.698 466.843Z" fill="#2F36AB"/>
<path opacity="0.5" d="M374.018 4.88413L374.185 5.00134L415.849 33.9502L415.849 92.0654L415.682 92.1826L374.018 121.131L373.851 121.014L332.187 92.0654L332.187 33.9501L332.354 33.8329L374.018 4.88413ZM415.195 34.4022L374.018 5.80497L332.841 34.4022L332.841 91.5966L374.018 120.194L415.195 91.5966L415.195 34.4022Z" fill="#2F36AB"/>
<path opacity="0.5" d="M374.018 293.183L374.185 293.301L415.849 322.249L415.849 380.365L415.682 380.482L374.018 409.431L373.851 409.313L332.187 380.365L332.187 322.249L332.354 322.132L374.018 293.183ZM415.195 322.701L374.018 294.104L332.841 322.701L332.841 379.896L374.018 408.493L415.195 379.896L415.195 322.701Z" fill="#2F36AB"/>
<path opacity="0.5" d="M415.515 33.7158L415.682 33.833L457.346 62.7818L457.346 120.897L457.179 121.014L415.515 149.963L415.348 149.846L373.684 120.897L373.684 62.7818L373.851 62.6646L415.515 33.7158ZM456.692 63.2339L415.515 34.6367L374.338 63.2339L374.338 120.428L415.515 149.025L456.692 120.428L456.692 63.2339Z" fill="#2F36AB"/>
<path opacity="0.5" d="M457.026 120.21L457.193 120.328L498.857 149.276L498.857 207.392L498.69 207.509L457.026 236.458L456.859 236.341L415.195 207.392L415.195 149.276L415.362 149.159L457.026 120.21ZM498.203 149.729L457.026 121.131L415.849 149.729L415.849 206.923L457.026 235.52L498.203 206.923L498.203 149.729Z" fill="#2F36AB"/>
<path opacity="0.5" d="M208.015 4.88411L208.182 5.00132L249.846 33.9501L249.846 92.0654L249.679 92.1826L208.015 121.131L207.848 121.014L166.184 92.0654L166.184 33.9501L166.351 33.8329L208.015 4.88411ZM249.192 34.4022L208.015 5.80496L166.838 34.4022L166.838 91.5966L208.015 120.194L249.192 91.5966L249.192 34.4022Z" fill="#2F36AB"/>
<path opacity="0.5" d="M208.015 62.5473L208.182 62.6645L249.846 91.6133L249.846 149.729L249.679 149.846L208.015 178.795L207.848 178.677L166.184 149.729L166.184 91.6133L166.351 91.4961L208.015 62.5473ZM249.192 92.0654L208.015 63.4682L166.838 92.0654L166.838 149.26L208.015 177.857L249.192 149.26L249.192 92.0654Z" fill="#2F36AB"/>
<path opacity="0.5" d="M208.015 120.21L208.182 120.328L249.846 149.276L249.846 207.392L249.679 207.509L208.015 236.458L207.848 236.34L166.184 207.392L166.184 149.276L166.351 149.159L208.015 120.21ZM249.192 149.729L208.015 121.131L166.838 149.729L166.838 206.923L208.015 235.52L249.192 206.923L249.192 149.729Z" fill="#2F36AB"/>
<path opacity="0.5" d="M208.015 293.183L208.182 293.301L249.846 322.249L249.846 380.365L249.679 380.482L208.015 409.431L207.848 409.313L166.184 380.365L166.184 322.249L166.351 322.132L208.015 293.183ZM249.192 322.701L208.015 294.104L166.838 322.701L166.838 379.896L208.015 408.493L249.192 379.896L249.192 322.701Z" fill="#2F36AB"/>
<path opacity="0.5" d="M208.015 581.483L249.846 610.549L249.846 668.664L249.679 668.781L208.015 697.73L166.184 668.664L166.184 610.549L166.351 610.431L208.015 581.483ZM249.192 611.001L208.015 582.404L166.838 611.001L166.838 668.195L208.015 696.792L249.192 668.195L249.192 611.001Z" fill="#2F36AB"/>
<path opacity="0.5" d="M208.015 466.156L249.846 495.222L249.846 553.337L249.679 553.455L208.015 582.403L166.184 553.337L166.184 495.222L166.351 495.105L208.015 466.156ZM249.192 495.674L208.015 467.077L166.838 495.674L166.838 552.869L208.015 581.466L249.192 552.869L249.192 495.674Z" fill="#2F36AB"/>
<path opacity="0.5" d="M332.521 322.015L332.688 322.132L374.352 351.081L374.352 409.196L374.185 409.313L332.521 438.262L290.69 409.196L290.69 351.081L290.857 350.964L332.521 322.015ZM373.698 351.533L332.521 322.936L291.344 351.533L291.344 408.727L332.521 437.325L373.698 408.727L373.698 351.533Z" fill="#2F36AB"/>
<path d="M457.026 234.834L457.277 235.001L499.024 264L499.024 322.35L498.774 322.517L457.026 351.516L456.776 351.349L415.028 322.35L415.028 264L415.278 263.833L457.026 234.834ZM498.036 264.703L457.026 236.223L416.016 264.703L416.016 321.663L457.026 350.143L498.036 321.663L498.036 264.703Z" fill="white"/>
<path d="M166.504 206.471L166.754 206.638L208.502 235.637L208.502 293.987L208.251 294.155L166.504 323.154L166.253 322.986L124.506 293.987L124.506 235.637L124.756 235.47L166.504 206.471ZM207.514 236.341L166.504 207.861L125.494 236.341L125.494 293.301L166.504 321.781L207.514 293.301L207.514 236.341Z" fill="white"/>
<path d="M41.9981 235.302L42.2486 235.47L83.9963 264.469L83.9963 322.819L83.7459 322.986L41.9981 351.985L41.7476 351.818L-0.000112691 322.819L-0.000109191 264.469L0.25041 264.301L41.9981 235.302ZM83.0083 265.172L41.9981 236.692L0.987951 265.172L0.987947 322.132L41.9981 350.612L83.0083 322.132L83.0083 265.172Z" fill="white"/>
<path d="M41.9984 523.585L83.9966 552.752L83.9966 611.101L83.7461 611.269L41.9984 640.268L0.000131449 611.101L0.000134949 552.752L0.250654 552.584L41.9984 523.585ZM83.0086 553.455L41.9984 524.975L0.988195 553.455L0.988191 610.415L41.9984 638.895L83.0086 610.415L83.0086 553.455Z" fill="white"/>
<path d="M208.015 408.275L208.265 408.443L250.013 437.442L250.013 495.791L249.763 495.959L208.015 524.958L166.017 495.791L166.017 437.442L166.267 437.274L208.015 408.275ZM249.025 438.145L208.015 409.665L167.005 438.145L167.005 495.105L208.015 523.585L249.025 495.105L249.025 438.145Z" fill="white"/>
<path d="M208.015 235.303L208.266 235.47L250.013 264.469L250.013 322.819L249.763 322.986L208.015 351.985L207.765 351.818L166.017 322.819L166.017 264.469L166.267 264.302L208.015 235.303ZM249.025 265.172L208.015 236.692L167.005 265.172L167.005 322.132L208.015 350.612L249.025 322.132L249.025 265.172Z" fill="white"/>
<path d="M291.009 292.949L291.26 293.116L333.008 322.115L333.008 380.465L332.757 380.633L291.009 409.632L290.759 409.464L249.011 380.465L249.011 322.115L249.262 321.948L291.009 292.949ZM332.02 322.819L291.009 294.339L249.999 322.819L249.999 379.779L291.009 408.259L332.02 379.779L332.02 322.819Z" fill="white"/>
<path d="M83.5094 379.444L83.7598 379.611L125.508 408.61L125.508 466.96L125.257 467.127L83.5094 496.126L41.5112 466.96L41.5112 408.61L41.7616 408.443L83.5094 379.444ZM124.52 409.314L83.5094 380.833L42.4992 409.313L42.4992 466.273L83.5094 494.753L124.52 466.273L124.52 409.314Z" fill="white"/>
<path d="M83.5094 437.09L125.508 466.257L125.508 524.606L125.257 524.774L83.5094 553.773L41.5112 524.606L41.5112 466.257L41.7616 466.089L83.5094 437.09ZM124.52 466.96L83.5094 438.48L42.4992 466.96L42.4992 523.92L83.5094 552.4L124.52 523.92L124.52 466.96Z" fill="white"/>
<path d="M125.007 62.313L125.257 62.4804L167.005 91.4794L167.005 149.829L166.754 149.997L125.007 178.995L124.756 178.828L83.0085 149.829L83.0085 91.4794L83.259 91.312L125.007 62.313ZM166.017 92.1826L125.007 63.7026L83.9965 92.1826L83.9965 149.143L125.007 177.623L166.017 149.143L166.017 92.1826Z" fill="white"/>
<path d="M125.007 350.612L125.257 350.78L167.005 379.779L167.005 438.128L166.754 438.296L125.007 467.295L83.0085 438.128L83.0085 379.779L83.259 379.611L125.007 350.612ZM166.017 380.482L125.007 352.002L83.9965 380.482L83.9965 437.442L125.007 465.922L166.017 437.442L166.017 380.482Z" fill="white"/>
<path d="M125.007 638.911L167.005 668.078L167.005 726.428L166.754 726.595L125.007 755.594L83.0085 726.428L83.0085 668.078L83.259 667.91L125.007 638.911ZM166.017 668.781L125.007 640.301L83.9965 668.781L83.9965 725.741L125.007 754.221L166.017 725.741L166.017 668.781Z" fill="white"/>
<path d="M166.504 379.444L166.754 379.611L208.502 408.61L208.502 466.96L208.251 467.127L166.504 496.126L124.506 466.96L124.506 408.61L124.756 408.443L166.504 379.444ZM207.514 409.314L166.504 380.834L125.494 409.314L125.494 466.273L166.504 494.753L207.514 466.274L207.514 409.314Z" fill="white"/>
<path d="M166.504 552.417L208.502 581.583L208.502 639.933L208.251 640.1L166.504 669.099L124.506 639.933L124.506 581.583L124.756 581.416L166.504 552.417ZM207.514 582.286L166.504 553.806L125.494 582.286L125.494 639.246L166.504 667.726L207.514 639.246L207.514 582.286Z" fill="white"/>
<path d="M291.009 119.976L291.26 120.144L333.008 149.143L333.008 207.492L332.757 207.66L291.009 236.659L290.759 236.491L249.011 207.492L249.011 149.143L249.262 148.975L291.009 119.976ZM332.02 149.846L291.009 121.366L249.999 149.846L249.999 206.806L291.009 235.286L332.02 206.806L332.02 149.846Z" fill="white"/>
<path d="M332.521 33.4813L332.771 33.6487L374.519 62.6478L374.519 120.997L374.269 121.165L332.521 150.164L332.27 149.996L290.523 120.997L290.523 62.6477L290.773 62.4803L332.521 33.4813ZM373.531 63.351L332.521 34.871L291.511 63.351L291.511 120.311L332.521 148.791L373.531 120.311L373.531 63.351Z" fill="white"/>
<path d="M374.018 177.639L374.269 177.807L416.016 206.806L416.016 265.155L415.766 265.323L374.018 294.322L373.768 294.154L332.02 265.155L332.02 206.806L332.27 206.638L374.018 177.639ZM415.028 207.509L374.018 179.029L333.008 207.509L333.008 264.469L374.018 292.949L415.028 264.469L415.028 207.509Z" fill="white"/>
<path d="M374.018 350.612L374.268 350.78L416.016 379.779L416.016 438.128L415.766 438.296L374.018 467.295L332.02 438.128L332.02 379.779L332.27 379.611L374.018 350.612ZM415.028 380.482L374.018 352.002L333.008 380.482L333.008 437.442L374.018 465.922L415.028 437.442L415.028 380.482Z" fill="white"/>
<path d="M374.018 465.922L416.016 495.088L416.016 553.438L415.765 553.605L374.018 582.604L332.019 553.438L332.019 495.088L332.27 494.921L374.018 465.922ZM415.028 495.792L374.018 467.312L333.007 495.792L333.007 552.752L374.018 581.232L415.028 552.752L415.028 495.792Z" fill="white"/>
<path d="M415.515 91.1446L415.766 91.312L457.513 120.311L457.513 178.661L457.263 178.828L415.515 207.827L415.265 207.66L373.517 178.661L373.517 120.311L373.768 120.144L415.515 91.1446ZM456.525 121.014L415.515 92.5343L374.505 121.014L374.505 177.974L415.515 206.454L456.525 177.974L456.525 121.014Z" fill="white"/>
<path d="M498.524 33.4813L498.774 33.6487L540.522 62.6478L540.522 120.997L540.271 121.165L498.524 150.164L498.273 149.996L456.526 120.997L456.526 62.6478L456.776 62.4803L498.524 33.4813ZM539.534 63.351L498.524 34.871L457.514 63.351L457.514 120.311L498.524 148.791L539.534 120.311L539.534 63.351Z" fill="white"/>
<path opacity="0.5" d="M85.5132 90.391L85.5132 93.1703L83.5093 94.5767L81.4915 93.1703L81.4915 90.391L83.5093 89.0013L85.5132 90.391Z" fill="#2F36AB"/>
<path opacity="0.5" d="M85.4575 148.037L85.4575 150.733L83.5093 152.089L81.5611 150.733L81.5611 148.037L83.5093 146.681L85.4575 148.037Z" fill="#2F36AB"/>
<path opacity="0.5" d="M85.1514 205.851L85.1514 208.128L83.5093 209.284L81.8533 208.128L81.8533 205.851L83.5093 204.713L85.1514 205.851Z" fill="#2F36AB"/>
<path opacity="0.5" d="M84.7617 263.732L84.7617 265.473L83.5093 266.344L82.2429 265.473L82.2429 263.732L83.5093 262.845L84.7617 263.732Z" fill="#2F36AB"/>
<path opacity="0.5" d="M85.8054 551.027L85.8054 554.225L83.5093 555.815L81.1993 554.225L81.1993 551.027L83.5093 549.419L85.8054 551.027Z" fill="#2F36AB"/>
<path opacity="0.5" d="M86.4873 780.976L86.4873 785.112L83.5093 787.188L80.5174 785.112L80.5174 780.976L83.5093 778.9L86.4873 780.976Z" fill="#2F36AB"/>
<path opacity="0.5" d="M88.0596 837.484L88.0596 843.813L83.5091 846.978L78.9447 843.813L78.9447 837.484L83.5091 834.303L88.0596 837.484Z" fill="#2F36AB"/>
<path opacity="0.5" d="M44.3501 61.2914L44.3501 64.5563L41.9983 66.1804L39.6465 64.5563L39.6465 61.2914L41.9983 59.6506L44.3501 61.2914Z" fill="#2F36AB"/>
<path opacity="0.5" d="M44.5029 118.754L44.5029 122.22L41.9981 123.961L39.4932 122.22L39.4932 118.754L41.9981 117.012L44.5029 118.754Z" fill="#2F36AB"/>
<path opacity="0.5" d="M45.324 175.747L45.324 180.368L41.9981 182.662L38.6861 180.368L38.6861 175.747L41.9981 173.437L45.324 175.747Z" fill="#2F36AB"/>
<path opacity="0.5" d="M45.5327 521.006L45.5327 525.912L41.9981 528.357L38.4774 525.912L38.4774 521.006L41.9981 518.545L45.5327 521.006Z" fill="#2F36AB"/>
<path opacity="0.5" d="M44.0298 579.607L44.0298 582.42L41.9981 583.843L39.9803 582.42L39.9803 579.607L41.9981 578.201L44.0298 579.607Z" fill="#2F36AB"/>
<path opacity="0.5" d="M43.3757 637.622L43.3757 639.547L41.9981 640.502L40.6204 639.547L40.6204 637.622L41.9981 636.668L43.3757 637.622Z" fill="#2F36AB"/>
<path opacity="0.5" d="M45.032 694.046L45.032 698.249L41.9983 700.358L38.9786 698.249L38.9786 694.046L41.9983 691.953L45.032 694.046Z" fill="#2F36AB"/>
<path opacity="0.5" d="M43.4036 753.936L43.4036 755.879L41.9981 756.85L40.6065 755.879L40.6065 753.936L41.9981 752.965L43.4036 753.936Z" fill="#2F36AB"/>
<path opacity="0.5" d="M44.99 810.494L44.99 814.647L41.9981 816.706L39.0201 814.647L39.0201 810.494L41.9981 808.418L44.99 810.494Z" fill="#2F36AB"/>
<path opacity="0.5" d="M43.6401 867.706L43.6401 869.999L41.9981 871.138L40.356 869.999L40.356 867.706L41.9981 866.567L43.6401 867.706Z" fill="#2F36AB"/>
<path opacity="0.5" d="M168.09 33.0793L168.09 35.2726L166.504 36.361L164.931 35.2726L164.931 33.0793L166.504 31.991L168.09 33.0793Z" fill="#2F36AB"/>
<path opacity="0.5" d="M170.331 89.1185L170.331 94.4428L166.504 97.105L162.677 94.4428L162.677 89.1185L166.504 86.4731L170.331 89.1185Z" fill="#2F36AB"/>
<path opacity="0.5" d="M167.756 148.523L167.756 150.248L166.504 151.118L165.265 150.248L165.265 148.523L166.504 147.652L167.756 148.523Z" fill="#2F36AB"/>
<path opacity="0.5" d="M170.581 204.16L170.581 209.819L166.504 212.649L162.44 209.819L162.44 204.16L166.504 201.347L170.581 204.16Z" fill="#2F36AB"/>
<path opacity="0.5" d="M167.673 494.218L167.673 495.825L166.504 496.629L165.349 495.825L165.349 494.218L166.504 493.397L167.673 494.218Z" fill="#2F36AB"/>
<path opacity="0.5" d="M167.464 551.948L167.464 553.287L166.504 553.957L165.543 553.287L165.543 551.948L166.504 551.278L167.464 551.948Z" fill="#2F36AB"/>
<path opacity="0.5" d="M169.343 608.255L169.343 612.206L166.504 614.182L163.665 612.206L163.665 608.255L166.504 606.279L169.343 608.255Z" fill="#2F36AB"/>
<path opacity="0.5" d="M169.398 665.817L169.398 669.836L166.504 671.845L163.623 669.836L163.623 665.817L166.504 663.808L169.398 665.817Z" fill="#2F36AB"/>
<path opacity="0.5" d="M126.718 119.306L126.718 121.667L125.007 122.856L123.295 121.667L123.295 119.306L125.007 118.118L126.718 119.306Z" fill="#2F36AB"/>
<path opacity="0.5" d="M126.51 234.582L126.51 236.659L125.007 237.697L123.504 236.659L123.504 234.582L125.007 233.528L126.51 234.582Z" fill="#2F36AB"/>
<path opacity="0.5" d="M126.009 292.497L126.009 293.887L125.007 294.573L124.005 293.887L124.005 292.497L125.007 291.794L126.009 292.497Z" fill="#2F36AB"/>
<path opacity="0.5" d="M127.191 406.802L127.191 409.832L125.007 411.356L122.822 409.832L122.822 406.802L125.007 405.278L127.191 406.802Z" fill="#2F36AB"/>
<path opacity="0.5" d="M126.12 465.118L126.12 466.658L125.006 467.429L123.893 466.658L123.893 465.118L125.006 464.348L126.12 465.118Z" fill="#2F36AB"/>
<path opacity="0.5" d="M127.149 579.523L127.149 582.504L125.006 583.994L122.863 582.504L122.863 579.523L125.006 578.05L127.149 579.523Z" fill="#2F36AB"/>
<path opacity="0.5" d="M128.527 810.126L128.527 815.015L125.006 817.46L121.486 815.015L121.486 810.126L125.006 807.682L128.527 810.126Z" fill="#2F36AB"/>
<path opacity="0.5" d="M335.499 32.1084L335.499 36.244L332.521 38.3201L329.543 36.244L329.543 32.1084L332.521 30.0323L335.499 32.1084Z" fill="#2F36AB"/>
<path opacity="0.5" d="M333.745 90.9268L333.745 92.6346L332.521 93.4885L331.296 92.6346L331.296 90.9268L332.521 90.0897L333.745 90.9268Z" fill="#2F36AB"/>
<path opacity="0.5" d="M335.624 204.83L335.624 209.15L332.521 211.31L329.417 209.15L329.417 204.83L332.521 202.687L335.624 204.83Z" fill="#2F36AB"/>
<path opacity="0.5" d="M335.707 262.376L335.707 266.813L332.521 269.04L329.32 266.813L329.32 262.376L332.521 260.166L335.707 262.376Z" fill="#2F36AB"/>
<path opacity="0.5" d="M295.546 348.151L295.546 354.446L291.009 357.594L286.487 354.446L286.487 348.151L291.009 345.003L295.546 348.151Z" fill="#2F36AB"/>
<path opacity="0.5" d="M254.049 376.664L254.049 382.96L249.512 386.107L244.99 382.96L244.99 376.664L249.512 373.517L254.049 376.664Z" fill="#2F36AB"/>
<path opacity="0.5" d="M334.01 493.983L334.01 496.059L332.521 497.097L331.018 496.059L331.018 493.983L332.521 492.928L334.01 493.983Z" fill="#2F36AB"/>
<path opacity="0.5" d="M211.744 117.883L211.744 123.09L208.015 125.685L204.272 123.09L204.272 117.883L208.015 115.288L211.744 117.883Z" fill="#2F36AB"/>
<path opacity="0.5" d="M209.685 176.886L209.685 179.213L208.015 180.368L206.345 179.213L206.345 176.886L208.015 175.73L209.685 176.886Z" fill="#2F36AB"/>
<path opacity="0.5" d="M209.727 234.432L209.727 236.809L208.015 238.015L206.289 236.809L206.289 234.432L208.015 233.226L209.727 234.432Z" fill="#2F36AB"/>
<path opacity="0.5" d="M209.81 291.944L209.81 294.439L208.015 295.678L206.22 294.439L206.22 291.944L208.015 290.689L209.81 291.944Z" fill="#2F36AB"/>
<path opacity="0.5" d="M209.796 349.507L209.796 351.985L208.015 353.224L206.22 351.985L206.22 349.507L208.015 348.268L209.796 349.507Z" fill="#2F36AB"/>
<path opacity="0.5" d="M210.422 406.651L210.422 409.983L208.015 411.657L205.607 409.983L205.607 406.651L208.015 404.977L210.422 406.651Z" fill="#2F36AB"/>
<path opacity="0.5" d="M376.119 3.89638L376.119 6.80966L374.018 8.28306L371.916 6.80966L371.916 3.89638L374.018 2.42298L376.119 3.89638Z" fill="#2F36AB"/>
<path opacity="0.5" d="M418.09 32.3929L418.09 35.9592L415.515 37.7507L412.955 35.9592L412.955 32.3929L415.515 30.6181L418.09 32.3929Z" fill="#2F36AB"/>
<path opacity="0.5" d="M418.02 320.458L418.02 323.94L415.515 325.682L413.024 323.94L413.024 320.458L415.515 318.733L418.02 320.458Z" fill="#2F36AB"/>
<path opacity="0.5" d="M417.755 378.255L417.755 381.352L415.515 382.909L413.288 381.352L413.288 378.255L415.515 376.715L417.755 378.255Z" fill="#2F36AB"/>
<path opacity="0.5" d="M419.76 492.074L419.76 497.951L415.515 500.898L411.285 497.951L411.285 492.074L415.515 489.144L419.76 492.074Z" fill="#2F36AB"/>
<path opacity="0.5" d="M375.187 62.1118L375.187 63.7359L374.018 64.5396L372.849 63.7359L372.849 62.1118L374.018 61.2914L375.187 62.1118Z" fill="#2F36AB"/>
<path opacity="0.5" d="M376.216 291.66L376.216 294.707L374.018 296.23L371.819 294.707L371.819 291.66L374.018 290.136L376.216 291.66Z" fill="#2F36AB"/>
<path opacity="0.5" d="M375.062 407.589L375.062 409.045L374.018 409.765L372.974 409.045L372.974 407.589L374.018 406.869L375.062 407.589Z" fill="#2F36AB"/>
<path opacity="0.5" d="M377.024 521.358L377.024 525.544L374.018 527.637L371.012 525.544L371.012 521.358L374.018 519.265L377.024 521.358Z" fill="#2F36AB"/>
<path opacity="0.5" d="M460.631 60.4209L460.631 65.4271L457.026 67.9218L453.422 65.4271L453.422 60.4209L457.026 57.9095L460.631 60.4209Z" fill="#2F36AB"/>
<path opacity="0.5" d="M459.976 118.436L459.976 122.538L457.026 124.597L454.062 122.538L454.062 118.436L457.026 116.376L459.976 118.436Z" fill="#2F36AB"/>
<path opacity="0.5" d="M459.211 349.239L459.211 352.27L457.026 353.793L454.841 352.27L454.841 349.239L457.026 347.716L459.211 349.239Z" fill="#2F36AB"/>
<path opacity="0.5" d="M253.604 607.92L253.604 613.596L249.512 616.442L245.421 613.596L245.421 607.92L249.512 605.09L253.604 607.92Z" fill="#2F36AB"/>
<path d="M335.499 320.14L335.499 324.275L332.521 326.351L329.543 324.275L329.543 320.14L332.521 318.063L335.499 320.14Z" fill="white"/>
<path d="M252.49 262.477L252.49 266.612L249.512 268.688L246.534 266.612L246.534 262.477L249.512 260.4L252.49 262.477Z" fill="white"/>
<path d="M337.043 434.261L337.043 440.556L332.521 443.704L327.984 440.556L327.984 434.261L332.521 431.113L337.043 434.261Z" fill="white"/>
<path d="M334.914 550.96L334.914 554.292L332.521 555.949L330.127 554.292L330.127 550.96L332.521 549.286L334.914 550.96Z" fill="white"/>
<path d="M417.269 263.381L417.269 265.808L415.515 267.03L413.776 265.808L413.776 263.381L415.515 262.175L417.269 263.381Z" fill="white"/>
<path d="M43.2783 4.46537L43.2783 6.24013L41.9981 7.12757L40.7178 6.24013L40.7178 4.46537L41.9981 3.57804L43.2783 4.46537Z" fill="white"/>
<path d="M88.3799 318.817L88.3799 325.581L83.5093 328.963L78.6387 325.581L78.6387 318.817L83.5093 315.435L88.3799 318.817Z" fill="white"/>
<path d="M85.7915 378.221L85.7915 381.386L83.5093 382.977L81.2271 381.386L81.2271 378.221L83.5093 376.631L85.7915 378.221Z" fill="white"/>
<path d="M84.9563 436.404L84.9563 438.43L83.509 439.434L82.0479 438.43L82.0479 436.404L83.509 435.382L84.9563 436.404Z" fill="white"/>
<path d="M86.0559 493.246L86.0559 496.779L83.5093 498.554L80.9627 496.779L80.9627 493.246L83.5093 491.472L86.0559 493.246Z" fill="white"/>
<path d="M84.9287 609.226L84.9287 611.218L83.5093 612.223L82.076 611.218L82.076 609.226L83.5093 608.238L84.9287 609.226Z" fill="white"/>
<path d="M86.0559 666.069L86.0559 669.601L83.5093 671.376L80.9488 669.601L80.9488 666.069L83.5093 664.294L86.0559 666.069Z" fill="white"/>
<path d="M85.8193 723.832L85.8193 727.047L83.5093 728.654L81.1854 727.047L81.1854 723.832L83.5093 722.208L85.8193 723.832Z" fill="white"/>
<path d="M43.988 234.248L43.988 236.994L41.9981 238.366L40.022 236.994L40.022 234.248L41.9981 232.875L43.988 234.248Z" fill="white"/>
<path d="M44.7117 291.308L44.7117 295.075L41.9981 296.951L39.2845 295.075L39.2845 291.308L41.9981 289.416L44.7117 291.308Z" fill="white"/>
<path d="M44.2246 349.206L44.2246 352.303L41.9981 353.843L39.7715 352.303L39.7715 349.206L41.9981 347.665L44.2246 349.206Z" fill="white"/>
<path d="M43.6541 407.17L43.6541 409.464L41.9981 410.619L40.3421 409.464L40.3421 407.17L41.9981 406.015L43.6541 407.17Z" fill="white"/>
<path d="M128.193 3.1427L128.193 7.5628L125.006 9.7729L121.82 7.5628L121.82 3.1427L125.006 0.932603L128.193 3.1427Z" fill="white"/>
<path d="M170.038 262.142L170.038 267.047L166.504 269.492L162.983 267.047L162.983 262.142L166.504 259.697L170.038 262.142Z" fill="white"/>
<path d="M167.77 321.328L167.77 323.07L166.504 323.94L165.251 323.07L165.251 321.328L166.504 320.458L167.77 321.328Z" fill="white"/>
<path d="M169.704 377.585L169.704 382.022L166.504 384.249L163.317 382.022L163.317 377.585L166.504 375.375L169.704 377.585Z" fill="white"/>
<path d="M168.188 724.268L168.188 726.595L166.504 727.767L164.834 726.595L164.834 724.268L166.504 723.112L168.188 724.268Z" fill="white"/>
<path d="M170.024 780.591L170.024 785.48L166.504 787.925L162.997 785.48L162.997 780.591L166.504 778.164L170.024 780.591Z" fill="white"/>
<path d="M126.343 61.9947L126.343 63.8532L125.007 64.7741L123.671 63.8532L123.671 61.9947L125.007 61.0571L126.343 61.9947Z" fill="white"/>
<path d="M127.456 176.35L127.456 179.749L125.007 181.457L122.557 179.749L122.557 176.35L125.007 174.642L127.456 176.35Z" fill="white"/>
<path d="M126.162 349.942L126.162 351.566L125.007 352.37L123.852 351.566L123.852 349.942L125.007 349.139L126.162 349.942Z" fill="white"/>
<path d="M128.054 521.341L128.054 525.561L125.007 527.687L121.959 525.561L121.959 521.341L125.007 519.215L128.054 521.341Z" fill="white"/>
<path d="M127.567 636.802L127.567 640.368L125.007 642.159L122.446 640.368L122.446 636.802L125.007 635.027L127.567 636.802Z" fill="white"/>
<path d="M126.328 695.235L126.328 697.077L125.006 697.998L123.684 697.077L123.684 695.235L125.006 694.314L126.328 695.235Z" fill="white"/>
<path d="M126.468 753.903L126.468 755.929L125.006 756.933L123.545 755.929L123.545 753.903L125.006 752.881L126.468 753.903Z" fill="white"/>
<path d="M294.043 3.24325L294.043 7.44578L291.009 9.55533L287.99 7.44578L287.99 3.24325L291.009 1.15037L294.043 3.24325Z" fill="white"/>
<path d="M252.532 32.0748L252.532 36.2773L249.512 38.387L246.492 36.2773L246.492 32.0748L249.512 29.9819L252.532 32.0748Z" fill="white"/>
<path d="M210.45 61.2244L210.45 64.6065L208.015 66.3143L205.566 64.6065L205.566 61.2244L208.015 59.5334L210.45 61.2244Z" fill="white"/>
<path d="M210.172 464.381L210.172 467.378L208.015 468.885L205.858 467.378L205.858 464.381L208.015 462.891L210.172 464.381Z" fill="white"/>
<path d="M209.448 522.463L209.448 524.456L208.015 525.443L206.582 524.456L206.582 522.463L208.015 521.458L209.448 522.463Z" fill="white"/>
<path d="M209.615 579.909L209.615 582.135L208.015 583.257L206.4 582.135L206.4 579.909L208.015 578.787L209.615 579.909Z" fill="white"/>
<path d="M210.784 636.651L210.784 640.519L208.015 642.444L205.232 640.519L205.232 636.651L208.015 634.726L210.784 636.651Z" fill="white"/>
<path d="M210.436 694.482L210.436 697.83L208.015 699.521L205.593 697.83L205.593 694.482L208.015 692.791L210.436 694.482Z" fill="white"/>
<path d="M417.269 90.5751L417.269 93.0029L415.515 94.2084L413.776 93.0029L413.776 90.5751L415.515 89.3529L417.269 90.5751Z" fill="white"/>
<path d="M417.811 147.803L417.811 150.967L415.515 152.558L413.233 150.967L413.233 147.803L415.515 146.212L417.811 147.803Z" fill="white"/>
<path d="M418.549 435.315L418.549 439.518L415.515 441.611L412.495 439.518L412.495 435.315L415.515 433.206L418.549 435.315Z" fill="white"/>
<path d="M378.22 117.565L378.22 123.408L374.018 126.322L369.815 123.408L369.815 117.565L374.018 114.652L378.22 117.565Z" fill="white"/>
<path d="M377.149 175.881L377.149 180.218L374.018 182.394L370.901 180.218L370.901 175.881L374.018 173.705L377.149 175.881Z" fill="white"/>
<path d="M377.413 233.26L377.413 237.981L374.018 240.325L370.636 237.981L370.636 233.26L374.018 230.916L377.413 233.26Z" fill="white"/>
<path d="M376.063 464.465L376.063 467.311L374.018 468.735L371.972 467.311L371.972 464.465L374.018 463.042L376.063 464.465Z" fill="white"/>
<path d="M376.342 579.406L376.342 582.638L374.018 584.262L371.694 582.638L371.694 579.406L374.018 577.782L376.342 579.406Z" fill="white"/>
<path d="M460.491 175.647L460.491 180.469L457.026 182.863L453.561 180.469L453.561 175.647L457.026 173.236L460.491 175.647Z" fill="white"/>
<path d="M458.64 234.499L458.64 236.742L457.026 237.864L455.398 236.742L455.398 234.499L457.026 233.377L458.64 234.499Z" fill="white"/>
</g>
</svg>
