<svg width="308" height="434" viewBox="0 0 308 434" fill="none" xmlns="http://www.w3.org/2000/svg">
<g opacity="0.14">
<path d="M271.152 200.072H285.961V233.928H271.152V200.072ZM241.971 243.84H256.78V190.16H241.971V243.84ZM213.28 271.606H228.088V162.394H213.28V271.606ZM186.004 293.031H200.813V141.968H186.004V292.995V293.031ZM156.804 256.14H171.613V177.859H156.804V256.14ZM127.142 315.374H141.95V115.276H127.095V315.374H127.142ZM97.9508 344.064H112.759V89.9363H97.9508V344.064ZM69.2593 304.831H84.0679V129.168H69.2593V304.832V304.831ZM39.5778 254.946H54.3863V180.903H39.5778V254.946ZM10.8872 237.295H25.6957V196.639H10.8872V237.362V237.295ZM-17.8043 259.046H-2.99576V174.925H-17.8043V259.073V259.046ZM-46.033 299.768H-31.2244V129.418H-46.0321V299.797L-46.033 299.768ZM-74.7236 273.743H-59.915V158.794H-74.7236V273.772V273.743ZM-103.961 243.84H-89.1524V190.16H-103.961V243.84Z" fill="#2F36AB"/>
</g>
</svg>
