<svg width="348" height="348" viewBox="0 0 348 348" fill="none" xmlns="http://www.w3.org/2000/svg">
<path d="M318.454 160.427H330.328V187.573H318.454V160.427ZM295.055 195.522H306.929V152.478H295.055V195.522ZM272.049 217.785H283.923V130.215H272.049V217.785ZM250.179 234.965H262.053V113.836H250.179V234.936V234.965ZM226.765 205.385H238.639V142.615H226.765V205.385ZM202.98 252.88H214.854V92.4334H202.942V252.88H202.98ZM179.573 275.885H191.448V72.1149H179.573V275.885ZM156.567 244.427H168.442V103.573H156.567V244.427V244.427ZM132.767 204.427H144.642V145.056H132.767V204.427ZM109.762 190.274H121.636V157.674H109.762V190.327V190.274ZM86.756 207.715H98.6301V140.262H86.756V207.736V207.715ZM64.121 240.367H75.9952V103.773H64.1217V240.391L64.121 240.367ZM41.1157 219.499H52.9898V127.328H41.1157V219.522V219.499ZM17.6719 195.522H29.546V152.478H17.6719V195.522Z" fill="#59C031" fill-opacity="0.2"/>
</svg>
