<svg width="641" height="1158" viewBox="0 0 641 1158" fill="none" xmlns="http://www.w3.org/2000/svg">
<g opacity="0.25">
<path opacity="0.5" d="M372.17 223.885L372.386 224.037L426.268 261.474L426.268 336.632L426.052 336.783L372.17 374.221L371.954 374.07L318.072 336.632L318.072 261.474L318.288 261.323L372.17 223.885ZM425.422 262.059L372.17 225.076L318.917 262.059L318.917 336.025L372.17 373.009L425.422 336.025L425.422 262.059Z" fill="#2F36AB"/>
<path opacity="0.5" d="M-3.52706 37.4534L-3.31111 37.605L50.5709 75.0429L50.5709 150.2L50.355 150.352L-3.52707 187.79L-3.74303 187.638L-57.6251 150.2L-57.6251 75.0429L-57.4091 74.8913L-3.52706 37.4534ZM49.7251 75.6275L-3.52706 38.6443L-56.7792 75.6275L-56.7792 149.594L-3.52707 186.577L49.7251 149.594L49.7251 75.6275Z" fill="#2F36AB"/>
<path opacity="0.5" d="M-3.52706 261.171L-3.31111 261.323L50.5709 298.761L50.5709 373.918L50.355 374.069L-3.52707 411.507L-3.74303 411.356L-57.6251 373.918L-57.6251 298.761L-57.4091 298.609L-3.52706 261.171ZM49.7251 299.345L-3.52706 262.362L-56.7792 299.345L-56.7792 373.312L-3.52707 410.295L49.7251 373.312L49.7251 299.345Z" fill="#2F36AB"/>
<path opacity="0.5" d="M-3.52706 410.295L-3.31111 410.446L50.5709 447.884L50.5709 523.041L50.355 523.193L-3.52707 560.631L-3.74303 560.479L-57.6251 523.041L-57.6251 447.884L-57.4091 447.733L-3.52706 410.295ZM49.7251 448.469L-3.52706 411.486L-56.7792 448.469L-56.7792 522.435L-3.52707 559.418L49.7251 522.435L49.7251 448.469Z" fill="#2F36AB"/>
<g opacity="0.5">
<path d="M-3.52706 932.26L50.5709 969.849L50.5709 1045.01L50.355 1045.16L-3.52707 1082.6L-57.6251 1045.01L-57.6251 969.849L-57.4091 969.698L-3.52706 932.26ZM49.7251 970.434L-3.52706 933.451L-56.7792 970.434L-56.7792 1044.4L-3.52707 1081.38L49.7251 1044.4L49.7251 970.434Z" fill="#2F36AB"/>
</g>
<path opacity="0.5" d="M50.1391 74.7398L50.355 74.8914L104.237 112.329L104.237 187.487L104.021 187.638L50.1391 225.076L49.9231 224.924L-3.95893 187.486L-3.95892 112.329L-3.74297 112.178L50.1391 74.7398ZM103.391 112.914L50.1391 75.9307L-3.11314 112.914L-3.11314 186.88L50.1391 223.863L103.391 186.88L103.391 112.914Z" fill="#2F36AB"/>
<path opacity="0.5" d="M50.1391 149.313L50.355 149.464L104.237 186.902L104.237 262.059L104.021 262.211L50.1391 299.649L49.9231 299.497L-3.95893 262.059L-3.95892 186.902L-3.74297 186.75L50.1391 149.313ZM103.391 187.487L50.1391 150.503L-3.11314 187.487L-3.11314 261.453L50.1391 298.436L103.391 261.453L103.391 187.487Z" fill="#2F36AB"/>
<path opacity="0.5" d="M50.139 373.009L50.3549 373.16L104.237 410.598L104.237 485.755L104.021 485.907L50.1389 523.345L49.9229 523.193L-3.95905 485.755L-3.95905 410.598L-3.7431 410.446L50.139 373.009ZM103.391 411.183L50.139 374.2L-3.11326 411.183L-3.11326 485.149L50.1389 522.132L103.391 485.149L103.391 411.183Z" fill="#2F36AB"/>
<path opacity="0.5" d="M50.139 447.581L50.3549 447.733L104.237 485.171L104.237 560.328L104.021 560.479L50.1389 597.917L-3.95905 560.328L-3.95905 485.171L-3.7431 485.019L50.139 447.581ZM103.391 485.755L50.139 448.772L-3.11326 485.755L-3.11326 559.722L50.1389 596.705L103.391 559.722L103.391 485.755Z" fill="#2F36AB"/>
<path opacity="0.5" d="M50.1391 671.277L104.237 708.867L104.237 784.024L104.021 784.176L50.1391 821.614L-3.95893 784.024L-3.95892 708.867L-3.74297 708.715L50.1391 671.277ZM103.391 709.451L50.1391 672.468L-3.11314 709.451L-3.11314 783.418L50.1391 820.401L103.391 783.418L103.391 709.451Z" fill="#2F36AB"/>
<path opacity="0.5" d="M211.155 37.4534L211.371 37.605L265.253 75.0429L265.253 150.2L265.037 150.352L211.155 187.79L210.939 187.638L157.057 150.2L157.057 75.0429L157.273 74.8913L211.155 37.4534ZM264.407 75.6275L211.155 38.6443L157.903 75.6275L157.903 149.594L211.155 186.577L264.407 149.594L264.407 75.6275Z" fill="#2F36AB"/>
<path opacity="0.5" d="M211.155 261.171L211.371 261.323L265.253 298.761L265.253 373.918L265.037 374.07L211.155 411.508L210.939 411.356L157.057 373.918L157.057 298.761L157.273 298.609L211.155 261.171ZM264.407 299.346L211.155 262.362L157.903 299.346L157.903 373.312L211.155 410.295L264.407 373.312L264.407 299.346Z" fill="#2F36AB"/>
<path opacity="0.5" d="M211.155 559.418L211.371 559.57L265.253 597.008L265.253 672.165L265.037 672.317L211.155 709.755L157.057 672.165L157.057 597.008L157.273 596.856L211.155 559.418ZM264.407 597.593L211.155 560.609L157.903 597.593L157.903 671.559L211.155 708.542L264.407 671.559L264.407 597.593Z" fill="#2F36AB"/>
<path opacity="0.5" d="M264.84 0.167382L265.055 0.318841L318.938 37.7568L318.938 112.914L318.722 113.066L264.84 150.503L264.624 150.352L210.742 112.914L210.742 37.7568L210.957 37.6052L264.84 0.167382ZM318.092 38.3415L264.84 1.35827L211.587 38.3415L211.587 112.308L264.84 149.291L318.092 112.308L318.092 38.3415Z" fill="#2F36AB"/>
<path opacity="0.5" d="M264.84 149.313L265.055 149.464L318.938 186.902L318.938 262.059L318.722 262.211L264.84 299.649L264.624 299.497L210.742 262.059L210.742 186.902L210.957 186.75L264.84 149.313ZM318.092 187.487L264.84 150.503L211.587 187.487L211.587 261.453L264.84 298.436L318.092 261.453L318.092 187.487Z" fill="#2F36AB"/>
<path opacity="0.5" d="M264.84 298.436L265.055 298.588L318.938 336.026L318.938 411.183L318.722 411.334L264.84 448.772L264.624 448.621L210.742 411.183L210.742 336.026L210.957 335.874L264.84 298.436ZM318.092 336.61L264.84 299.627L211.587 336.61L211.587 410.577L264.84 447.56L318.092 410.577L318.092 336.61Z" fill="#2F36AB"/>
<path opacity="0.5" d="M264.84 373.009L265.055 373.16L318.938 410.598L318.938 485.755L318.722 485.907L264.84 523.345L264.624 523.193L210.742 485.755L210.742 410.598L210.957 410.446L264.84 373.009ZM318.092 411.183L264.84 374.2L211.587 411.183L211.587 485.149L264.84 522.132L318.092 485.149L318.092 411.183Z" fill="#2F36AB"/>
<path opacity="0.5" d="M264.84 596.705L318.938 634.294L318.938 709.452L318.722 709.603L264.84 747.041L210.742 709.452L210.742 634.294L210.957 634.143L264.84 596.705ZM318.092 634.879L264.84 597.896L211.587 634.879L211.587 708.845L264.84 745.828L318.092 708.845L318.092 634.879Z" fill="#2F36AB"/>
<path opacity="0.5" d="M318.506 37.4534L318.721 37.605L372.604 75.0429L372.604 150.2L372.388 150.352L318.506 187.79L318.29 187.638L264.408 150.2L264.408 75.0429L264.623 74.8913L318.506 37.4534ZM371.758 75.6275L318.506 38.6443L265.253 75.6275L265.253 149.594L318.506 186.577L371.758 149.594L371.758 75.6275Z" fill="#2F36AB"/>
<path opacity="0.5" d="M318.506 410.295L318.721 410.447L372.604 447.884L372.604 523.042L372.388 523.193L318.506 560.631L318.29 560.48L264.408 523.042L264.408 447.884L264.623 447.733L318.506 410.295ZM371.758 448.469L318.506 411.486L265.253 448.469L265.253 522.435L318.506 559.419L371.758 522.435L371.758 448.469Z" fill="#2F36AB"/>
<path opacity="0.5" d="M372.17 74.7398L372.386 74.8914L426.268 112.329L426.268 187.487L426.052 187.638L372.17 225.076L371.954 224.924L318.072 187.486L318.072 112.329L318.288 112.178L372.17 74.7398ZM425.422 112.914L372.17 75.9307L318.917 112.914L318.917 186.88L372.17 223.863L425.422 186.88L425.422 112.914Z" fill="#2F36AB"/>
<path opacity="0.5" d="M425.853 186.599L426.069 186.75L479.951 224.188L479.951 299.345L479.735 299.497L425.853 336.935L425.637 336.783L371.755 299.345L371.755 224.188L371.971 224.037L425.853 186.599ZM479.106 224.773L425.853 187.79L372.601 224.773L372.601 298.739L425.853 335.722L479.106 298.739L479.106 224.773Z" fill="#2F36AB"/>
<path opacity="0.5" d="M586.87 74.7398L587.086 74.8914L640.968 112.329L640.968 187.487L640.752 187.638L586.87 225.076L586.654 224.924L532.772 187.486L532.772 112.329L532.988 112.178L586.87 74.7398ZM640.104 112.914L586.852 75.9307L533.599 112.914L533.599 186.88L586.852 223.863L640.104 186.88L640.104 112.914Z" fill="#2F36AB"/>
<path opacity="0.5" d="M103.823 37.4534L104.039 37.605L157.921 75.0429L157.921 150.2L157.705 150.352L103.823 187.79L103.607 187.638L49.7254 150.2L49.7254 75.0429L49.9414 74.8913L103.823 37.4534ZM157.076 75.6275L103.823 38.6443L50.5713 75.6275L50.5712 149.594L103.823 186.577L157.076 149.594L157.076 75.6275Z" fill="#2F36AB"/>
<path opacity="0.5" d="M103.823 112.026L104.039 112.178L157.921 149.616L157.921 224.773L157.705 224.924L103.823 262.362L103.607 262.211L49.7254 224.773L49.7254 149.616L49.9414 149.464L103.823 112.026ZM157.076 150.2L103.823 113.217L50.5713 150.2L50.5712 224.167L103.823 261.15L157.076 224.167L157.076 150.2Z" fill="#2F36AB"/>
<path opacity="0.5" d="M103.823 186.599L104.039 186.75L157.921 224.188L157.921 299.345L157.705 299.497L103.823 336.935L103.607 336.783L49.7254 299.345L49.7254 224.188L49.9414 224.037L103.823 186.599ZM157.076 224.773L103.823 187.79L50.5713 224.773L50.5712 298.739L103.823 335.722L157.076 298.739L157.076 224.773Z" fill="#2F36AB"/>
<path opacity="0.5" d="M103.823 410.295L104.039 410.447L157.921 447.884L157.921 523.042L157.705 523.193L103.823 560.631L103.607 560.48L49.725 523.042L49.725 447.884L49.941 447.733L103.823 410.295ZM157.075 448.469L103.823 411.486L50.5709 448.469L50.5709 522.435L103.823 559.419L157.075 522.435L157.075 448.469Z" fill="#2F36AB"/>
<path opacity="0.5" d="M103.823 783.136L157.921 820.726L157.921 895.883L157.705 896.035L103.823 933.472L49.725 895.883L49.725 820.726L49.941 820.574L103.823 783.136ZM157.075 821.31L103.823 784.327L50.5709 821.31L50.5709 895.277L103.823 932.26L157.075 895.277L157.075 821.31Z" fill="#2F36AB"/>
<path opacity="0.5" d="M103.823 633.991L157.921 671.58L157.921 746.738L157.705 746.889L103.823 784.327L49.725 746.738L49.725 671.58L49.941 671.429L103.823 633.991ZM157.075 672.165L103.823 635.182L50.5709 672.165L50.5709 746.131L103.823 783.115L157.075 746.131L157.075 672.165Z" fill="#2F36AB"/>
<path opacity="0.5" d="M264.84 447.581L265.055 447.733L318.938 485.171L318.938 560.328L318.722 560.479L264.84 597.917L210.742 560.328L210.742 485.171L210.957 485.019L264.84 447.581ZM318.092 485.755L264.84 448.772L211.587 485.755L211.587 559.722L264.84 596.705L318.092 559.722L318.092 485.755Z" fill="#2F36AB"/>
<path d="M425.854 334.834L426.177 335.051L480.167 372.554L480.167 448.014L479.844 448.231L425.854 485.733L425.53 485.517L371.54 448.014L371.54 372.554L371.864 372.337L425.854 334.834ZM478.89 373.463L425.854 336.632L372.817 373.463L372.817 447.126L425.854 483.958L478.89 447.126L478.89 373.463Z" fill="#2F36AB"/>
<path d="M50.1391 298.155L50.463 298.371L104.453 335.874L104.453 411.334L104.129 411.551L50.1391 449.054L49.8151 448.837L-4.17495 411.334L-4.17494 335.874L-3.85096 335.657L50.1391 298.155ZM103.175 336.783L50.1391 299.952L-2.89713 336.783L-2.89714 410.447L50.1391 447.278L103.175 410.447L103.175 336.783Z" fill="#2F36AB"/>
<path d="M103.823 559.137L104.147 559.354L158.137 596.856L158.137 672.317L157.813 672.533L103.823 710.036L49.5091 672.317L49.5091 596.856L49.833 596.64L103.823 559.137ZM156.859 597.766L103.823 560.934L50.7868 597.766L50.7868 671.429L103.823 708.261L156.859 671.429L156.859 597.766Z" fill="#2F36AB"/>
<path d="M103.823 335.441L104.147 335.657L158.137 373.16L158.137 448.621L157.813 448.837L103.823 486.34L103.499 486.123L49.5091 448.621L49.5091 373.16L49.833 372.944L103.823 335.441ZM156.859 374.07L103.823 337.238L50.7868 374.07L50.7868 447.733L103.823 484.564L156.859 447.733L156.859 374.07Z" fill="#2F36AB"/>
<path d="M211.155 409.992L211.479 410.208L265.469 447.711L265.469 523.172L265.145 523.388L211.155 560.891L210.831 560.674L156.841 523.172L156.841 447.711L157.165 447.495L211.155 409.992ZM264.191 448.621L211.155 411.789L158.119 448.621L158.119 522.284L211.155 559.115L264.191 522.284L264.191 448.621Z" fill="#2F36AB"/>
<path d="M-3.52695 111.723L-3.20302 111.939L50.787 149.442L50.787 224.903L50.4631 225.119L-3.52695 262.622L-3.85088 262.406L-57.8409 224.903L-57.8409 149.442L-57.517 149.226L-3.52695 111.723ZM49.5092 150.352L-3.52695 113.52L-56.5631 150.352L-56.5631 224.015L-3.52695 260.847L49.5092 224.015L49.5092 150.352Z" fill="#2F36AB"/>
<path d="M-3.52695 484.564L-3.20302 484.781L50.787 522.284L50.787 597.744L50.4631 597.961L-3.52695 635.463L-57.8409 597.744L-57.8409 522.284L-57.517 522.067L-3.52695 484.564ZM49.5092 523.193L-3.52695 486.361L-56.5631 523.193L-56.5631 596.856L-3.52695 633.688L49.5092 596.856L49.5092 523.193Z" fill="#2F36AB"/>
<path d="M-3.52695 857.406L50.787 895.125L50.787 970.586L50.4631 970.802L-3.52695 1008.3L-57.8409 970.586L-57.8409 895.125L-57.517 894.909L-3.52695 857.406ZM49.5092 896.035L-3.52695 859.203L-56.5631 896.035L-56.5631 969.698L-3.52695 1006.53L49.5092 969.698L49.5092 896.035Z" fill="#2F36AB"/>
<path d="M50.1391 521.851L50.463 522.067L104.453 559.57L104.453 635.03L104.129 635.247L50.1391 672.75L-4.17495 635.03L-4.17494 559.57L-3.85096 559.353L50.1391 521.851ZM103.175 560.479L50.1391 523.648L-2.89713 560.479L-2.89714 634.143L50.1391 670.974L103.175 634.143L103.175 560.479Z" fill="#2F36AB"/>
<path d="M50.1391 745.547L104.453 783.266L104.453 858.727L104.129 858.943L50.1391 896.446L-4.17495 858.727L-4.17494 783.266L-3.85096 783.05L50.1391 745.547ZM103.175 784.176L50.1391 747.344L-2.89713 784.176L-2.89714 857.839L50.1391 894.671L103.175 857.839L103.175 784.176Z" fill="#2F36AB"/>
<path d="M211.155 186.295L211.479 186.512L265.469 224.015L265.469 299.475L265.145 299.692L211.155 337.195L210.831 336.978L156.841 299.475L156.841 224.015L157.165 223.798L211.155 186.295ZM264.191 224.924L211.155 188.093L158.119 224.924L158.119 298.587L211.155 335.419L264.191 298.587L264.191 224.924Z" fill="#2F36AB"/>
<path d="M264.84 74.4366L265.164 74.6531L319.154 112.156L319.154 187.616L318.83 187.833L264.84 225.336L264.516 225.119L210.526 187.616L210.526 112.156L210.85 111.939L264.84 74.4366ZM317.876 113.065L264.84 76.2338L211.803 113.065L211.803 186.729L264.84 223.56L317.876 186.729L317.876 113.065Z" fill="#2F36AB"/>
<path d="M318.506 260.868L318.83 261.085L372.82 298.587L372.82 374.048L372.496 374.264L318.506 411.767L318.182 411.551L264.192 374.048L264.192 298.587L264.516 298.371L318.506 260.868ZM371.542 299.497L318.506 262.665L265.469 299.497L265.469 373.16L318.506 409.992L371.542 373.16L371.542 299.497Z" fill="#2F36AB"/>
<path d="M318.505 484.564L318.829 484.781L372.819 522.284L372.819 597.744L372.495 597.961L318.505 635.464L264.191 597.744L264.191 522.284L264.515 522.067L318.505 484.564ZM371.542 523.193L318.505 486.362L265.469 523.193L265.469 596.856L318.505 633.688L371.542 596.856L371.542 523.193Z" fill="#2F36AB"/>
<path d="M318.505 633.688L372.819 671.407L372.819 746.868L372.495 747.084L318.505 784.587L264.191 746.868L264.191 671.407L264.515 671.191L318.505 633.688ZM371.542 672.317L318.505 635.485L265.469 672.317L265.469 745.98L318.505 782.812L371.542 745.98L371.542 672.317Z" fill="#2F36AB"/>
<path d="M372.169 149.009L372.493 149.226L426.483 186.729L426.483 262.189L426.159 262.406L372.169 299.908L371.846 299.692L317.856 262.189L317.856 186.729L318.179 186.512L372.169 149.009ZM425.206 187.638L372.169 150.807L319.133 187.638L319.133 261.301L372.169 298.133L425.206 261.301L425.206 187.638Z" fill="#2F36AB"/>
<path d="M479.52 74.4366L479.843 74.6531L533.834 112.156L533.833 187.616L533.51 187.833L479.52 225.336L479.196 225.119L425.206 187.616L425.206 112.156L425.53 111.939L479.52 74.4366ZM532.556 113.065L479.52 76.2338L426.483 113.065L426.483 186.729L479.52 223.56L532.556 186.729L532.556 113.065Z" fill="#2F36AB"/>
<path d="M533.186 37.1719L533.51 37.3886L587.5 74.8913L587.5 150.352L587.176 150.568L533.186 188.071L532.862 187.854L478.872 150.352L478.872 74.8913L479.196 74.6748L533.186 37.1719ZM586.222 75.8007L533.186 38.9692L480.15 75.8007L480.15 149.464L533.186 186.295L586.222 149.464L586.222 75.8007Z" fill="#2F36AB"/>
<path opacity="0.5" d="M52.1909 73.9169L52.1909 76.7534L50.1393 78.1609L48.1057 76.7534L48.1057 73.9169L50.1393 72.5094L52.1909 73.9169Z" fill="#2F36AB"/>
<path opacity="0.5" d="M55.0883 146.389L55.0883 153.275L50.1392 156.718L45.1901 153.275L45.1901 146.389L50.1392 142.968L55.0883 146.389Z" fill="#2F36AB"/>
<path opacity="0.5" d="M51.7589 223.214L51.7589 225.444L50.1392 226.57L48.5375 225.444L48.5375 223.214L50.1392 222.088L51.7589 223.214Z" fill="#2F36AB"/>
<path opacity="0.5" d="M55.4124 295.166L55.4124 302.485L50.1393 306.144L44.8843 302.485L44.8843 295.166L50.1393 291.529L55.4124 295.166Z" fill="#2F36AB"/>
<path opacity="0.5" d="M51.6509 670.281L51.6509 672.36L50.1392 673.399L48.6454 672.36L48.6454 670.281L50.1392 669.22L51.6509 670.281Z" fill="#2F36AB"/>
<path opacity="0.5" d="M51.3809 744.94L51.3809 746.673L50.1391 747.539L48.8973 746.673L48.8973 744.94L50.1391 744.074L51.3809 744.94Z" fill="#2F36AB"/>
<path opacity="0.5" d="M53.8104 817.759L53.8104 822.869L50.1391 825.424L46.4678 822.869L46.4678 817.759L50.1391 815.204L53.8104 817.759Z" fill="#2F36AB"/>
<path opacity="0.5" d="M53.8827 892.202L53.8827 897.398L50.1394 899.997L46.4141 897.398L46.4141 892.202L50.1394 889.603L53.8827 892.202Z" fill="#2F36AB"/>
<path opacity="0.5" d="M1.02625 1078.83L1.02625 1085.15L-3.52691 1088.31L-8.08007 1085.15L-8.08007 1078.83L-3.52691 1075.67L1.02625 1078.83Z" fill="#2F36AB"/>
<path opacity="0.5" d="M268.691 72.6611L268.691 78.0094L264.84 80.6943L260.988 78.0094L260.988 72.6611L264.84 69.9762L268.691 72.6611Z" fill="#2F36AB"/>
<path opacity="0.5" d="M266.423 148.728L266.423 150.936L264.84 152.041L263.256 150.936L263.256 148.728L264.84 147.645L266.423 148.728Z" fill="#2F36AB"/>
<path opacity="0.5" d="M268.853 296.032L268.853 301.619L264.84 304.412L260.826 301.619L260.826 296.032L264.84 293.261L268.853 296.032Z" fill="#2F36AB"/>
<path opacity="0.5" d="M268.961 370.453L268.961 376.191L264.84 379.071L260.7 376.191L260.7 370.453L264.84 367.595L268.961 370.453Z" fill="#2F36AB"/>
<path opacity="0.5" d="M217.022 481.381L217.022 489.523L211.156 493.594L205.307 489.523L205.307 481.381L211.156 477.311L217.022 481.381Z" fill="#2F36AB"/>
<path opacity="0.5" d="M163.356 518.256L163.356 526.398L157.49 530.469L151.641 526.398L151.641 518.256L157.49 514.186L163.356 518.256Z" fill="#2F36AB"/>
<path opacity="0.5" d="M266.765 669.978L266.765 672.663L264.839 674.005L262.896 672.663L262.896 669.978L264.839 668.614L266.765 669.978Z" fill="#2F36AB"/>
<path opacity="0.5" d="M108.646 183.589L108.646 190.323L103.823 193.679L98.9822 190.323L98.9822 183.589L103.823 180.233L108.646 183.589Z" fill="#2F36AB"/>
<path opacity="0.5" d="M105.983 259.894L105.983 262.903L103.823 264.397L101.664 262.903L101.664 259.894L103.823 258.4L105.983 259.894Z" fill="#2F36AB"/>
<path opacity="0.5" d="M106.037 334.315L106.037 337.39L103.823 338.948L101.592 337.39L101.592 334.315L103.823 332.756L106.037 334.315Z" fill="#2F36AB"/>
<path opacity="0.5" d="M106.145 408.692L106.145 411.919L103.823 413.521L101.502 411.919L101.502 408.692L103.823 407.068L106.145 408.692Z" fill="#2F36AB"/>
<path opacity="0.5" d="M106.127 483.135L106.127 486.34L103.824 487.942L101.502 486.34L101.502 483.135L103.824 481.533L106.127 483.135Z" fill="#2F36AB"/>
<path opacity="0.5" d="M106.937 557.036L106.937 561.345L103.823 563.511L100.71 561.345L100.71 557.036L103.823 554.871L106.937 557.036Z" fill="#2F36AB"/>
<path opacity="0.5" d="M321.223 36.1758L321.223 39.9434L318.506 41.8489L315.788 39.9434L315.788 36.1758L318.506 34.2704L321.223 36.1758Z" fill="#2F36AB"/>
<path opacity="0.5" d="M375.501 73.0291L375.501 77.6411L372.172 79.958L368.86 77.6411L368.86 73.0291L372.172 70.7338L375.501 73.0291Z" fill="#2F36AB"/>
<path opacity="0.5" d="M375.411 445.567L375.411 450.071L372.171 452.323L368.95 450.071L368.95 445.567L372.171 443.337L375.411 445.567Z" fill="#2F36AB"/>
<path opacity="0.5" d="M375.069 520.313L375.069 524.319L372.172 526.333L369.292 524.319L369.292 520.313L372.172 518.321L375.069 520.313Z" fill="#2F36AB"/>
<path opacity="0.5" d="M377.661 667.51L377.661 675.11L372.172 678.921L366.701 675.11L366.701 667.51L372.172 663.72L377.661 667.51Z" fill="#2F36AB"/>
<path opacity="0.5" d="M320.018 111.463L320.018 113.563L318.506 114.603L316.994 113.563L316.994 111.463L318.506 110.402L320.018 111.463Z" fill="#2F36AB"/>
<path opacity="0.5" d="M321.349 408.324L321.349 412.265L318.505 414.236L315.662 412.265L315.662 408.324L318.505 406.354L321.349 408.324Z" fill="#2F36AB"/>
<path opacity="0.5" d="M319.855 558.249L319.855 560.133L318.506 561.064L317.156 560.133L317.156 558.249L318.506 557.318L319.855 558.249Z" fill="#2F36AB"/>
<path opacity="0.5" d="M322.393 705.381L322.393 710.794L318.506 713.5L314.619 710.794L314.619 705.381L318.506 702.674L322.393 705.381Z" fill="#2F36AB"/>
<path opacity="0.5" d="M481.754 148.273L481.754 151.391L479.522 152.95L477.29 151.391L477.29 148.273L479.522 146.735L481.754 148.273Z" fill="#2F36AB"/>
<path opacity="0.5" d="M483.193 221.785L483.193 226.895L479.522 229.428L475.85 226.895L475.85 221.785L479.522 219.229L483.193 221.785Z" fill="#2F36AB"/>
<path opacity="0.5" d="M483.517 296.054L483.517 301.597L479.522 304.369L475.545 301.597L475.545 296.054L479.522 293.283L483.517 296.054Z" fill="#2F36AB"/>
<path opacity="0.5" d="M430.517 109.276L430.517 115.75L425.856 118.977L421.195 115.75L421.195 109.276L425.856 106.028L430.517 109.276Z" fill="#2F36AB"/>
<path opacity="0.5" d="M429.671 184.303L429.671 189.608L425.856 192.272L422.023 189.608L422.023 184.303L425.856 181.64L429.671 184.303Z" fill="#2F36AB"/>
<path opacity="0.5" d="M428.681 482.789L428.681 486.708L425.856 488.678L423.03 486.708L423.03 482.789L425.856 480.818L428.681 482.789Z" fill="#2F36AB"/>
<path opacity="0.5" d="M535.905 36.1758L535.905 39.9434L533.206 41.8271L530.488 39.9434L530.488 36.1758L533.206 34.2918L535.905 36.1758Z" fill="#2F36AB"/>
<path opacity="0.5" d="M591.767 220.918L591.767 227.739L586.872 231.139L581.977 227.739L581.977 220.918L586.872 217.519L591.767 220.918Z" fill="#2F36AB"/>
<path opacity="0.5" d="M538.677 183.156L538.677 190.756L533.206 194.567L527.717 190.756L527.717 183.156L533.206 179.345L538.677 183.156Z" fill="#2F36AB"/>
<path opacity="0.5" d="M162.781 817.326L162.781 824.666L157.49 828.347L152.199 824.666L152.199 817.326L157.49 813.667L162.781 817.326Z" fill="#2F36AB"/>
<path d="M268.691 445.156L268.691 450.504L264.84 453.189L260.988 450.504L260.988 445.156L264.84 442.471L268.691 445.156Z" fill="#2F36AB"/>
<path d="M161.341 370.583L161.341 375.932L157.489 378.616L153.638 375.932L153.638 370.583L157.489 367.898L161.341 370.583Z" fill="#2F36AB"/>
<path d="M270.689 592.742L270.689 600.884L264.84 604.954L258.973 600.884L258.973 592.742L264.84 588.671L270.689 592.742Z" fill="#2F36AB"/>
<path d="M267.935 743.663L267.935 747.972L264.84 750.115L261.744 747.972L261.744 743.663L264.84 741.498L267.935 743.663Z" fill="#2F36AB"/>
<path d="M374.439 371.753L374.439 374.892L372.172 376.473L369.922 374.892L369.922 371.753L372.172 370.194L374.439 371.753Z" fill="#2F36AB"/>
<path d="M0.594605 35.2014L0.594605 40.9177L-3.52665 43.7759L-7.6479 40.9177L-7.6479 35.2014L-3.52665 32.3432L0.594605 35.2014Z" fill="#2F36AB"/>
<path d="M54.7106 370.15L54.7106 376.494L50.1395 379.656L45.5863 376.494L45.5863 370.15L50.1395 366.989L54.7106 370.15Z" fill="#2F36AB"/>
<path d="M51.7767 446.693L51.7767 448.945L50.1391 450.071L48.5193 448.945L48.5193 446.693L50.1391 445.567L51.7767 446.693Z" fill="#2F36AB"/>
<path d="M54.2786 519.447L54.2786 525.185L50.1394 528.065L46.0181 525.185L46.0181 519.447L50.1394 516.589L54.2786 519.447Z" fill="#2F36AB"/>
<path d="M52.3169 967.792L52.3169 970.802L50.1393 972.318L47.9797 970.802L47.9797 967.792L50.1393 966.298L52.3169 967.792Z" fill="#2F36AB"/>
<path d="M54.6924 1040.63L54.6924 1046.96L50.1392 1050.12L45.604 1046.96L45.604 1040.63L50.1392 1037.49L54.6924 1040.63Z" fill="#2F36AB"/>
<path d="M0.414307 705.359L0.414307 710.815L-3.52697 713.565L-7.46824 710.815L-7.46824 705.359L-3.52697 702.609L0.414307 705.359Z" fill="#2F36AB"/>
<path d="M215.079 35.3313L215.079 40.7662L211.155 43.4944L207.25 40.7662L207.25 35.3313L211.155 32.6247L215.079 35.3313Z" fill="#2F36AB"/>
<path d="M161.395 72.6176L161.395 78.0525L157.489 80.7808L153.584 78.0525L153.584 72.6176L157.489 69.911L161.395 72.6176Z" fill="#2F36AB"/>
<path d="M106.973 110.315L106.973 114.689L103.823 116.898L100.656 114.689L100.656 110.315L103.823 108.128L106.973 110.315Z" fill="#2F36AB"/>
<path d="M106.613 631.696L106.613 635.572L103.823 637.52L101.034 635.572L101.034 631.696L103.823 629.769L106.613 631.696Z" fill="#2F36AB"/>
<path d="M105.677 706.81L105.677 709.386L103.823 710.664L101.969 709.386L101.969 706.81L103.823 705.51L105.677 706.81Z" fill="#2F36AB"/>
<path d="M105.893 781.101L105.893 783.981L103.823 785.431L101.736 783.981L101.736 781.101L103.823 779.65L105.893 781.101Z" fill="#2F36AB"/>
<path d="M107.405 854.482L107.405 859.484L103.823 861.974L100.224 859.484L100.224 854.482L103.823 851.992L107.405 854.482Z" fill="#2F36AB"/>
<path d="M106.955 929.272L106.955 933.602L103.823 935.789L100.692 933.602L100.692 929.272L103.823 927.085L106.955 929.272Z" fill="#2F36AB"/>
<path d="M374.439 148.273L374.439 151.413L372.172 152.972L369.922 151.413L369.922 148.273L372.172 146.692L374.439 148.273Z" fill="#2F36AB"/>
<path d="M375.141 222.283L375.141 226.375L372.171 228.432L369.22 226.375L369.22 222.283L372.171 220.226L375.141 222.283Z" fill="#2F36AB"/>
<path d="M376.095 594.106L376.095 599.541L372.171 602.248L368.266 599.541L368.266 594.106L372.171 591.378L376.095 594.106Z" fill="#2F36AB"/>
<path d="M323.94 183.178L323.94 190.734L318.505 194.502L313.07 190.734L313.07 183.178L318.505 179.41L323.94 183.178Z" fill="#2F36AB"/>
<path d="M322.555 258.595L322.555 264.203L318.506 267.018L314.474 264.203L314.474 258.595L318.506 255.78L322.555 258.595Z" fill="#2F36AB"/>
<path d="M322.897 332.799L322.897 338.905L318.506 341.937L314.133 338.905L314.133 332.799L318.506 329.768L322.897 332.799Z" fill="#2F36AB"/>
<path d="M321.151 631.804L321.151 635.485L318.506 637.325L315.86 635.485L315.86 631.804L318.506 629.963L321.151 631.804Z" fill="#2F36AB"/>
<path d="M321.511 780.451L321.511 784.63L318.506 786.73L315.5 784.63L315.5 780.451L318.506 778.351L321.511 780.451Z" fill="#2F36AB"/>
<path d="M483.373 72.6611L483.373 78.0094L479.522 80.6943L475.67 78.0094L475.67 72.6611L479.522 69.9762L483.373 72.6611Z" fill="#2F36AB"/>
<path d="M483.211 445.264L483.211 450.374L479.522 452.951L475.832 450.374L475.832 445.264L479.522 442.709L483.211 445.264Z" fill="#2F36AB"/>
<path d="M430.337 258.291L430.337 264.527L425.856 267.624L421.375 264.527L421.375 258.291L425.856 255.173L430.337 258.291Z" fill="#2F36AB"/>
<path d="M427.943 334.401L427.943 337.303L425.856 338.754L423.75 337.303L423.75 334.401L425.856 332.951L427.943 334.401Z" fill="#2F36AB"/>
<path d="M589.751 147.84L589.751 151.846L586.872 153.838L583.992 151.846L583.992 147.84L586.872 145.826L589.751 147.84Z" fill="#2F36AB"/>
</g>
</svg>
