<svg width="141" height="181" viewBox="0 0 141 181" fill="none" xmlns="http://www.w3.org/2000/svg">
<g clip-path="url(#clip0_48_824)">
<path d="M5.38 2.69C5.38 4.17 4.18 5.38 2.69 5.38C1.2 5.38 0 4.18 0 2.69C0 1.2 1.21 0 2.69 0C4.17 0 5.38 1.21 5.38 2.69Z" fill="#2F36AB" fill-opacity="0.5"/>
<path d="M46.5999 0C45.1099 0 43.9099 1.21 43.9099 2.69C43.9099 4.17 45.1099 5.38 46.5999 5.38C48.0899 5.38 49.2899 4.17 49.2899 2.69C49.2899 1.21 48.0899 0 46.5999 0Z" fill="#2F36AB" fill-opacity="0.5"/>
<path d="M90.5101 0C89.0301 0 87.8201 1.21 87.8201 2.69C87.8201 4.17 89.0301 5.38 90.5101 5.38C91.9901 5.38 93.2101 4.17 93.2101 2.69C93.2101 1.21 92.0001 0 90.5101 0Z" fill="#2F36AB" fill-opacity="0.5"/>
<path d="M134.41 0C132.92 0 131.72 1.21 131.72 2.69C131.72 4.17 132.92 5.38 134.41 5.38C135.9 5.38 137.11 4.17 137.11 2.69C137.11 1.21 135.9 0 134.41 0Z" fill="#2F36AB" fill-opacity="0.5"/>
<path d="M2.69 43.8999C1.21 43.8999 0 45.1099 0 46.5899C0 48.0699 1.21 49.2799 2.69 49.2799C4.17 49.2799 5.38 48.0699 5.38 46.5899C5.38 45.1099 4.18 43.8999 2.69 43.8999Z" fill="#2F36AB" fill-opacity="0.5"/>
<path d="M46.5999 43.8999C45.1099 43.8999 43.9099 45.1099 43.9099 46.5899C43.9099 48.0699 45.1099 49.2799 46.5999 49.2799C48.0899 49.2799 49.2899 48.0699 49.2899 46.5899C49.2899 45.1099 48.0899 43.8999 46.5999 43.8999Z" fill="#2F36AB" fill-opacity="0.5"/>
<path d="M90.5101 43.8999C89.0301 43.8999 87.8201 45.1099 87.8201 46.5899C87.8201 48.0699 89.0301 49.2799 90.5101 49.2799C91.9901 49.2799 93.2101 48.0699 93.2101 46.5899C93.2101 45.1099 92.0001 43.8999 90.5101 43.8999Z" fill="#2F36AB" fill-opacity="0.5"/>
<path d="M134.41 43.8999C132.92 43.8999 131.72 45.1099 131.72 46.5899C131.72 48.0699 132.92 49.2799 134.41 49.2799C135.9 49.2799 137.11 48.0699 137.11 46.5899C137.11 45.1099 135.9 43.8999 134.41 43.8999Z" fill="#2F36AB" fill-opacity="0.5"/>
<path d="M2.69 87.8101C1.21 87.8101 0 89.0101 0 90.5001C0 91.9901 1.21 93.1901 2.69 93.1901C4.17 93.1901 5.38 91.9901 5.38 90.5001C5.38 89.0101 4.18 87.8101 2.69 87.8101Z" fill="#2F36AB" fill-opacity="0.5"/>
<path d="M46.5999 87.8101C45.1099 87.8101 43.9099 89.0101 43.9099 90.5001C43.9099 91.9901 45.1099 93.1901 46.5999 93.1901C48.0899 93.1901 49.2899 91.9901 49.2899 90.5001C49.2899 89.0101 48.0899 87.8101 46.5999 87.8101Z" fill="#2F36AB" fill-opacity="0.5"/>
<path d="M90.5101 87.8101C89.0301 87.8101 87.8201 89.0101 87.8201 90.5001C87.8201 91.9901 89.0301 93.1901 90.5101 93.1901C91.9901 93.1901 93.2101 91.9901 93.2101 90.5001C93.2101 89.0101 92.0001 87.8101 90.5101 87.8101Z" fill="#2F36AB" fill-opacity="0.5"/>
<path d="M134.41 87.8101C132.92 87.8101 131.72 89.0101 131.72 90.5001C131.72 91.9901 132.92 93.1901 134.41 93.1901C135.9 93.1901 137.11 91.9901 137.11 90.5001C137.11 89.0101 135.9 87.8101 134.41 87.8101Z" fill="#2F36AB" fill-opacity="0.5"/>
<path d="M2.69 131.72C1.21 131.72 0 132.93 0 134.41C0 135.89 1.21 137.1 2.69 137.1C4.17 137.1 5.38 135.89 5.38 134.41C5.38 132.93 4.18 131.72 2.69 131.72Z" fill="#2F36AB" fill-opacity="0.5"/>
<path d="M46.5999 131.72C45.1099 131.72 43.9099 132.93 43.9099 134.41C43.9099 135.89 45.1099 137.1 46.5999 137.1C48.0899 137.1 49.2899 135.89 49.2899 134.41C49.2899 132.93 48.0899 131.72 46.5999 131.72Z" fill="#2F36AB" fill-opacity="0.5"/>
<path d="M90.5101 131.72C89.0301 131.72 87.8201 132.93 87.8201 134.41C87.8201 135.89 89.0301 137.1 90.5101 137.1C91.9901 137.1 93.2101 135.89 93.2101 134.41C93.2101 132.93 92.0001 131.72 90.5101 131.72Z" fill="#2F36AB" fill-opacity="0.5"/>
<path d="M134.41 131.72C132.92 131.72 131.72 132.93 131.72 134.41C131.72 135.89 132.92 137.1 134.41 137.1C135.9 137.1 137.11 135.89 137.11 134.41C137.11 132.93 135.9 131.72 134.41 131.72Z" fill="#2F36AB" fill-opacity="0.5"/>
<path d="M2.69 175.62C1.21 175.62 0 176.83 0 178.32C0 179.81 1.21 181.01 2.69 181.01C4.17 181.01 5.38 179.81 5.38 178.32C5.38 176.83 4.18 175.62 2.69 175.62Z" fill="#2F36AB" fill-opacity="0.5"/>
<path d="M46.5999 175.62C45.1099 175.62 43.9099 176.83 43.9099 178.32C43.9099 179.81 45.1099 181.01 46.5999 181.01C48.0899 181.01 49.2899 179.81 49.2899 178.32C49.2899 176.83 48.0899 175.62 46.5999 175.62Z" fill="#2F36AB" fill-opacity="0.5"/>
<path d="M90.5101 175.62C89.0301 175.62 87.8201 176.83 87.8201 178.32C87.8201 179.81 89.0301 181.01 90.5101 181.01C91.9901 181.01 93.2101 179.81 93.2101 178.32C93.2101 176.83 92.0001 175.62 90.5101 175.62Z" fill="#2F36AB" fill-opacity="0.5"/>
<path d="M134.41 175.62C132.92 175.62 131.72 176.83 131.72 178.32C131.72 179.81 132.92 181.01 134.41 181.01C135.9 181.01 137.11 179.81 137.11 178.32C137.11 176.83 135.9 175.62 134.41 175.62Z" fill="#2F36AB" fill-opacity="0.5"/>
</g>
<defs>
<clipPath id="clip0_48_824">
<rect width="181.01" height="181" fill="white"/>
</clipPath>
</defs>
</svg>
