<svg width="406" height="1235" viewBox="0 0 406 1235" fill="none" xmlns="http://www.w3.org/2000/svg">
<g style="mix-blend-mode:overlay" opacity="0.2" clip-path="url(#clip0_48_613)">
<path opacity="0.5" d="M69.7316 39.7805L70.0089 39.9422L139.186 79.8845L139.186 160.069L138.909 160.231L69.7316 200.173L69.4543 200.012L0.277225 160.069L0.277232 79.8845L0.554484 79.7228L69.7316 39.7805ZM138.1 80.5082L69.7316 41.051L1.36317 80.5082L1.36316 159.423L69.7316 198.88L138.1 159.423L138.1 80.5082Z" fill="#D0D9DD"/>
<path opacity="0.5" d="M69.7316 119.342L70.0089 119.503L139.186 159.446L139.186 239.631L138.909 239.792L69.7316 279.734L69.4543 279.573L0.277225 239.631L0.277232 159.446L0.554484 159.284L69.7316 119.342ZM138.1 160.069L69.7316 120.612L1.36317 160.069L1.36316 238.984L69.7316 278.441L138.1 238.984L138.1 160.069Z" fill="#D0D9DD"/>
<path opacity="0.5" d="M69.7316 198.903L70.0089 199.064L139.186 239.007L139.186 319.192L138.909 319.353L69.7316 359.296L69.4543 359.134L0.277225 319.192L0.277232 239.007L0.554484 238.845L69.7316 198.903ZM138.1 239.631L69.7316 200.173L1.36317 239.631L1.36316 318.545L69.7316 358.002L138.1 318.545L138.1 239.631Z" fill="#D0D9DD"/>
<path opacity="0.5" d="M69.7316 437.563L70.0089 437.725L139.186 477.667L139.186 557.852L138.909 558.014L69.7316 597.956L69.4543 597.794L0.277225 557.852L0.277232 477.667L0.554484 477.505L69.7316 437.563ZM138.1 478.291L69.7316 438.834L1.36317 478.291L1.36316 557.205L69.7316 596.662L138.1 557.205L138.1 478.291Z" fill="#D0D9DD"/>
<path opacity="0.5" d="M69.7316 596.662L70.0089 596.824L139.186 636.767L139.186 716.951L138.909 717.113L69.7316 757.055L0.277225 716.951L0.277232 636.767L0.554484 636.605L69.7316 596.662ZM138.1 637.39L69.7316 597.933L1.36317 637.39L1.36316 716.305L69.7316 755.762L138.1 716.305L138.1 637.39Z" fill="#D0D9DD"/>
<path opacity="0.5" d="M69.7316 835.346L139.186 875.45L139.186 955.635L138.909 955.796L69.7316 995.739L0.277225 955.635L0.277232 875.45L0.554484 875.288L69.7316 835.346ZM138.1 876.074L69.7316 836.616L1.36317 876.074L1.36316 954.988L69.7316 994.445L138.1 954.988L138.1 876.074Z" fill="#D0D9DD"/>
<path opacity="0.5" d="M69.7316 914.884L139.186 954.988L139.186 1035.17L138.909 1035.33L69.7316 1075.28L0.277225 1035.17L0.277232 954.988L0.554484 954.826L69.7316 914.884ZM138.1 955.612L69.7316 916.155L1.36317 955.612L1.36316 1034.53L69.7316 1073.98L138.1 1034.53L138.1 955.612Z" fill="#D0D9DD"/>
<path opacity="0.5" d="M69.7316 1074.01L139.186 1114.11L139.186 1194.3L138.909 1194.46L69.7316 1234.38L0.277225 1194.27L0.277232 1114.09L0.554484 1113.93L69.7316 1073.98L69.7316 1074.01ZM138.1 1114.73L69.7316 1075.28L1.36317 1114.73L1.36316 1193.65L69.7316 1233.11L138.1 1193.65L138.1 1114.73Z" fill="#D0D9DD"/>
<path opacity="0.5" d="M138.655 9.18689e-06L138.932 0.1616L208.109 40.104L208.109 120.289L207.832 120.451L138.655 160.393L138.377 160.231L69.2003 120.289L69.2003 40.104L69.4776 39.9422L138.655 9.18689e-06ZM207.023 40.7278L138.655 1.27055L70.2863 40.7277L70.2863 119.642L138.655 159.099L207.023 119.642L207.023 40.7278Z" fill="#D0D9DD"/>
<path opacity="0.5" d="M138.655 79.5611L138.932 79.7228L208.109 119.665L208.109 199.85L207.832 200.012L138.655 239.954L138.377 239.792L69.2003 199.85L69.2003 119.665L69.4776 119.503L138.655 79.5611ZM207.023 120.289L138.655 80.8317L70.2863 120.289L70.2863 199.203L138.655 238.66L207.023 199.203L207.023 120.289Z" fill="#D0D9DD"/>
<path opacity="0.5" d="M138.655 318.221L138.932 318.383L208.109 358.326L208.109 438.51L207.832 438.672L138.655 478.614L138.377 478.453L69.2003 438.51L69.2003 358.326L69.4776 358.164L138.655 318.221ZM207.023 358.949L138.655 319.492L70.2863 358.949L70.2863 437.864L138.655 477.321L207.023 437.864L207.023 358.949Z" fill="#D0D9DD"/>
<path opacity="0.5" d="M138.655 397.783L138.932 397.944L208.109 437.887L208.109 518.071L207.832 518.233L138.655 558.175L138.377 558.014L69.2003 518.071L69.2003 437.887L69.4776 437.725L138.655 397.783ZM207.023 438.51L138.655 399.053L70.2863 438.51L70.2863 517.425L138.655 556.882L207.023 517.425L207.023 438.51Z" fill="#D0D9DD"/>
<path opacity="0.5" d="M138.655 716.004L208.109 756.108L208.109 836.293L207.832 836.455L138.655 876.397L69.2003 836.293L69.2003 756.108L69.4776 755.947L138.655 716.004ZM207.023 756.732L138.655 717.275L70.2863 756.732L70.2863 835.646L138.655 875.104L207.023 835.646L207.023 756.732Z" fill="#D0D9DD"/>
<path opacity="0.5" d="M138.655 795.565L208.109 835.669L208.109 915.854L207.832 916.016L138.655 955.958L69.2003 915.854L69.2003 835.669L69.4776 835.508L138.655 795.565ZM207.023 836.293L138.655 796.836L70.2863 836.293L70.2863 915.207L138.655 954.665L207.023 915.207L207.023 836.293Z" fill="#D0D9DD"/>
<path opacity="0.5" d="M207.555 39.7805L207.832 39.9422L277.009 79.8845L277.009 160.069L276.732 160.231L207.555 200.173L207.277 200.012L138.1 160.069L138.1 79.8845L138.377 79.7228L207.555 39.7805ZM275.923 80.5082L207.555 41.051L139.186 80.5082L139.186 159.423L207.555 198.88L275.923 159.423L275.923 80.5082Z" fill="#D0D9DD"/>
<path opacity="0.5" d="M207.555 278.464L207.832 278.626L277.009 318.568L277.009 398.753L276.732 398.915L207.555 438.857L207.277 438.695L138.1 398.753L138.1 318.568L138.377 318.406L207.555 278.464ZM275.923 319.192L207.555 279.734L139.186 319.192L139.186 398.106L207.555 437.563L275.923 398.106L275.923 319.192Z" fill="#D0D9DD"/>
<path opacity="0.5" d="M207.555 437.563L207.832 437.725L277.009 477.667L277.009 557.852L276.732 558.014L207.555 597.956L207.277 597.794L138.1 557.852L138.1 477.667L138.377 477.505L207.555 437.563ZM275.923 478.291L207.555 438.834L139.186 478.291L139.186 557.205L207.555 596.662L275.923 557.205L275.923 478.291Z" fill="#D0D9DD"/>
<g opacity="0.5">
<path d="M207.555 994.445L277.009 1034.55L277.009 1114.73L276.732 1114.9L207.555 1154.84L138.1 1114.73L138.1 1034.55L138.377 1034.39L207.555 994.445ZM275.923 1035.17L207.555 995.716L139.186 1035.17L139.186 1114.09L207.555 1153.54L275.923 1114.09L275.923 1035.17Z" fill="#D0D9DD"/>
</g>
<path opacity="0.5" d="M276.455 79.5611L276.732 79.7228L345.909 119.665L345.909 199.85L345.632 200.012L276.455 239.954L276.177 239.792L207 199.85L207 119.665L207.277 119.503L276.455 79.5611ZM344.823 120.289L276.455 80.8317L208.086 120.289L208.086 199.203L276.455 238.66L344.823 199.203L344.823 120.289Z" fill="#D0D9DD"/>
<path opacity="0.5" d="M276.455 159.122L276.732 159.284L345.909 199.226L345.909 279.411L345.632 279.573L276.455 319.515L276.177 319.353L207 279.411L207 199.226L207.277 199.065L276.455 159.122ZM344.823 199.85L276.455 160.393L208.086 199.85L208.086 278.764L276.455 318.221L344.823 278.764L344.823 199.85Z" fill="#D0D9DD"/>
<path opacity="0.5" d="M276.454 397.783L276.732 397.944L345.909 437.887L345.909 518.072L345.631 518.233L276.454 558.176L276.177 558.014L207 518.072L207 437.887L207.277 437.725L276.454 397.783ZM344.823 438.51L276.454 399.053L208.086 438.51L208.086 517.425L276.454 556.882L344.823 517.425L344.823 438.51Z" fill="#D0D9DD"/>
<path opacity="0.5" d="M276.454 477.344L276.732 477.506L345.909 517.448L345.909 597.633L345.631 597.795L276.454 637.737L207 597.633L207 517.448L207.277 517.286L276.454 477.344ZM344.823 518.072L276.454 478.614L208.086 518.072L208.086 596.986L276.454 636.443L344.823 596.986L344.823 518.072Z" fill="#D0D9DD"/>
<path opacity="0.5" d="M276.454 716.004L345.909 756.108L345.909 836.293L345.631 836.455L276.454 876.397L207 836.293L207 756.108L207.277 755.947L276.454 716.004ZM344.823 756.732L276.454 717.275L208.086 756.732L208.086 835.646L276.454 875.104L344.823 835.646L344.823 756.732Z" fill="#D0D9DD"/>
<path opacity="0.5" d="M345.377 39.7806L345.655 39.9423L414.832 79.8846L414.832 160.069L414.555 160.231L345.377 200.173L345.1 200.012L275.923 160.069L275.923 79.8846L276.2 79.7229L345.377 39.7806ZM413.746 80.5083L345.377 41.0511L277.009 80.5083L277.009 159.423L345.377 198.88L413.746 159.423L413.746 80.5083Z" fill="#D0D9DD"/>
<path opacity="0.5" d="M345.377 119.342L345.655 119.503L414.832 159.446L414.832 239.631L414.555 239.792L345.377 279.735L345.1 279.573L275.923 239.631L275.923 159.446L276.2 159.284L345.377 119.342ZM413.746 160.069L345.377 120.612L277.009 160.069L277.009 238.984L345.377 278.441L413.746 238.984L413.746 160.069Z" fill="#D0D9DD"/>
<path opacity="0.5" d="M345.377 198.903L345.655 199.064L414.832 239.007L414.832 319.192L414.555 319.353L345.377 359.296L345.1 359.134L275.923 319.192L275.923 239.007L276.2 238.845L345.377 198.903ZM413.746 239.631L345.377 200.173L277.009 239.631L277.009 318.545L345.377 358.002L413.746 318.545L413.746 239.631Z" fill="#D0D9DD"/>
<path opacity="0.5" d="M345.377 437.563L345.655 437.725L414.832 477.667L414.832 557.852L414.555 558.014L345.377 597.956L345.1 597.795L275.923 557.852L275.923 477.667L276.2 477.506L345.377 437.563ZM413.746 478.291L345.377 438.834L277.009 478.291L277.009 557.205L345.377 596.662L413.746 557.205L413.746 478.291Z" fill="#D0D9DD"/>
<path opacity="0.5" d="M345.377 835.346L414.832 875.45L414.832 955.635L414.555 955.796L345.377 995.739L275.923 955.635L275.923 875.45L276.2 875.288L345.377 835.346ZM413.746 876.074L345.377 836.616L277.009 876.074L277.009 954.988L345.377 994.445L413.746 954.988L413.746 876.074Z" fill="#D0D9DD"/>
<path opacity="0.5" d="M345.377 676.224L414.832 716.328L414.832 796.513L414.555 796.674L345.377 836.617L275.923 796.513L275.923 716.328L276.2 716.166L345.377 676.224ZM413.746 716.952L345.377 677.494L277.009 716.952L277.009 795.866L345.377 835.323L413.746 795.866L413.746 716.952Z" fill="#D0D9DD"/>
<path d="M276.454 317.921L276.87 318.152L346.186 358.164L346.186 438.672L345.77 438.903L276.454 478.915L276.038 478.684L206.723 438.672L206.723 358.164L207.139 357.933L276.454 317.921ZM344.546 359.134L276.454 319.839L208.363 359.134L208.363 437.725L276.454 477.021L344.546 437.725L344.546 359.134Z" fill="white"/>
<path d="M69.7317 357.702L70.1476 357.933L139.463 397.944L139.463 478.453L139.048 478.684L69.7317 518.695L69.3158 518.464L-1.17407e-05 478.453L-4.70241e-06 397.944L0.41595 397.713L69.7317 357.702ZM137.823 398.915L69.7317 359.619L1.64051 398.915L1.64051 477.506L69.7317 516.801L137.823 477.506L137.823 398.915Z" fill="white"/>
<path d="M69.7317 755.461L139.463 795.704L139.463 876.212L139.048 876.443L69.7317 916.455L-1.17407e-05 876.212L-4.70241e-06 795.704L0.41595 795.473L69.7317 755.461ZM137.823 796.674L69.7317 757.379L1.64051 796.674L1.64051 875.265L69.7317 914.56L137.823 875.265L137.823 796.674Z" fill="white"/>
<path d="M345.377 596.362L345.793 596.593L415.109 636.605L415.109 717.113L414.693 717.344L345.377 757.356L275.646 717.113L275.646 636.605L276.062 636.374L345.377 596.362ZM413.469 637.575L345.377 598.28L277.286 637.575L277.286 716.166L345.377 755.461L413.469 716.166L413.469 637.575Z" fill="white"/>
<path d="M345.377 357.702L345.793 357.933L415.109 397.944L415.109 478.453L414.693 478.684L345.377 518.695L344.962 518.464L275.646 478.453L275.646 397.944L276.062 397.713L345.377 357.702ZM413.469 398.915L345.377 359.619L277.286 398.915L277.286 477.506L345.377 516.801L413.469 477.506L413.469 398.915Z" fill="white"/>
<path d="M138.655 556.582L139.07 556.813L208.386 596.824L208.386 677.333L207.97 677.564L138.655 717.575L68.9229 677.333L68.9229 596.824L69.3388 596.593L138.655 556.582ZM206.746 597.795L138.655 558.499L70.5634 597.795L70.5634 676.385L138.655 715.681L206.746 676.385L206.746 597.795Z" fill="white"/>
<path d="M138.655 636.12L208.386 676.362L208.386 756.871L207.97 757.102L138.655 797.113L68.9229 756.871L68.9229 676.362L69.3388 676.131L138.655 636.12ZM206.746 677.333L138.655 638.037L70.5634 677.333L70.5634 755.923L138.655 795.219L206.746 755.924L206.746 677.333Z" fill="white"/>
<path d="M207.554 119.018L207.97 119.249L277.286 159.261L277.286 239.769L276.87 240L207.554 280.012L207.139 279.781L137.823 239.769L137.823 159.261L138.239 159.03L207.554 119.018ZM275.646 160.231L207.554 120.936L139.463 160.231L139.463 238.822L207.554 278.117L275.646 238.822L275.646 160.231Z" fill="white"/>
<path d="M207.554 516.801L207.97 517.032L277.286 557.043L277.286 637.552L276.87 637.783L207.554 677.794L137.823 637.552L137.823 557.043L138.239 556.812L207.554 516.801ZM275.646 558.014L207.554 518.718L139.463 558.014L139.463 636.605L207.554 675.9L275.646 636.605L275.646 558.014Z" fill="white"/>
<path d="M207.554 914.584L277.286 954.826L277.286 1035.33L276.87 1035.57L207.554 1075.58L137.823 1035.33L137.823 954.826L138.239 954.595L207.554 914.584ZM275.646 955.796L207.554 916.501L139.463 955.796L139.463 1034.39L207.554 1073.68L275.646 1034.39L275.646 955.796Z" fill="white"/>
<path d="M276.454 556.582L276.87 556.813L346.186 596.824L346.186 677.333L345.77 677.564L276.454 717.575L206.723 677.333L206.723 596.824L207.139 596.593L276.454 556.582ZM344.546 597.795L276.454 558.499L208.363 597.795L208.363 676.385L276.454 715.681L344.546 676.385L344.546 597.795Z" fill="white"/>
<path d="M276.454 795.242L346.186 835.485L346.186 915.993L345.77 916.224L276.454 956.236L206.723 915.993L206.723 835.485L207.139 835.254L276.454 795.242ZM344.546 836.455L276.454 797.159L208.363 836.455L208.363 915.046L276.454 954.341L344.546 915.046L344.546 836.455Z" fill="white"/>
<path opacity="0.5" d="M141.982 157.759L141.982 161.594L138.655 163.535L135.304 161.594L135.304 157.759L138.655 155.842L141.982 157.759Z" fill="#D0D9DD"/>
<path opacity="0.5" d="M141.889 237.297L141.889 241.017L138.655 242.888L135.42 241.017L135.42 237.297L138.655 235.426L141.889 237.297Z" fill="#D0D9DD"/>
<path opacity="0.5" d="M141.381 317.066L141.381 320.208L138.655 321.802L135.905 320.208L135.905 317.066L138.655 315.496L141.381 317.066Z" fill="#D0D9DD"/>
<path opacity="0.5" d="M140.734 396.928L140.734 399.33L138.655 400.532L136.552 399.33L136.552 396.928L138.655 395.704L140.734 396.928Z" fill="#D0D9DD"/>
<path opacity="0.5" d="M142.467 793.325L142.467 797.737L138.655 799.932L134.819 797.737L134.819 793.325L138.655 791.107L142.467 793.325Z" fill="#D0D9DD"/>
<path opacity="0.5" d="M143.599 1110.6L143.599 1116.31L138.655 1119.17L133.687 1116.31L133.687 1110.6L138.655 1107.73L143.599 1110.6Z" fill="#D0D9DD"/>
<path opacity="0.5" d="M146.21 1188.57L146.21 1197.3L138.655 1201.66L131.076 1197.3L131.076 1188.57L138.655 1184.18L146.21 1188.57Z" fill="#D0D9DD"/>
<path opacity="0.5" d="M73.6367 117.609L73.6367 122.114L69.7319 124.355L65.8271 122.114L65.8271 117.609L69.7319 115.345L73.6367 117.609Z" fill="#D0D9DD"/>
<path opacity="0.5" d="M73.8906 196.893L73.8906 201.675L69.7317 204.078L65.5727 201.675L65.5727 196.893L69.7317 194.49L73.8906 196.893Z" fill="#D0D9DD"/>
<path opacity="0.5" d="M75.2539 275.53L75.2539 281.906L69.7318 285.071L64.2327 281.906L64.2327 275.53L69.7318 272.342L75.2539 275.53Z" fill="#D0D9DD"/>
<path opacity="0.5" d="M75.6003 751.904L75.6003 758.673L69.7317 762.045L63.886 758.673L63.886 751.904L69.7317 748.508L75.6003 751.904Z" fill="#D0D9DD"/>
<path opacity="0.5" d="M73.1052 832.759L73.1052 836.64L69.7319 838.603L66.3816 836.64L66.3816 832.759L69.7319 830.818L73.1052 832.759Z" fill="#D0D9DD"/>
<path opacity="0.5" d="M72.019 912.805L72.019 915.462L69.7316 916.778L67.4442 915.462L67.4442 912.805L69.7316 911.488L72.019 912.805Z" fill="#D0D9DD"/>
<path opacity="0.5" d="M74.7688 990.657L74.7688 996.455L69.7319 999.366L64.718 996.455L64.718 990.657L69.7319 987.769L74.7688 990.657Z" fill="#D0D9DD"/>
<path opacity="0.5" d="M72.0652 1073.29L72.0652 1075.97L69.7316 1077.31L67.4211 1075.97L67.4211 1073.29L69.7316 1071.95L72.0652 1073.29Z" fill="#D0D9DD"/>
<path opacity="0.5" d="M74.6995 1151.33L74.6995 1157.06L69.7318 1159.9L64.7873 1157.06L64.7873 1151.33L69.7318 1148.46L74.6995 1151.33Z" fill="#D0D9DD"/>
<path opacity="0.5" d="M72.458 1230.26L72.458 1233.43L69.7316 1235L67.0051 1233.43L67.0051 1230.26L69.7316 1228.69L72.458 1230.26Z" fill="#D0D9DD"/>
<path opacity="0.5" d="M279.089 78.6833L279.089 81.7095L276.455 83.2112L273.844 81.7095L273.844 78.6833L276.455 77.1817L279.089 78.6833Z" fill="#D0D9DD"/>
<path opacity="0.5" d="M282.809 156.004L282.809 163.35L276.455 167.023L270.101 163.35L270.101 156.004L276.455 152.354L282.809 156.004Z" fill="#D0D9DD"/>
<path opacity="0.5" d="M278.534 237.967L278.534 240.347L276.454 241.548L274.398 240.347L274.398 237.967L276.454 236.766L278.534 237.967Z" fill="#D0D9DD"/>
<path opacity="0.5" d="M283.224 314.733L283.224 322.542L276.455 326.446L269.708 322.542L269.708 314.733L276.455 310.852L283.224 314.733Z" fill="#D0D9DD"/>
<path opacity="0.5" d="M278.395 714.942L278.395 717.159L276.454 718.268L274.537 717.159L274.537 714.942L276.454 713.81L278.395 714.942Z" fill="#D0D9DD"/>
<path opacity="0.5" d="M278.049 794.595L278.049 796.443L276.455 797.367L274.86 796.443L274.86 794.595L276.455 793.671L278.049 794.595Z" fill="#D0D9DD"/>
<path opacity="0.5" d="M281.168 872.285L281.168 877.737L276.455 880.463L271.741 877.737L271.741 872.285L276.455 869.559L281.168 872.285Z" fill="#D0D9DD"/>
<path opacity="0.5" d="M281.26 951.708L281.26 957.252L276.454 960.024L271.672 957.252L271.672 951.708L276.454 948.935L281.26 951.708Z" fill="#D0D9DD"/>
<path opacity="0.5" d="M210.396 197.655L210.396 200.913L207.555 202.553L204.713 200.913L204.713 197.655L207.555 196.015L210.396 197.655Z" fill="#D0D9DD"/>
<path opacity="0.5" d="M210.05 356.708L210.05 359.573L207.555 361.005L205.059 359.573L205.059 356.708L207.555 355.253L210.05 356.708Z" fill="#D0D9DD"/>
<path opacity="0.5" d="M209.218 436.616L209.218 438.534L207.555 439.481L205.891 438.534L205.891 436.616L207.555 435.646L209.218 436.616Z" fill="#D0D9DD"/>
<path opacity="0.5" d="M211.182 594.329L211.182 598.511L207.555 600.613L203.927 598.511L203.927 594.329L207.555 592.227L211.182 594.329Z" fill="#D0D9DD"/>
<path opacity="0.5" d="M209.403 674.791L209.403 676.917L207.555 677.979L205.706 676.917L205.706 674.791L207.555 673.729L209.403 674.791Z" fill="#D0D9DD"/>
<path opacity="0.5" d="M211.113 832.643L211.113 836.755L207.555 838.811L203.996 836.755L203.996 832.643L207.555 830.61L211.113 832.643Z" fill="#D0D9DD"/>
<path opacity="0.5" d="M213.4 1150.82L213.4 1157.56L207.555 1160.94L201.709 1157.56L201.709 1150.82L207.555 1147.45L213.4 1150.82Z" fill="#D0D9DD"/>
<path opacity="0.5" d="M351.57 195.692L351.57 202.876L345.377 206.457L339.162 202.876L339.162 195.692L345.377 192.111L351.57 195.692Z" fill="#D0D9DD"/>
<path opacity="0.5" d="M348.15 277.101L348.15 280.312L345.377 281.906L342.605 280.312L342.605 277.101L345.377 275.507L348.15 277.101Z" fill="#D0D9DD"/>
<path opacity="0.5" d="M348.219 356.501L348.219 359.781L345.378 361.444L342.512 359.781L342.512 356.501L345.378 354.837L348.219 356.501Z" fill="#D0D9DD"/>
<path opacity="0.5" d="M348.358 435.854L348.358 439.296L345.378 441.005L342.397 439.296L342.397 435.854L345.378 434.121L348.358 435.854Z" fill="#D0D9DD"/>
<path opacity="0.5" d="M348.335 515.276L348.335 518.695L345.377 520.405L342.397 518.695L342.397 515.276L345.377 513.567L348.335 515.276Z" fill="#D0D9DD"/>
<path opacity="0.5" d="M349.375 594.121L349.375 598.719L345.378 601.029L341.38 598.719L341.38 594.121L345.378 591.811L349.375 594.121Z" fill="#D0D9DD"/>
<path d="M71.8574 39.203L71.8574 41.6518L69.7318 42.8762L67.6061 41.6518L67.6061 39.203L69.7318 37.9787L71.8574 39.203Z" fill="white"/>
<path d="M146.742 472.931L146.742 482.264L138.655 486.931L130.568 482.264L130.568 472.931L138.655 468.265L146.742 472.931Z" fill="white"/>
<path d="M142.444 554.895L142.444 559.261L138.655 561.456L134.866 559.261L134.866 554.895L138.655 552.701L142.444 554.895Z" fill="white"/>
<path d="M141.058 635.172L141.058 637.968L138.655 639.354L136.229 637.968L136.229 635.172L138.655 633.763L141.058 635.172Z" fill="white"/>
<path d="M142.883 713.602L142.883 718.476L138.655 720.925L134.427 718.476L134.427 713.602L138.655 711.153L142.883 713.602Z" fill="white"/>
<path d="M141.011 873.625L141.011 876.374L138.655 877.76L136.275 876.374L136.275 873.625L138.655 872.262L141.011 873.625Z" fill="white"/>
<path d="M142.883 952.054L142.883 956.929L138.655 959.377L134.403 956.929L134.403 952.054L138.655 949.606L142.883 952.054Z" fill="white"/>
<path d="M142.49 1031.75L142.49 1036.19L138.655 1038.41L134.796 1036.19L134.796 1031.75L138.655 1029.51L142.49 1031.75Z" fill="white"/>
<path d="M73.0359 356.246L73.0359 360.035L69.7319 361.929L66.4509 360.035L66.4509 356.246L69.7319 354.352L73.0359 356.246Z" fill="white"/>
<path d="M74.2373 434.976L74.2373 440.174L69.7318 442.761L65.2263 440.174L65.2263 434.976L69.7318 432.365L74.2373 434.976Z" fill="white"/>
<path d="M73.4285 514.86L73.4285 519.134L69.7317 521.26L66.0348 519.134L66.0348 514.86L69.7317 512.735L73.4285 514.86Z" fill="white"/>
<path d="M72.4812 594.838L72.4812 598.002L69.7317 599.596L66.9821 598.002L66.9821 594.838L69.7317 593.244L72.4812 594.838Z" fill="white"/>
<path d="M212.846 37.3779L212.846 43.4766L207.555 46.526L202.263 43.4766L202.263 37.3779L207.555 34.3285L212.846 37.3779Z" fill="white"/>
<path d="M282.323 394.733L282.323 401.502L276.455 404.875L270.609 401.502L270.609 394.733L276.455 391.361L282.323 394.733Z" fill="white"/>
<path d="M278.557 476.397L278.557 478.799L276.455 480.001L274.375 478.799L274.375 476.397L276.455 475.196L278.557 476.397Z" fill="white"/>
<path d="M281.769 554.017L281.769 560.139L276.454 563.212L271.163 560.139L271.163 554.017L276.454 550.968L281.769 554.017Z" fill="white"/>
<path d="M279.25 1032.35L279.25 1035.57L276.455 1037.18L273.682 1035.57L273.682 1032.35L276.455 1030.76L279.25 1032.35Z" fill="white"/>
<path d="M282.3 1110.07L282.3 1116.81L276.454 1120.19L270.632 1116.81L270.632 1110.07L276.454 1106.72L282.3 1110.07Z" fill="white"/>
<path d="M209.773 118.579L209.773 121.144L207.555 122.414L205.337 121.144L205.337 118.579L207.555 117.286L209.773 118.579Z" fill="white"/>
<path d="M211.621 276.362L211.621 281.051L207.555 283.408L203.488 281.051L203.488 276.362L207.555 274.006L211.621 276.362Z" fill="white"/>
<path d="M209.472 515.877L209.472 518.118L207.555 519.227L205.637 518.118L205.637 515.877L207.555 514.768L209.472 515.877Z" fill="white"/>
<path d="M212.615 752.366L212.615 758.187L207.555 761.121L202.495 758.187L202.495 752.366L207.555 749.432L212.615 752.366Z" fill="white"/>
<path d="M211.806 911.673L211.806 916.594L207.555 919.065L203.303 916.594L203.303 911.673L207.555 909.224L211.806 911.673Z" fill="white"/>
<path d="M209.75 992.297L209.75 994.838L207.555 996.108L205.36 994.838L205.36 992.297L207.555 991.026L209.75 992.297Z" fill="white"/>
<path d="M209.981 1073.24L209.981 1076.04L207.555 1077.43L205.129 1076.04L205.129 1073.24L207.555 1071.83L209.981 1073.24Z" fill="white"/>
<path d="M349.421 117.517L349.421 122.183L345.377 124.54L341.311 122.183L341.311 117.517L345.377 115.184L349.421 117.517Z" fill="white"/>
<path d="M348.959 673.775L348.959 677.91L345.377 679.989L341.796 677.91L341.796 673.775L345.377 671.719L348.959 673.775Z" fill="white"/>
<path d="M347.757 753.914L347.757 756.663L345.377 758.026L342.998 756.663L342.998 753.914L345.377 752.527L347.757 753.914Z" fill="white"/>
<path d="M348.034 833.174L348.034 836.247L345.377 837.795L342.697 836.247L342.697 833.174L345.377 831.627L348.034 833.174Z" fill="white"/>
<path d="M349.975 911.465L349.975 916.802L345.377 919.458L340.756 916.802L340.756 911.465L345.377 908.809L349.975 911.465Z" fill="white"/>
<path d="M349.398 991.257L349.398 995.877L345.377 998.211L341.357 995.877L341.357 991.257L345.377 988.924L349.398 991.257Z" fill="white"/>
</g>
<defs>
<clipPath id="clip0_48_613">
<rect width="1035" height="1235" fill="white" transform="translate(1035 1235) rotate(-180)"/>
</clipPath>
</defs>
</svg>
