<svg width="430" height="843" viewBox="0 0 430 843" fill="none" xmlns="http://www.w3.org/2000/svg">
<g opacity="0.25">
<path opacity="0.5" d="M395.088 165.102L395.247 165.213L434.781 192.682L434.781 247.827L434.623 247.938L395.088 275.407L394.93 275.296L355.395 247.827L355.395 192.682L355.554 192.571L395.088 165.102ZM434.161 193.111L395.088 165.976L356.016 193.111L356.016 247.382L395.088 274.518L434.161 247.382L434.161 193.111Z" fill="#2F36AB"/>
<path opacity="0.5" d="M40.6636 28.3123L40.8221 28.4235L80.3567 55.8926L80.3567 111.037L80.1982 111.149L40.6636 138.618L40.5051 138.506L0.97056 111.037L0.970563 55.8926L1.12901 55.7814L40.6636 28.3123ZM79.7361 56.3216L40.6636 29.186L1.59118 56.3216L1.59118 110.593L40.6636 137.728L79.7361 110.593L79.7361 56.3216Z" fill="#2F36AB"/>
<path opacity="0.5" d="M40.6636 83.0283L40.8221 83.1396L80.3567 110.609L80.3567 165.753L80.1982 165.865L40.6636 193.334L40.5051 193.223L0.97056 165.753L0.970563 110.609L1.12901 110.497L40.6636 83.0283ZM79.7361 111.038L40.6636 83.9021L1.59118 111.038L1.59118 165.309L40.6636 192.444L79.7361 165.309L79.7361 111.038Z" fill="#2F36AB"/>
<path opacity="0.5" d="M40.6636 137.744L40.8221 137.855L80.3567 165.324L80.3567 220.469L80.1982 220.58L40.6636 248.049L40.5051 247.938L0.97056 220.469L0.970563 165.324L1.12901 165.213L40.6636 137.744ZM79.7361 165.753L40.6636 138.618L1.59118 165.753L1.59118 220.024L40.6636 247.16L79.7361 220.024L79.7361 165.753Z" fill="#2F36AB"/>
<path opacity="0.5" d="M40.6636 301.876L40.8221 301.987L80.3567 329.456L80.3567 384.601L80.1982 384.712L40.6636 412.181L40.5051 412.07L0.97056 384.601L0.970563 329.456L1.12901 329.345L40.6636 301.876ZM79.7361 329.885L40.6636 302.75L1.59118 329.885L1.59118 384.156L40.6636 411.291L79.7361 384.156L79.7361 329.885Z" fill="#2F36AB"/>
<path opacity="0.5" d="M40.6636 411.291L40.8221 411.402L80.3567 438.872L80.3567 494.016L80.1982 494.128L40.6636 521.597L0.97056 494.016L0.970563 438.872L1.12901 438.76L40.6636 411.291ZM79.7361 439.301L40.6636 412.165L1.59118 439.301L1.59118 493.572L40.6636 520.707L79.7361 493.572L79.7361 439.301Z" fill="#2F36AB"/>
<path opacity="0.5" d="M40.6636 575.439L80.3567 603.019L80.3567 658.164L80.1982 658.275L40.6636 685.744L0.97056 658.164L0.970563 603.019L1.12901 602.908L40.6636 575.439ZM79.7361 603.448L40.6636 576.313L1.59118 603.448L1.59118 657.719L40.6636 684.854L79.7361 657.719L79.7361 603.448Z" fill="#2F36AB"/>
<path opacity="0.5" d="M40.6636 630.138L80.3567 657.719L80.3567 712.864L80.1982 712.975L40.6636 740.444L0.97056 712.864L0.970563 657.719L1.12901 657.608L40.6636 630.138ZM79.7361 658.148L40.6636 631.012L1.59118 658.148L1.59118 712.419L40.6636 739.554L79.7361 712.419L79.7361 658.148Z" fill="#2F36AB"/>
<path opacity="0.5" d="M40.6636 739.57L80.3567 767.151L80.3567 822.295L80.1982 822.407L40.6636 849.86L0.97056 822.28L0.970564 767.135L1.12901 767.024L40.6636 739.554L40.6636 739.57ZM79.7361 767.58L40.6636 740.444L1.59118 767.58L1.59118 821.851L40.6636 848.986L79.7361 821.851L79.7361 767.58Z" fill="#2F36AB"/>
<path opacity="0.5" d="M80.053 0.954661L80.2115 1.06578L119.746 28.535L119.746 83.6797L119.588 83.7909L80.053 111.26L79.8946 111.149L40.36 83.6797L40.36 28.535L40.5184 28.4237L80.053 0.954661ZM119.125 28.964L80.053 1.82844L40.9806 28.9639L40.9806 83.2349L80.053 110.37L119.125 83.2349L119.125 28.964Z" fill="#2F36AB"/>
<path opacity="0.5" d="M80.053 55.6704L80.2115 55.7816L119.746 83.2508L119.746 138.396L119.588 138.507L80.053 165.976L79.8946 165.865L40.36 138.396L40.36 83.2508L40.5184 83.1395L80.053 55.6704ZM119.125 83.6797L80.053 56.5443L40.9806 83.6797L40.9806 137.951L80.053 165.086L119.125 137.951L119.125 83.6797Z" fill="#2F36AB"/>
<path opacity="0.5" d="M80.053 219.802L80.2115 219.913L119.746 247.382L119.746 302.527L119.588 302.638L80.053 330.107L79.8946 329.996L40.36 302.527L40.36 247.382L40.5184 247.271L80.053 219.802ZM119.125 247.811L80.053 220.676L40.9806 247.811L40.9806 302.082L80.053 329.218L119.125 302.082L119.125 247.811Z" fill="#2F36AB"/>
<path opacity="0.5" d="M80.053 274.517L80.2115 274.629L119.746 302.098L119.746 357.242L119.588 357.354L80.053 384.823L79.8946 384.712L40.36 357.242L40.36 302.098L40.5184 301.986L80.053 274.517ZM119.125 302.527L80.053 275.391L40.9806 302.527L40.9806 356.798L80.053 383.933L119.125 356.798L119.125 302.527Z" fill="#2F36AB"/>
<path opacity="0.5" d="M80.053 493.365L119.746 520.945L119.746 576.09L119.588 576.201L80.053 603.67L40.36 576.09L40.36 520.945L40.5184 520.834L80.053 493.365ZM119.125 521.374L80.053 494.239L40.9806 521.374L40.9806 575.645L80.053 602.781L119.125 575.645L119.125 521.374Z" fill="#2F36AB"/>
<path opacity="0.5" d="M80.053 548.081L119.746 575.661L119.746 630.806L119.588 630.917L80.053 658.386L40.36 630.806L40.36 575.661L40.5184 575.55L80.053 548.081ZM119.125 576.09L80.053 548.955L40.9806 576.09L40.9806 630.361L80.053 657.497L119.125 630.361L119.125 576.09Z" fill="#2F36AB"/>
<path opacity="0.5" d="M119.429 28.3125L119.588 28.4237L159.122 55.8929L159.122 111.038L158.964 111.149L119.429 138.618L119.271 138.507L79.7362 111.038L79.7362 55.8929L79.8946 55.7816L119.429 28.3125ZM158.502 56.3218L119.429 29.1863L80.3568 56.3218L80.3568 110.593L119.429 137.728L158.502 110.593L158.502 56.3218Z" fill="#2F36AB"/>
<path opacity="0.5" d="M119.429 192.46L119.588 192.571L159.122 220.04L159.122 275.185L158.964 275.296L119.429 302.765L119.271 302.654L79.7362 275.185L79.7362 220.04L79.8946 219.929L119.429 192.46ZM158.502 220.469L119.429 193.334L80.3568 220.469L80.3568 274.74L119.429 301.875L158.502 274.74L158.502 220.469Z" fill="#2F36AB"/>
<path opacity="0.5" d="M119.429 301.876L119.588 301.987L159.122 329.456L159.122 384.601L158.964 384.712L119.429 412.181L119.271 412.07L79.7362 384.601L79.7362 329.456L79.8946 329.345L119.429 301.876ZM158.502 329.885L119.429 302.75L80.3568 329.885L80.3568 384.156L119.429 411.291L158.502 384.156L158.502 329.885Z" fill="#2F36AB"/>
<g opacity="0.5">
<path d="M119.429 684.854L159.122 712.435L159.122 767.579L158.964 767.691L119.429 795.16L79.7362 767.579L79.7362 712.435L79.8946 712.323L119.429 684.854ZM158.502 712.864L119.429 685.728L80.3568 712.864L80.3568 767.134L119.429 794.27L158.502 767.135L158.502 712.864Z" fill="#2F36AB"/>
</g>
<path opacity="0.5" d="M158.805 55.6704L158.964 55.7816L198.498 83.2508L198.498 138.396L198.34 138.507L158.805 165.976L158.647 165.865L119.112 138.396L119.112 83.2508L119.271 83.1395L158.805 55.6704ZM197.878 83.6797L158.805 56.5443L119.733 83.6797L119.733 137.951L158.805 165.086L197.878 137.951L197.878 83.6797Z" fill="#2F36AB"/>
<path opacity="0.5" d="M158.805 110.386L158.964 110.497L198.498 137.967L198.498 193.111L198.34 193.223L158.805 220.692L158.647 220.58L119.112 193.111L119.112 137.967L119.271 137.855L158.805 110.386ZM197.878 138.396L158.805 111.26L119.733 138.396L119.733 192.666L158.805 219.802L197.878 192.667L197.878 138.396Z" fill="#2F36AB"/>
<path opacity="0.5" d="M158.805 274.517L158.964 274.629L198.498 302.098L198.498 357.242L198.34 357.354L158.805 384.823L158.647 384.712L119.112 357.242L119.112 302.098L119.271 301.986L158.805 274.517ZM197.878 302.527L158.805 275.391L119.733 302.527L119.733 356.798L158.805 383.933L197.878 356.798L197.878 302.527Z" fill="#2F36AB"/>
<path opacity="0.5" d="M158.805 329.234L158.964 329.345L198.498 356.814L198.498 411.959L198.34 412.07L158.805 439.539L119.112 411.959L119.112 356.814L119.271 356.703L158.805 329.234ZM197.878 357.243L158.805 330.107L119.733 357.243L119.733 411.514L158.805 438.649L197.878 411.514L197.878 357.243Z" fill="#2F36AB"/>
<path opacity="0.5" d="M158.805 493.365L198.498 520.945L198.498 576.09L198.34 576.201L158.805 603.67L119.112 576.09L119.112 520.945L119.271 520.834L158.805 493.365ZM197.878 521.374L158.805 494.239L119.733 521.374L119.733 575.645L158.805 602.781L197.878 575.645L197.878 521.374Z" fill="#2F36AB"/>
<path opacity="0.5" d="M276.947 28.3123L277.105 28.4235L316.64 55.8926L316.64 111.037L316.481 111.149L276.947 138.618L276.788 138.506L237.254 111.037L237.254 55.8926L237.412 55.7814L276.947 28.3123ZM316.019 56.3216L276.947 29.186L237.874 56.3216L237.874 110.593L276.947 137.728L316.019 110.593L316.019 56.3216Z" fill="#2F36AB"/>
<path opacity="0.5" d="M276.947 192.46L277.105 192.571L316.64 220.04L316.64 275.185L316.481 275.296L276.947 302.765L276.788 302.654L237.254 275.185L237.254 220.04L237.412 219.929L276.947 192.46ZM316.019 220.469L276.947 193.334L237.874 220.469L237.874 274.74L276.947 301.875L316.019 274.74L316.019 220.469Z" fill="#2F36AB"/>
<path opacity="0.5" d="M276.947 411.291L277.105 411.402L316.64 438.872L316.64 494.016L316.481 494.128L276.947 521.597L237.254 494.016L237.254 438.872L237.412 438.76L276.947 411.291ZM316.019 439.301L276.947 412.165L237.874 439.301L237.874 493.572L276.947 520.707L316.019 493.572L316.019 439.301Z" fill="#2F36AB"/>
<path opacity="0.5" d="M316.336 0.954661L316.495 1.06578L356.03 28.535L356.03 83.6797L355.871 83.7909L316.336 111.26L316.178 111.149L276.643 83.6797L276.643 28.535L276.802 28.4237L316.336 0.954661ZM355.409 28.964L316.336 1.82844L277.264 28.9639L277.264 83.2349L316.336 110.37L355.409 83.2349L355.409 28.964Z" fill="#2F36AB"/>
<path opacity="0.5" d="M316.336 110.386L316.495 110.497L356.03 137.967L356.03 193.111L355.871 193.223L316.336 220.692L316.178 220.58L276.643 193.111L276.643 137.967L276.802 137.855L316.336 110.386ZM355.409 138.396L316.336 111.26L277.264 138.396L277.264 192.666L316.336 219.802L355.409 192.667L355.409 138.396Z" fill="#2F36AB"/>
<path opacity="0.5" d="M316.336 219.802L316.495 219.913L356.029 247.382L356.029 302.527L355.871 302.638L316.336 330.107L316.178 329.996L276.643 302.527L276.643 247.382L276.802 247.271L316.336 219.802ZM355.409 247.811L316.336 220.676L277.264 247.811L277.264 302.082L316.336 329.218L355.409 302.082L355.409 247.811Z" fill="#2F36AB"/>
<path opacity="0.5" d="M316.336 274.517L316.495 274.629L356.03 302.098L356.03 357.242L355.871 357.354L316.336 384.823L316.178 384.712L276.643 357.242L276.643 302.098L276.802 301.986L316.336 274.517ZM355.409 302.527L316.336 275.391L277.264 302.527L277.264 356.798L316.336 383.933L355.409 356.798L355.409 302.527Z" fill="#2F36AB"/>
<path opacity="0.5" d="M316.336 438.649L356.029 466.229L356.029 521.374L355.871 521.485L316.336 548.955L276.643 521.374L276.643 466.229L276.802 466.118L316.336 438.649ZM355.409 466.658L316.336 439.523L277.264 466.658L277.264 520.929L316.336 548.065L355.409 520.929L355.409 466.658Z" fill="#2F36AB"/>
<path opacity="0.5" d="M355.713 28.3123L355.871 28.4235L395.406 55.8926L395.406 111.037L395.247 111.149L355.713 138.618L355.554 138.506L316.02 111.037L316.02 55.8926L316.178 55.7814L355.713 28.3123ZM394.785 56.3216L355.713 29.186L316.64 56.3216L316.64 110.593L355.713 137.728L394.785 110.593L394.785 56.3216Z" fill="#2F36AB"/>
<path opacity="0.5" d="M355.713 301.876L355.871 301.987L395.406 329.456L395.406 384.601L395.247 384.712L355.713 412.181L355.554 412.07L316.02 384.601L316.02 329.456L316.178 329.345L355.713 301.876ZM394.785 329.885L355.713 302.75L316.64 329.885L316.64 384.156L355.713 411.291L394.785 384.156L394.785 329.885Z" fill="#2F36AB"/>
<path opacity="0.5" d="M395.088 55.6704L395.247 55.7816L434.781 83.2508L434.781 138.396L434.623 138.507L395.088 165.976L394.93 165.865L355.395 138.396L355.395 83.2508L355.554 83.1395L395.088 55.6704ZM434.161 83.6797L395.088 56.5443L356.016 83.6797L356.016 137.951L395.088 165.086L434.161 137.951L434.161 83.6797Z" fill="#2F36AB"/>
<path opacity="0.5" d="M434.478 137.744L434.636 137.855L474.171 165.324L474.171 220.469L474.012 220.58L434.478 248.049L434.319 247.938L394.785 220.469L394.785 165.324L394.943 165.213L434.478 137.744ZM473.55 165.753L434.478 138.618L395.405 165.753L395.405 220.024L434.478 247.16L473.55 220.024L473.55 165.753Z" fill="#2F36AB"/>
<path opacity="0.5" d="M198.195 28.3123L198.353 28.4235L237.888 55.8926L237.888 111.037L237.729 111.149L198.195 138.618L198.036 138.506L158.502 111.037L158.502 55.8926L158.66 55.7814L198.195 28.3123ZM237.267 56.3216L198.195 29.186L159.122 56.3216L159.122 110.593L198.195 137.728L237.267 110.593L237.267 56.3216Z" fill="#2F36AB"/>
<path opacity="0.5" d="M198.195 83.0283L198.353 83.1396L237.888 110.609L237.888 165.753L237.729 165.865L198.195 193.334L198.036 193.223L158.502 165.753L158.502 110.609L158.66 110.497L198.195 83.0283ZM237.267 111.038L198.195 83.9021L159.122 111.038L159.122 165.309L198.195 192.444L237.267 165.309L237.267 111.038Z" fill="#2F36AB"/>
<path opacity="0.5" d="M198.195 137.744L198.353 137.855L237.888 165.324L237.888 220.469L237.729 220.58L198.195 248.049L198.036 247.938L158.502 220.469L158.502 165.324L158.66 165.213L198.195 137.744ZM237.267 165.753L198.195 138.618L159.122 165.753L159.122 220.024L198.195 247.16L237.267 220.024L237.267 165.753Z" fill="#2F36AB"/>
<path opacity="0.5" d="M198.195 301.876L198.353 301.987L237.888 329.456L237.888 384.601L237.729 384.712L198.195 412.181L198.036 412.07L158.502 384.601L158.502 329.456L158.66 329.345L198.195 301.876ZM237.267 329.885L198.195 302.75L159.122 329.885L159.122 384.156L198.195 411.291L237.267 384.156L237.267 329.885Z" fill="#2F36AB"/>
<path opacity="0.5" d="M198.195 575.439L237.888 603.019L237.888 658.164L237.729 658.275L198.195 685.744L158.502 658.164L158.502 603.019L158.66 602.908L198.195 575.439ZM237.267 603.448L198.195 576.313L159.122 603.448L159.122 657.719L198.195 684.854L237.267 657.719L237.267 603.448Z" fill="#2F36AB"/>
<path opacity="0.5" d="M198.195 466.007L237.888 493.587L237.888 548.732L237.729 548.843L198.195 576.312L158.502 548.732L158.502 493.587L158.66 493.476L198.195 466.007ZM237.267 494.016L198.195 466.881L159.122 494.016L159.122 548.287L198.195 575.423L237.267 548.287L237.267 494.016Z" fill="#2F36AB"/>
<path opacity="0.5" d="M316.336 329.234L316.495 329.345L356.03 356.814L356.03 411.959L355.871 412.07L316.336 439.539L276.643 411.959L276.643 356.814L276.802 356.703L316.336 329.234ZM355.409 357.243L316.336 330.107L277.264 357.243L277.264 411.514L316.336 438.649L355.409 411.514L355.409 357.243Z" fill="#2F36AB"/>
<path d="M434.478 246.508L434.715 246.667L474.329 274.184L474.329 329.551L474.091 329.71L434.478 357.227L434.24 357.068L394.626 329.551L394.626 274.184L394.864 274.025L434.478 246.508ZM473.392 274.851L434.478 247.827L395.564 274.851L395.564 328.9L434.478 355.924L473.392 328.9L473.392 274.851Z" fill="#2F36AB"/>
<path d="M158.805 219.595L159.043 219.754L198.657 247.271L198.657 302.638L198.419 302.797L158.805 330.314L158.568 330.155L118.954 302.638L118.954 247.271L119.191 247.112L158.805 219.595ZM197.719 247.938L158.805 220.914L119.891 247.938L119.891 301.987L158.805 329.011L197.719 301.987L197.719 247.938Z" fill="#2F36AB"/>
<path d="M40.6636 246.953L40.9013 247.112L80.5151 274.629L80.5151 329.996L80.2775 330.155L40.6636 357.672L40.4259 357.513L0.812067 329.996L0.81207 274.629L1.04979 274.47L40.6636 246.953ZM79.5776 275.296L40.6636 248.272L1.74963 275.296L1.74963 329.345L40.6636 356.369L79.5776 329.345L79.5776 275.296Z" fill="#2F36AB"/>
<path d="M40.6636 520.5L80.5151 548.176L80.5151 603.543L80.2775 603.702L40.6636 631.219L0.812067 603.543L0.81207 548.176L1.04979 548.017L40.6636 520.5ZM79.5776 548.843L40.6636 521.819L1.74963 548.843L1.74963 602.892L40.6636 629.916L79.5776 602.892L79.5776 548.843Z" fill="#2F36AB"/>
<path d="M198.195 411.085L198.432 411.244L238.046 438.76L238.046 494.128L237.808 494.286L198.195 521.803L158.343 494.128L158.343 438.76L158.581 438.601L198.195 411.085ZM237.109 439.428L198.195 412.403L159.281 439.428L159.281 493.476L198.195 520.5L237.109 493.476L237.109 439.428Z" fill="#2F36AB"/>
<path d="M198.195 246.953L198.432 247.112L238.046 274.629L238.046 329.996L237.808 330.155L198.195 357.672L197.957 357.513L158.343 329.996L158.343 274.629L158.581 274.47L198.195 246.953ZM237.109 275.296L198.195 248.272L159.281 275.296L159.281 329.345L198.195 356.369L237.109 329.345L237.109 275.296Z" fill="#2F36AB"/>
<path d="M276.947 301.653L277.185 301.812L316.798 329.329L316.798 384.696L316.561 384.855L276.947 412.372L276.709 412.213L237.095 384.696L237.095 329.329L237.333 329.17L276.947 301.653ZM315.861 329.996L276.947 302.972L238.033 329.996L238.033 384.045L276.947 411.069L315.861 384.045L315.861 329.996Z" fill="#2F36AB"/>
<path d="M80.053 383.727L80.2907 383.886L119.905 411.402L119.905 466.77L119.667 466.929L80.053 494.445L40.2015 466.77L40.2015 411.402L40.4392 411.244L80.053 383.727ZM118.967 412.07L80.053 385.045L41.139 412.07L41.139 466.118L80.053 493.143L118.967 466.118L118.967 412.07Z" fill="#2F36AB"/>
<path d="M80.053 438.427L119.905 466.103L119.905 521.47L119.667 521.629L80.053 549.146L40.2015 521.47L40.2015 466.103L40.4392 465.944L80.053 438.427ZM118.967 466.77L80.053 439.746L41.139 466.77L41.139 520.818L80.053 547.843L118.967 520.818L118.967 466.77Z" fill="#2F36AB"/>
<path d="M119.429 82.806L119.667 82.9648L159.281 110.482L159.281 165.849L159.043 166.008L119.429 193.524L119.191 193.366L79.5775 165.849L79.5775 110.482L79.8152 110.323L119.429 82.806ZM158.343 111.149L119.429 84.1246L80.515 111.149L80.515 165.197L119.429 192.222L158.343 165.197L158.343 111.149Z" fill="#2F36AB"/>
<path d="M119.429 356.369L119.667 356.528L159.281 384.045L159.281 439.412L159.043 439.571L119.429 467.087L79.5775 439.412L79.5775 384.045L79.8152 383.886L119.429 356.369ZM158.343 384.712L119.429 357.688L80.515 384.712L80.515 438.76L119.429 465.785L158.343 438.76L158.343 384.712Z" fill="#2F36AB"/>
<path d="M119.429 629.932L159.281 657.608L159.281 712.975L159.043 713.134L119.429 740.65L79.5775 712.975L79.5775 657.608L79.8152 657.449L119.429 629.932ZM158.343 658.275L119.429 631.251L80.515 658.275L80.515 712.323L119.429 739.348L158.343 712.323L158.343 658.275Z" fill="#2F36AB"/>
<path d="M158.805 383.727L159.043 383.886L198.657 411.402L198.657 466.77L198.419 466.929L158.805 494.445L118.954 466.77L118.954 411.402L119.191 411.244L158.805 383.727ZM197.719 412.07L158.805 385.045L119.891 412.07L119.891 466.118L158.805 493.143L197.719 466.118L197.719 412.07Z" fill="#2F36AB"/>
<path d="M158.805 547.859L198.657 575.534L198.657 630.902L198.419 631.06L158.805 658.577L118.954 630.901L118.954 575.534L119.191 575.375L158.805 547.859ZM197.719 576.202L158.805 549.177L119.891 576.202L119.891 630.25L158.805 657.274L197.719 630.25L197.719 576.202Z" fill="#2F36AB"/>
<path d="M276.947 137.522L277.185 137.68L316.798 165.197L316.798 220.564L316.561 220.723L276.947 248.24L276.709 248.081L237.095 220.564L237.095 165.197L237.333 165.038L276.947 137.522ZM315.861 165.864L276.947 138.84L238.033 165.864L238.033 219.913L276.947 246.937L315.861 219.913L315.861 165.864Z" fill="#2F36AB"/>
<path d="M316.336 55.4478L316.574 55.6066L356.188 83.1234L356.188 138.491L355.95 138.649L316.336 166.166L316.099 166.007L276.485 138.491L276.485 83.1234L276.723 82.9645L316.336 55.4478ZM355.25 83.7907L316.336 56.7664L277.422 83.7907L277.422 137.839L316.336 164.863L355.25 137.839L355.25 83.7907Z" fill="#2F36AB"/>
<path d="M355.713 192.237L355.95 192.396L395.564 219.913L395.564 275.28L395.327 275.439L355.713 302.956L355.475 302.797L315.861 275.28L315.861 219.913L316.099 219.754L355.713 192.237ZM394.627 220.58L355.713 193.556L316.799 220.58L316.799 274.629L355.713 301.653L394.627 274.629L394.627 220.58Z" fill="#2F36AB"/>
<path d="M355.712 356.369L355.95 356.528L395.564 384.045L395.564 439.412L395.326 439.571L355.712 467.087L315.861 439.412L315.861 384.045L316.098 383.886L355.712 356.369ZM394.626 384.712L355.712 357.688L316.798 384.712L316.798 438.76L355.712 465.785L394.626 438.76L394.626 384.712Z" fill="#2F36AB"/>
<path d="M355.712 465.784L395.564 493.46L395.564 548.827L395.326 548.986L355.712 576.503L315.861 548.827L315.861 493.46L316.098 493.301L355.712 465.784ZM394.626 494.127L355.712 467.103L316.798 494.127L316.798 548.176L355.712 575.2L394.626 548.176L394.626 494.127Z" fill="#2F36AB"/>
<path d="M395.088 110.164L395.326 110.322L434.94 137.839L434.94 193.206L434.702 193.365L395.088 220.882L394.851 220.723L355.237 193.206L355.237 137.839L355.475 137.68L395.088 110.164ZM434.002 138.507L395.088 111.482L356.174 138.507L356.174 192.555L395.088 219.579L434.002 192.555L434.002 138.507Z" fill="#2F36AB"/>
<path opacity="0.5" d="M81.9543 109.449L81.9543 112.086L80.0529 113.42L78.1382 112.086L78.1382 109.449L80.0529 108.13L81.9543 109.449Z" fill="#2F36AB"/>
<path opacity="0.5" d="M81.9014 164.148L81.9014 166.706L80.0527 167.993L78.2041 166.706L78.2041 164.148L80.0527 162.862L81.9014 164.148Z" fill="#2F36AB"/>
<path opacity="0.5" d="M81.6108 219.007L81.6108 221.168L80.0527 222.264L78.4814 221.168L78.4814 219.007L80.0527 217.927L81.6108 219.007Z" fill="#2F36AB"/>
<path opacity="0.5" d="M81.241 273.93L81.241 275.582L80.0526 276.408L78.8509 275.582L78.8509 273.93L80.0526 273.088L81.241 273.93Z" fill="#2F36AB"/>
<path opacity="0.5" d="M82.2312 546.539L82.2312 549.574L80.0524 551.083L77.8605 549.574L77.8605 546.539L80.0524 545.014L82.2312 546.539Z" fill="#2F36AB"/>
<path opacity="0.5" d="M82.8787 764.735L82.8787 768.659L80.0529 770.629L77.2139 768.659L77.2139 764.735L80.0529 762.765L82.8787 764.735Z" fill="#2F36AB"/>
<path opacity="0.5" d="M84.3706 818.355L84.3706 824.361L80.0527 827.363L75.7216 824.361L75.7216 818.355L80.0527 815.337L84.3706 818.355Z" fill="#2F36AB"/>
<path opacity="0.5" d="M42.895 81.8365L42.895 84.9345L40.6634 86.4756L38.4319 84.9345L38.4319 81.8365L40.6634 80.2795L42.895 81.8365Z" fill="#2F36AB"/>
<path opacity="0.5" d="M43.0403 136.362L43.0403 139.65L40.6635 141.302L38.2866 139.65L38.2866 136.362L40.6635 134.709L43.0403 136.362Z" fill="#2F36AB"/>
<path opacity="0.5" d="M43.8188 190.442L43.8188 194.827L40.663 197.003L37.5203 194.827L37.5203 190.442L40.663 188.249L43.8188 190.442Z" fill="#2F36AB"/>
<path opacity="0.5" d="M44.0171 518.054L44.0171 522.709L40.6631 525.028L37.3224 522.709L37.3224 518.054L40.6631 515.718L44.0171 518.054Z" fill="#2F36AB"/>
<path opacity="0.5" d="M42.5911 573.659L42.5911 576.328L40.6632 577.679L38.7485 576.328L38.7485 573.659L40.6632 572.325L42.5911 573.659Z" fill="#2F36AB"/>
<path opacity="0.5" d="M41.9707 628.708L41.9707 630.535L40.6635 631.441L39.3562 630.535L39.3562 628.708L40.6635 627.803L41.9707 628.708Z" fill="#2F36AB"/>
<path opacity="0.5" d="M43.542 682.249L43.542 686.236L40.6634 688.238L37.798 686.236L37.798 682.249L40.6634 680.263L43.542 682.249Z" fill="#2F36AB"/>
<path opacity="0.5" d="M41.9968 739.077L41.9968 740.92L40.6632 741.842L39.3427 740.92L39.3427 739.077L40.6632 738.156L41.9968 739.077Z" fill="#2F36AB"/>
<path opacity="0.5" d="M43.5022 792.744L43.5022 796.685L40.6632 798.639L37.8374 796.685L37.8374 792.744L40.6632 790.774L43.5022 792.744Z" fill="#2F36AB"/>
<path opacity="0.5" d="M160.31 55.0665L160.31 57.1477L158.805 58.1804L157.313 57.1477L157.313 55.0665L158.805 54.0338L160.31 55.0665Z" fill="#2F36AB"/>
<path opacity="0.5" d="M162.436 108.241L162.436 113.293L158.805 115.819L155.174 113.293L155.174 108.241L158.805 105.731L162.436 108.241Z" fill="#2F36AB"/>
<path opacity="0.5" d="M159.993 164.609L159.993 166.246L158.805 167.072L157.63 166.246L157.63 164.609L158.805 163.783L159.993 164.609Z" fill="#2F36AB"/>
<path opacity="0.5" d="M162.674 217.403L162.674 222.773L158.805 225.458L154.949 222.773L154.949 217.403L158.805 214.734L162.674 217.403Z" fill="#2F36AB"/>
<path opacity="0.5" d="M159.914 492.634L159.914 494.159L158.805 494.922L157.709 494.159L157.709 492.634L158.805 491.856L159.914 492.634Z" fill="#2F36AB"/>
<path opacity="0.5" d="M159.716 547.413L159.716 548.684L158.805 549.32L157.894 548.684L157.894 547.413L158.805 546.778L159.716 547.413Z" fill="#2F36AB"/>
<path opacity="0.5" d="M161.499 600.842L161.499 604.592L158.805 606.466L156.111 604.592L156.111 600.842L158.805 598.968L161.499 600.842Z" fill="#2F36AB"/>
<path opacity="0.5" d="M161.552 655.463L161.552 659.276L158.805 661.182L156.072 659.276L156.072 655.463L158.805 653.556L161.552 655.463Z" fill="#2F36AB"/>
<path opacity="0.5" d="M121.053 136.886L121.053 139.126L119.429 140.254L117.805 139.126L117.805 136.886L119.429 135.758L121.053 136.886Z" fill="#2F36AB"/>
<path opacity="0.5" d="M120.855 246.27L120.855 248.24L119.429 249.225L118.003 248.24L118.003 246.27L119.429 245.269L120.855 246.27Z" fill="#2F36AB"/>
<path opacity="0.5" d="M120.379 301.224L120.379 302.543L119.428 303.194L118.478 302.543L118.478 301.224L119.428 300.557L120.379 301.224Z" fill="#2F36AB"/>
<path opacity="0.5" d="M121.502 409.686L121.502 412.562L119.429 414.008L117.356 412.562L117.356 409.686L119.429 408.241L121.502 409.686Z" fill="#2F36AB"/>
<path opacity="0.5" d="M120.485 465.022L120.485 466.484L119.429 467.214L118.373 466.484L118.373 465.022L119.429 464.291L120.485 465.022Z" fill="#2F36AB"/>
<path opacity="0.5" d="M121.462 573.579L121.462 576.407L119.429 577.821L117.395 576.407L117.395 573.579L119.429 572.181L121.462 573.579Z" fill="#2F36AB"/>
<path opacity="0.5" d="M122.77 792.395L122.77 797.034L119.429 799.354L116.088 797.034L116.088 792.395L119.429 790.075L122.77 792.395Z" fill="#2F36AB"/>
<path opacity="0.5" d="M319.162 54.1451L319.162 58.0693L316.336 60.0393L313.51 58.0693L313.51 54.1451L316.336 52.1751L319.162 54.1451Z" fill="#2F36AB"/>
<path opacity="0.5" d="M317.498 109.957L317.498 111.577L316.336 112.388L315.174 111.577L315.174 109.957L316.336 109.163L317.498 109.957Z" fill="#2F36AB"/>
<path opacity="0.5" d="M319.281 218.038L319.281 222.137L316.336 224.187L313.391 222.137L313.391 218.038L316.336 216.005L319.281 218.038Z" fill="#2F36AB"/>
<path opacity="0.5" d="M319.36 272.643L319.36 276.853L316.336 278.966L313.299 276.853L313.299 272.643L316.336 270.546L319.36 272.643Z" fill="#2F36AB"/>
<path opacity="0.5" d="M281.251 354.033L281.251 360.007L276.947 362.994L272.655 360.007L272.655 354.033L276.947 351.046L281.251 354.033Z" fill="#2F36AB"/>
<path opacity="0.5" d="M241.875 381.089L241.875 387.063L237.571 390.05L233.279 387.063L233.279 381.089L237.571 378.103L241.875 381.089Z" fill="#2F36AB"/>
<path opacity="0.5" d="M317.749 492.412L317.749 494.382L316.336 495.367L314.91 494.382L314.91 492.412L316.336 491.411L317.749 492.412Z" fill="#2F36AB"/>
<path opacity="0.5" d="M201.733 135.535L201.733 140.476L198.194 142.939L194.642 140.476L194.642 135.535L198.194 133.073L201.733 135.535Z" fill="#2F36AB"/>
<path opacity="0.5" d="M199.779 191.522L199.779 193.731L198.194 194.827L196.61 193.731L196.61 191.522L198.194 190.426L199.779 191.522Z" fill="#2F36AB"/>
<path opacity="0.5" d="M199.819 246.127L199.819 248.383L198.194 249.527L196.557 248.383L196.557 246.127L198.194 244.983L199.819 246.127Z" fill="#2F36AB"/>
<path opacity="0.5" d="M199.898 300.7L199.898 303.067L198.194 304.243L196.491 303.067L196.491 300.7L198.194 299.508L199.898 300.7Z" fill="#2F36AB"/>
<path opacity="0.5" d="M199.885 355.32L199.885 357.671L198.194 358.847L196.491 357.671L196.491 355.32L198.194 354.144L199.885 355.32Z" fill="#2F36AB"/>
<path opacity="0.5" d="M200.479 409.543L200.479 412.705L198.195 414.293L195.91 412.705L195.91 409.543L198.195 407.954L200.479 409.543Z" fill="#2F36AB"/>
<path opacity="0.5" d="M357.706 27.3749L357.706 30.1393L355.712 31.5374L353.718 30.1393L353.718 27.3749L355.712 25.9768L357.706 27.3749Z" fill="#2F36AB"/>
<path opacity="0.5" d="M397.531 54.4151L397.531 57.7991L395.088 59.499L392.659 57.7991L392.659 54.4151L395.088 52.731L397.531 54.4151Z" fill="#2F36AB"/>
<path opacity="0.5" d="M397.465 327.756L397.465 331.06L395.088 332.712L392.725 331.06L392.725 327.756L395.088 326.119L397.465 327.756Z" fill="#2F36AB"/>
<path opacity="0.5" d="M397.214 382.598L397.214 385.538L395.088 387.015L392.976 385.538L392.976 382.598L395.088 381.137L397.214 382.598Z" fill="#2F36AB"/>
<path opacity="0.5" d="M399.116 490.601L399.116 496.177L395.088 498.973L391.074 496.177L391.074 490.601L395.088 487.82L399.116 490.601Z" fill="#2F36AB"/>
<path opacity="0.5" d="M356.822 82.6148L356.822 84.1558L355.712 84.9185L354.603 84.1558L354.603 82.6148L355.712 81.8363L356.822 82.6148Z" fill="#2F36AB"/>
<path opacity="0.5" d="M357.799 300.429L357.799 303.321L355.712 304.767L353.626 303.321L353.626 300.429L355.712 298.984L357.799 300.429Z" fill="#2F36AB"/>
<path opacity="0.5" d="M356.703 410.433L356.703 411.815L355.712 412.499L354.722 411.815L354.722 410.433L355.712 409.75L356.703 410.433Z" fill="#2F36AB"/>
<path opacity="0.5" d="M358.564 518.387L358.564 522.359L355.712 524.345L352.86 522.359L352.86 518.387L355.712 516.401L358.564 518.387Z" fill="#2F36AB"/>
<path opacity="0.5" d="M241.453 600.525L241.453 605.91L237.571 608.611L233.689 605.91L233.689 600.525L237.571 597.84L241.453 600.525Z" fill="#2F36AB"/>
<path d="M319.162 327.454L319.162 331.378L316.336 333.348L313.51 331.378L313.51 327.454L316.336 325.484L319.162 327.454Z" fill="#2F36AB"/>
<path d="M240.396 272.738L240.396 276.662L237.571 278.632L234.745 276.662L234.745 272.738L237.571 270.768L240.396 272.738Z" fill="#2F36AB"/>
<path d="M320.627 435.742L320.627 441.715L316.336 444.702L312.031 441.715L312.031 435.742L316.336 432.755L320.627 435.742Z" fill="#2F36AB"/>
<path d="M318.607 546.476L318.607 549.638L316.336 551.21L314.065 549.638L314.065 546.476L316.336 544.887L318.607 546.476Z" fill="#2F36AB"/>
<path d="M396.752 273.596L396.752 275.9L395.088 277.059L393.438 275.9L393.438 273.596L395.088 272.452L396.752 273.596Z" fill="#2F36AB"/>
<path d="M41.8777 27.915L41.8777 29.5991L40.6629 30.4412L39.448 29.5991L39.448 27.915L40.6629 27.0731L41.8777 27.915Z" fill="#2F36AB"/>
<path d="M84.6743 326.198L84.6743 332.617L80.0527 335.826L75.4311 332.617L75.4311 326.198L80.0527 322.989L84.6743 326.198Z" fill="#2F36AB"/>
<path d="M82.2185 382.567L82.2185 385.569L80.0529 387.079L77.8874 385.569L77.8874 382.567L80.0529 381.057L82.2185 382.567Z" fill="#2F36AB"/>
<path d="M81.4258 437.775L81.4258 439.697L80.0525 440.65L78.666 439.697L78.666 437.775L80.0525 436.806L81.4258 437.775Z" fill="#2F36AB"/>
<path d="M82.4692 491.712L82.4692 495.064L80.0528 496.749L77.6363 495.064L77.6363 491.712L80.0528 490.028L82.4692 491.712Z" fill="#2F36AB"/>
<path d="M81.3994 601.764L81.3994 603.654L80.0526 604.607L78.6925 603.654L78.6925 601.764L80.0526 600.826L81.3994 601.764Z" fill="#2F36AB"/>
<path d="M82.4692 655.701L82.4692 659.053L80.0528 660.737L77.6231 659.053L77.6231 655.701L80.0528 654.017L82.4692 655.701Z" fill="#2F36AB"/>
<path d="M82.2446 710.512L82.2446 713.562L80.0527 715.087L77.8475 713.562L77.8475 710.512L80.0527 708.971L82.2446 710.512Z" fill="#2F36AB"/>
<path d="M42.5518 245.952L42.5518 248.558L40.6635 249.86L38.7884 248.558L38.7884 245.952L40.6635 244.649L42.5518 245.952Z" fill="#2F36AB"/>
<path d="M43.238 300.096L43.238 303.671L40.6632 305.45L38.0882 303.671L38.0882 300.096L40.6632 298.301L43.238 300.096Z" fill="#2F36AB"/>
<path d="M42.7759 355.034L42.7759 357.973L40.6632 359.435L38.5504 357.973L38.5504 355.034L40.6632 353.573L42.7759 355.034Z" fill="#2F36AB"/>
<path d="M42.2346 410.036L42.2346 412.212L40.6633 413.309L39.0919 412.212L39.0919 410.036L40.6633 408.94L42.2346 410.036Z" fill="#2F36AB"/>
<path d="M122.453 26.6599L122.453 30.854L119.429 32.9512L116.405 30.854L116.405 26.6599L119.429 24.5627L122.453 26.6599Z" fill="#2F36AB"/>
<path d="M162.159 272.42L162.159 277.075L158.805 279.395L155.464 277.075L155.464 272.42L158.805 270.101L162.159 272.42Z" fill="#2F36AB"/>
<path d="M160.007 328.582L160.007 330.234L158.805 331.06L157.617 330.234L157.617 328.582L158.805 327.756L160.007 328.582Z" fill="#2F36AB"/>
<path d="M161.842 381.963L161.842 386.173L158.805 388.286L155.781 386.173L155.781 381.963L158.805 379.866L161.842 381.963Z" fill="#2F36AB"/>
<path d="M160.403 710.925L160.403 713.133L158.805 714.246L157.221 713.133L157.221 710.925L158.805 709.829L160.403 710.925Z" fill="#2F36AB"/>
<path d="M162.146 764.37L162.146 769.009L158.805 771.329L155.477 769.009L155.477 764.37L158.805 762.066L162.146 764.37Z" fill="#2F36AB"/>
<path d="M120.696 82.5038L120.696 84.2673L119.429 85.1411L118.161 84.2673L118.161 82.5038L119.429 81.6141L120.696 82.5038Z" fill="#2F36AB"/>
<path d="M121.753 191.014L121.753 194.239L119.429 195.86L117.105 194.239L117.105 191.014L119.429 189.394L121.753 191.014Z" fill="#2F36AB"/>
<path d="M120.525 355.733L120.525 357.274L119.429 358.037L118.333 357.274L118.333 355.733L119.429 354.97L120.525 355.733Z" fill="#2F36AB"/>
<path d="M122.32 518.371L122.32 522.375L119.428 524.393L116.537 522.375L116.537 518.371L119.428 516.354L122.32 518.371Z" fill="#2F36AB"/>
<path d="M121.859 627.93L121.859 631.314L119.429 633.014L116.999 631.314L116.999 627.93L119.429 626.246L121.859 627.93Z" fill="#2F36AB"/>
<path d="M120.683 683.377L120.683 685.124L119.429 685.998L118.174 685.124L118.174 683.377L119.429 682.503L120.683 683.377Z" fill="#2F36AB"/>
<path d="M120.815 739.046L120.815 740.968L119.429 741.921L118.042 740.968L118.042 739.046L119.429 738.077L120.815 739.046Z" fill="#2F36AB"/>
<path d="M279.825 26.7552L279.825 30.7429L276.947 32.7446L274.081 30.7429L274.081 26.7552L276.947 24.7693L279.825 26.7552Z" fill="#2F36AB"/>
<path d="M240.436 54.1132L240.436 58.101L237.57 60.1028L234.705 58.101L234.705 54.1132L237.57 52.1273L240.436 54.1132Z" fill="#2F36AB"/>
<path d="M200.505 81.773L200.505 84.9823L198.195 86.6028L195.871 84.9823L195.871 81.773L198.195 80.1685L200.505 81.773Z" fill="#2F36AB"/>
<path d="M200.241 464.323L200.241 467.167L198.194 468.597L196.148 467.167L196.148 464.323L198.194 462.909L200.241 464.323Z" fill="#2F36AB"/>
<path d="M199.554 519.436L199.554 521.326L198.194 522.264L196.834 521.326L196.834 519.436L198.194 518.482L199.554 519.436Z" fill="#2F36AB"/>
<path d="M199.713 573.945L199.713 576.058L198.194 577.123L196.662 576.058L196.662 573.945L198.194 572.881L199.713 573.945Z" fill="#2F36AB"/>
<path d="M200.822 627.787L200.822 631.457L198.194 633.284L195.553 631.457L195.553 627.787L198.194 625.96L200.822 627.787Z" fill="#2F36AB"/>
<path d="M200.492 682.662L200.492 685.839L198.194 687.444L195.897 685.839L195.897 682.662L198.194 681.057L200.492 682.662Z" fill="#2F36AB"/>
<path d="M396.752 109.623L396.752 111.927L395.088 113.071L393.438 111.927L393.438 109.623L395.088 108.463L396.752 109.623Z" fill="#2F36AB"/>
<path d="M397.267 163.926L397.267 166.929L395.088 168.438L392.923 166.929L392.923 163.926L395.088 162.417L397.267 163.926Z" fill="#2F36AB"/>
<path d="M397.967 436.742L397.967 440.73L395.088 442.716L392.223 440.73L392.223 436.742L395.088 434.74L397.967 436.742Z" fill="#2F36AB"/>
<path d="M359.7 135.234L359.7 140.778L355.712 143.543L351.724 140.778L351.724 135.234L355.712 132.469L359.7 135.234Z" fill="#2F36AB"/>
<path d="M358.683 190.569L358.683 194.684L355.712 196.749L352.754 194.684L352.754 190.569L355.712 188.504L358.683 190.569Z" fill="#2F36AB"/>
<path d="M358.934 245.015L358.934 249.495L355.712 251.719L352.503 249.495L352.503 245.015L355.712 242.791L358.934 245.015Z" fill="#2F36AB"/>
<path d="M357.653 464.402L357.653 467.103L355.712 468.454L353.771 467.103L353.771 464.402L355.712 463.052L357.653 464.402Z" fill="#2F36AB"/>
<path d="M357.917 573.468L357.917 576.535L355.712 578.076L353.507 576.535L353.507 573.468L355.712 571.927L357.917 573.468Z" fill="#2F36AB"/>
</g>
</svg>
