<?xml version="1.0" encoding="UTF-8" standalone="no"?>
<!-- Created with Inkscape (http://www.inkscape.org/) -->

<svg
   width="53.245422mm"
   height="11.644945mm"
   viewBox="0 0 53.245422 11.644945"
   version="1.1"
   id="svg1"
   xml:space="preserve"
   inkscape:version="1.3 (0e150ed6c4, 2023-07-21)"
   sodipodi:docname="rss_feeds.svg"
   xmlns:inkscape="http://www.inkscape.org/namespaces/inkscape"
   xmlns:sodipodi="http://sodipodi.sourceforge.net/DTD/sodipodi-0.dtd"
   xmlns="http://www.w3.org/2000/svg"
   xmlns:svg="http://www.w3.org/2000/svg"><sodipodi:namedview
     id="namedview1"
     pagecolor="#505050"
     bordercolor="#eeeeee"
     borderopacity="1"
     inkscape:showpageshadow="0"
     inkscape:pageopacity="0"
     inkscape:pagecheckerboard="0"
     inkscape:deskcolor="#505050"
     inkscape:document-units="mm"
     inkscape:zoom="1.9563131"
     inkscape:cx="154.11643"
     inkscape:cy="92.265395"
     inkscape:window-width="1366"
     inkscape:window-height="729"
     inkscape:window-x="0"
     inkscape:window-y="0"
     inkscape:window-maximized="0"
     inkscape:current-layer="layer1" /><defs
     id="defs1"><clipPath
       id="clip0_1_886"><rect
         width="25"
         height="25"
         fill="#ffffff"
         transform="translate(7.09998,6.5)"
         id="rect5"
         x="0"
         y="0" /></clipPath></defs><g
     inkscape:label="Layer 1"
     inkscape:groupmode="layer"
     id="layer1"
     transform="translate(-70.010339,-28.601089)"><rect
       style="fill:#000000;stroke:#ffffff;stroke-width:0.264583;stroke-linecap:round;paint-order:fill markers stroke"
       id="rect1-8-30"
       width="52.980846"
       height="11.380362"
       x="70.142632"
       y="28.733379"
       ry="2.8689988" /><g
       clip-path="url(#clip0_1_886)"
       id="g4"
       transform="matrix(0.26458333,0,0,0.26458333,70.201202,29.3328)"><path
         d="m 27.4125,6.5 h -15.625 c -2.58886,0 -4.68752,2.09867 -4.68752,4.6875 v 15.625 c 0,2.5888 2.09866,4.6875 4.68752,4.6875 h 15.625 C 30.0013,31.5 32.1,29.4013 32.1,26.8125 V 11.1875 C 32.1,8.59867 30.0013,6.5 27.4125,6.5 Z"
         fill="#ffa71a"
         id="path1" /><path
         d="m 13.35,28.375 c 1.7259,0 3.125,-1.3991 3.125,-3.125 0,-1.7259 -1.3991,-3.125 -3.125,-3.125 -1.7259,0 -3.125,1.3991 -3.125,3.125 0,1.7259 1.3991,3.125 3.125,3.125 z"
         fill="#ffffff"
         id="path2" /><path
         d="m 10.225,19 c 2.4864,0 4.8709,0.9877 6.6291,2.7459 1.7582,1.7581 2.7459,4.1427 2.7459,6.6291 h 3.125 c 0,-3.3152 -1.317,-6.4946 -3.6612,-8.8388 C 16.7196,17.192 13.5402,15.875 10.225,15.875 Z"
         fill="#ffffff"
         id="path3" /><path
         d="m 10.225,12.75 c 2.0519,0 4.0837,0.4042 5.9794,1.1894 1.8957,0.7852 3.6182,1.9361 5.0691,3.3871 1.4509,1.4509 2.6019,3.1734 3.3871,5.0691 0.7852,1.8957 1.1894,3.9275 1.1894,5.9794 h 3.125 c 0,-4.9728 -1.9755,-9.7419 -5.4918,-13.2583 C 19.9669,11.6004 15.1978,9.625 10.225,9.625 Z"
         fill="#ffffff"
         id="path4" /></g></g></svg>
