<svg width="178" height="38" viewBox="0 0 178 38" fill="none" xmlns="http://www.w3.org/2000/svg">
<rect x="1" y="0.5" width="176" height="37" rx="7.5" fill="black"/>
<g clip-path="url(#clip0_1_887)">
<path d="M26.5383 6.5H12.6616C9.59002 6.5 7.09998 8.99004 7.09998 12.0617V25.9383C7.09998 29.01 9.59002 31.5 12.6616 31.5H26.5383C29.6099 31.5 32.1 29.01 32.1 25.9383V12.0617C32.1 8.99004 29.6099 6.5 26.5383 6.5Z" fill="url(#paint0_linear_1_887)"/>
<path d="M18.8366 28.3867C18.0908 28.12 17.9308 27.7575 17.625 25.6334C17.2691 23.1642 17.1916 21.6359 17.3975 21.1517C17.6708 20.51 18.4125 20.1459 19.45 20.1417C20.4791 20.1375 21.2275 20.505 21.5025 21.1517C21.7091 21.635 21.6316 23.1642 21.2758 25.6334C21.0341 27.3584 20.9008 27.7942 20.5675 28.0875C20.1091 28.4934 19.4591 28.6059 18.8425 28.3875L18.8366 28.3867ZM15.6508 25.8534C13.0758 24.5867 11.4258 22.4434 10.8258 19.5917C10.6758 18.8559 10.6508 17.1 10.7925 16.425C11.1675 14.6125 11.8841 13.195 13.0758 11.9417C14.7925 10.1317 17.0008 9.17505 19.4591 9.17505C21.8925 9.17505 24.0925 10.1142 25.7675 11.87C27.0425 13.195 27.7591 14.5975 28.1258 16.445C28.2508 17.06 28.2508 18.7367 28.1341 19.4284C27.7508 21.615 26.5341 23.6067 24.7591 24.945C24.1258 25.4234 22.5758 26.2584 22.3258 26.2584C22.2341 26.2584 22.2258 26.1634 22.2675 25.7792C22.3425 25.1625 22.4175 25.0342 22.7675 24.8875C23.3258 24.6542 24.2758 23.9775 24.8591 23.3925C25.8675 22.3925 26.6091 21.0842 26.9508 19.7092C27.1675 18.8509 27.1425 16.9425 26.9008 16.0592C26.1425 13.2509 23.8508 11.0675 21.0425 10.4842C20.2258 10.3175 18.7425 10.3175 17.9175 10.4842C15.0758 11.0675 12.7258 13.3592 12.0091 16.2425C11.8175 17.0259 11.8175 18.9342 12.0091 19.7175C12.4841 21.6259 13.7175 23.3759 15.3341 24.4175C15.6508 24.6259 16.0341 24.8425 16.1925 24.9092C16.5425 25.0592 16.6175 25.1842 16.6841 25.8009C16.7258 26.1759 16.7175 26.2842 16.6258 26.2842C16.5675 26.2842 16.1425 26.1009 15.6925 25.8842L15.6508 25.8534ZM15.6841 22.4634C14.8175 21.7717 14.0508 20.545 13.7341 19.3417C13.5425 18.615 13.5425 17.2334 13.7425 16.5084C14.2675 14.5517 15.7091 13.035 17.7091 12.3225C18.3925 12.0809 19.9091 12.0267 20.7508 12.2125C23.6508 12.8584 25.7091 15.7625 25.3091 18.6434C25.1508 19.8042 24.7508 20.7575 24.0425 21.6434C23.6925 22.0909 22.8425 22.8417 22.6925 22.8417C22.6675 22.8417 22.6425 22.5584 22.6425 22.2134V21.5834L23.0758 21.0667C24.7091 19.11 24.5925 16.3767 22.8091 14.5834C22.1175 13.885 21.3175 13.475 20.2841 13.2859C19.6175 13.1625 19.4758 13.1625 18.7758 13.2775C17.7133 13.4509 16.89 13.8625 16.1591 14.5859C14.3675 16.3609 14.2508 19.1084 15.8841 21.0667L16.3141 21.5834V22.2167C16.3141 22.5667 16.2866 22.85 16.2525 22.85C16.2191 22.85 15.9775 22.6834 15.7191 22.475L15.6841 22.4634ZM18.5758 19.0609C17.8341 18.7159 17.4341 18.065 17.4258 17.2167C17.4258 16.4542 17.8508 15.7892 18.5841 15.4C19.0508 15.155 19.8758 15.155 20.3425 15.4017C20.8508 15.6659 21.2675 16.1784 21.4258 16.7134C21.9091 18.3567 20.1675 19.7967 18.5925 19.0609H18.5758Z" fill="white"/>
<path d="M19.5908 19.3842C20.7386 19.3842 21.6691 18.4537 21.6691 17.3059C21.6691 16.158 20.7386 15.2275 19.5908 15.2275C18.443 15.2275 17.5125 16.158 17.5125 17.3059C17.5125 18.4537 18.443 19.3842 19.5908 19.3842Z" fill="white"/>
<path d="M19.79 20.1892C19.9341 20.2084 20.2208 20.2459 20.4858 20.3309C20.7525 20.4142 20.9941 20.545 21.1825 20.6792C21.3658 20.8125 21.4991 20.9509 21.5825 21.1192C21.6658 21.2875 21.7075 21.4875 21.7325 21.815C21.7491 22.1434 21.7491 22.5984 21.6741 23.4484C21.5991 24.2959 21.4491 25.5384 21.3325 26.3342C21.2158 27.1342 21.1325 27.4842 21.0241 27.7425C20.9158 28.0092 20.7741 28.1842 20.6158 28.3092C20.4575 28.4342 20.2741 28.5092 20.0991 28.5509C19.9241 28.5925 19.7658 28.5925 19.6158 28.5925C19.4658 28.5925 19.3241 28.5925 19.1325 28.5509C18.9408 28.5092 18.6908 28.4342 18.5075 28.2842C18.3158 28.1342 18.1908 27.9175 18.0908 27.6342C17.9908 27.3509 17.9158 27.0092 17.8158 26.3259C17.7158 25.6425 17.5825 24.6259 17.4991 23.8509C17.4158 23.0759 17.3825 22.5425 17.3758 22.1842C17.3675 21.8259 17.3841 21.6484 17.4258 21.4759C17.4675 21.3092 17.5341 21.1509 17.6258 21.0175C17.7175 20.8842 17.8375 20.7675 17.9591 20.6759C18.0783 20.5842 18.2008 20.5175 18.3475 20.4659C18.4925 20.4075 18.6666 20.3575 18.8808 20.3159C19.0975 20.2742 19.3475 20.2325 19.4758 20.2159C19.6041 20.1967 19.6041 20.1967 19.7475 20.2159L19.79 20.1892Z" fill="white"/>
</g>
<rect x="1" y="0.5" width="176" height="37" rx="7.5" stroke="#A6A6A6"/>
<defs>
<linearGradient id="paint0_linear_1_887" x1="19.5741" y1="31.8175" x2="19.3625" y2="6.5" gradientUnits="userSpaceOnUse">
<stop stop-color="#822CBE"/>
<stop offset="1" stop-color="#D772FB"/>
</linearGradient>
<clipPath id="clip0_1_887">
<rect width="25" height="25" fill="white" transform="translate(7.09998 6.5)"/>
</clipPath>
</defs>
</svg>
