<svg width="178" height="38" viewBox="0 0 178 38" fill="none" xmlns="http://www.w3.org/2000/svg">
<rect x="1" y="0.5" width="176" height="37" rx="7.5" fill="black"/>
<g clip-path="url(#clip0_1_888)">
<path d="M10.225 18.1477V19.8523C10.225 20.7153 9.52541 21.4149 8.66248 21.4149C7.79954 21.4149 7.09998 20.7153 7.09998 19.8523V18.1477C7.09998 17.2848 7.79954 16.5852 8.66248 16.5852C9.52541 16.5852 10.225 17.2848 10.225 18.1477Z" fill="#0066D9"/>
<path d="M28.9756 18.1922C28.9752 18.1774 28.975 18.1625 28.975 18.1477C28.975 17.2848 29.6745 16.5852 30.5375 16.5852C31.4004 16.5852 32.1 17.2848 32.1 18.1477C32.1 18.1626 32.0998 18.1774 32.0993 18.1922H32.1V19.8967H32.0993C32.0759 20.7391 31.3856 21.4148 30.5375 21.4148C29.6894 21.4148 28.9991 20.7391 28.9756 19.8967H28.975V18.1921H28.9756V18.1922Z" fill="#4285F4"/>
<path d="M15.6227 23.2615V24.966C15.6227 25.829 14.9232 26.5285 14.0602 26.5285C13.1972 26.5285 12.4977 25.829 12.4977 24.966V23.2614C12.4977 22.3985 13.1972 21.6989 14.0602 21.6989C14.9231 21.6989 15.6227 22.3985 15.6227 23.2614V23.2615ZM15.6227 13.0342V18.6095H15.6223C15.6034 19.456 14.9113 20.1365 14.0602 20.1365C13.2091 20.1365 12.517 19.456 12.4981 18.6095H12.4977V13.0342C12.4977 12.1712 13.1972 11.4717 14.0602 11.4717C14.9231 11.4717 15.6227 12.1712 15.6227 13.0342Z" fill="#EA4335"/>
<path d="M23.5773 14.7387C23.5773 15.6017 24.2768 16.3013 25.1398 16.3013C26.0028 16.3013 26.7023 15.6017 26.7023 14.7387V13.0342C26.7023 12.1712 26.0027 11.4717 25.1398 11.4717C24.2768 11.4717 23.5773 12.1712 23.5773 13.0342V14.7387Z" fill="#34A853"/>
<path d="M18.0375 9.76709C18.0375 10.63 18.737 11.3296 19.6 11.3296C20.4629 11.3296 21.1625 10.63 21.1625 9.76709V8.0625C21.1625 7.19956 20.4629 6.5 19.6 6.5C18.737 6.5 18.0375 7.19956 18.0375 8.0625V9.76709ZM18.0375 28.2329C18.0375 27.37 18.737 26.6704 19.6 26.6704C20.4629 26.6704 21.1625 27.37 21.1625 28.2329V29.9375C21.1625 30.8004 20.4629 31.5 19.6 31.5C18.737 31.5 18.0375 30.8004 18.0375 29.9375V28.2329Z" fill="#FAB908"/>
<path d="M23.5773 19.426C23.5773 18.5631 24.2768 17.8635 25.1398 17.8635C26.0028 17.8635 26.7023 18.5631 26.7023 19.426V24.9658C26.7023 25.8288 26.0027 26.5283 25.1398 26.5283C24.2768 26.5283 23.5773 25.8288 23.5773 24.9658V19.426Z" fill="#34A853"/>
<path d="M21.1625 14.4546V23.5454C21.1625 24.4084 20.4629 25.1079 19.6 25.1079C18.737 25.1079 18.0375 24.4084 18.0375 23.5454V14.4546C18.0375 13.5916 18.737 12.8921 19.6 12.8921C20.4629 12.8921 21.1625 13.5916 21.1625 14.4546Z" fill="#FAB908"/>
</g>
<rect x="1" y="0.5" width="176" height="37" rx="7.5" stroke="#A6A6A6"/>
<defs>
<clipPath id="clip0_1_888">
<rect width="25" height="25" fill="white" transform="translate(7.09998 6.5)"/>
</clipPath>
</defs>
</svg>
