<svg width="178" height="38" viewBox="0 0 178 38" fill="none" xmlns="http://www.w3.org/2000/svg">
<rect x="1" y="0.5" width="176" height="37" rx="7.5" fill="black"/>
<g clip-path="url(#clip0_1_886)">
<path d="M27.4125 6.5H11.7875C9.19864 6.5 7.09998 8.59867 7.09998 11.1875V26.8125C7.09998 29.4013 9.19864 31.5 11.7875 31.5H27.4125C30.0013 31.5 32.1 29.4013 32.1 26.8125V11.1875C32.1 8.59867 30.0013 6.5 27.4125 6.5Z" fill="#FFA71A"/>
<path d="M13.35 28.375C15.0759 28.375 16.475 26.9759 16.475 25.25C16.475 23.5241 15.0759 22.125 13.35 22.125C11.6241 22.125 10.225 23.5241 10.225 25.25C10.225 26.9759 11.6241 28.375 13.35 28.375Z" fill="white"/>
<path d="M10.225 19C12.7114 19 15.0959 19.9877 16.8541 21.7459C18.6123 23.504 19.6 25.8886 19.6 28.375H22.725C22.725 25.0598 21.408 21.8804 19.0638 19.5362C16.7196 17.192 13.5402 15.875 10.225 15.875V19Z" fill="white"/>
<path d="M10.225 12.75C12.2769 12.75 14.3087 13.1542 16.2044 13.9394C18.1001 14.7246 19.8226 15.8755 21.2735 17.3265C22.7244 18.7774 23.8754 20.4999 24.6606 22.3956C25.4458 24.2913 25.85 26.3231 25.85 28.375H28.975C28.975 23.4022 26.9995 18.6331 23.4832 15.1167C19.9669 11.6004 15.1978 9.625 10.225 9.625V12.75Z" fill="white"/>
</g>
<rect x="1" y="0.5" width="176" height="37" rx="7.5" stroke="#A6A6A6"/>
<defs>
<clipPath id="clip0_1_886">
<rect width="25" height="25" fill="white" transform="translate(7.09998 6.5)"/>
</clipPath>
</defs>
</svg>
