<svg width="177" height="38" viewBox="0 0 177 38" fill="none" xmlns="http://www.w3.org/2000/svg">
<rect x="0.5" y="0.5" width="176" height="37" rx="7.5" fill="black"/>
<g clip-path="url(#clip0_1_890)">
<path d="M19.0994 6.54126C12.2171 6.54126 6.63763 12.1206 6.63763 19.0029C6.63763 25.8855 12.2171 31.4643 19.0994 31.4643C25.9824 31.4643 31.5613 25.8855 31.5613 19.0029C31.5613 12.121 25.9824 6.54186 19.0992 6.54186L19.0994 6.54126ZM24.8143 24.5145C24.5911 24.8805 24.1119 24.9966 23.7458 24.7719C20.8199 22.9847 17.1366 22.5799 12.7988 23.571C12.3808 23.6663 11.9641 23.4044 11.8689 22.9862C11.7732 22.568 12.0341 22.1514 12.4531 22.0561C17.2001 20.9712 21.272 21.4386 24.5568 23.446C24.9229 23.6707 25.039 24.1484 24.8143 24.5145ZM26.3396 21.1209C26.0583 21.5785 25.4601 21.7228 25.0033 21.4416C21.6536 19.3822 16.5475 18.7859 12.5854 19.9886C12.0716 20.1438 11.5289 19.8542 11.3729 19.3413C11.2181 18.8274 11.5079 18.2858 12.0208 18.1295C16.5466 16.7563 22.1729 17.4215 26.0196 19.7853C26.4765 20.0666 26.6208 20.6648 26.3396 21.121V21.1209ZM26.4705 17.5875C22.4542 15.202 15.8277 14.9826 11.993 16.1465C11.3772 16.3332 10.726 15.9856 10.5394 15.3698C10.3528 14.7538 10.7001 14.103 11.3164 13.9158C15.7183 12.5795 23.036 12.8377 27.6601 15.5828C28.2152 15.9115 28.3967 16.6268 28.0678 17.1799C27.7405 17.7338 27.0232 17.9164 26.4711 17.5875H26.4705Z" fill="#1ED760"/>
</g>
<rect x="0.5" y="0.5" width="176" height="37" rx="7.5" stroke="#A6A6A6"/>
<defs>
<clipPath id="clip0_1_890">
<rect width="25" height="25" fill="white" transform="translate(6.59998 6.5)"/>
</clipPath>
</defs>
</svg>
