<svg width="178" height="38" viewBox="0 0 178 38" fill="none" xmlns="http://www.w3.org/2000/svg">
<rect x="1" y="0.5" width="176" height="37" rx="7.5" fill="black"/>
<g clip-path="url(#clip0_1_885)">
<path d="M29.5975 11.9375C29.41 11.675 29.2175 11.4175 29.01 11.17C26.7625 8.47 23.3775 6.75 19.6 6.75C19.5925 6.75 19.5875 6.75 19.5825 6.75C19.5775 6.75 19.575 6.75 19.5725 6.75C19.56 6.75 19.545 6.7525 19.53 6.7525C15.78 6.775 12.4275 8.49 10.19 11.17C9.98501 11.4175 9.78751 11.675 9.60251 11.9375C8.18501 13.935 7.35001 16.37 7.35001 19C7.35001 21.63 8.18501 24.065 9.60001 26.0625C9.78751 26.325 9.98251 26.5825 10.1875 26.83C12.425 29.5125 15.7775 31.2275 19.5275 31.25C19.5425 31.25 19.555 31.2525 19.57 31.2525C19.575 31.2525 19.5775 31.2525 19.58 31.2525C19.585 31.2525 19.5925 31.2525 19.5975 31.2525C23.375 31.2525 26.76 29.5325 29.0075 26.8325C29.2125 26.585 29.41 26.3275 29.595 26.065C31.015 24.065 31.85 21.63 31.85 19C31.85 16.37 31.015 13.935 29.5975 11.9375ZM16.02 8.3425C14.895 9.4275 13.9575 11.0175 13.3125 12.9225C12.4475 12.6 11.67 12.2125 11 11.7725C12.315 10.21 14.0425 9.0075 16.02 8.3425ZM10.41 12.54C11.1725 13.0475 12.0525 13.4925 13.025 13.86C12.605 15.395 12.3625 17.0975 12.355 18.8975H8.35501C8.37751 16.5325 9.14001 14.3425 10.41 12.54ZM8.39501 19.9025H12.375C12.44 21.4075 12.6675 22.835 13.025 24.14C12.05 24.5075 11.17 24.9525 10.41 25.46C9.28501 23.8625 8.55751 21.96 8.39501 19.9025ZM11.005 26.2275C11.675 25.79 12.45 25.4025 13.3125 25.08C13.9575 26.985 14.8925 28.5725 16.02 29.66C14.0425 28.9925 12.32 27.7875 11.005 26.2275ZM19.0975 30.2075C17.035 29.925 15.255 27.81 14.245 24.7625C15.7 24.325 17.3475 24.0625 19.0975 24.02V30.2075ZM19.0975 23.0175C17.2525 23.0625 15.5125 23.3475 13.9625 23.8225C13.645 22.6175 13.4425 21.2975 13.3825 19.9025H19.0975V23.0175ZM19.0975 18.8975H13.3625C13.3725 17.21 13.59 15.615 13.97 14.1825C15.5175 14.6575 17.255 14.9425 19.1 14.985L19.0975 18.8975ZM19.0975 13.98C17.3475 13.9375 15.7025 13.675 14.2475 13.2375C15.2575 10.1925 17.035 8.075 19.0975 7.7925V13.98ZM30.8425 18.8975H26.785C26.775 17.1075 26.5375 15.41 26.12 13.88C27.115 13.51 28.015 13.0575 28.7875 12.54C30.06 14.345 30.82 16.5325 30.8425 18.8975ZM28.1975 11.7725C27.515 12.22 26.7175 12.615 25.8325 12.94C25.1825 11.0075 24.2325 9.4025 23.09 8.3125C25.1025 8.9725 26.8625 10.1875 28.1975 11.7725ZM20.1025 7.7975C22.1425 8.1125 23.9 10.225 24.8975 13.25C23.4575 13.6775 21.83 13.935 20.1025 13.9775V7.7975V7.7975ZM20.1025 14.9825C21.925 14.94 23.6425 14.66 25.1775 14.195C25.5525 15.625 25.7725 17.2125 25.78 18.895H20.1025V14.9825ZM20.1025 19.9025H25.7575C25.6975 21.29 25.495 22.605 25.18 23.805C23.645 23.34 21.9225 23.06 20.1025 23.0175V19.9025ZM20.1025 30.2025V24.0225C21.83 24.065 23.4575 24.3225 24.9 24.75C23.9025 27.775 22.1425 29.8875 20.1025 30.2025ZM23.09 29.6875C24.2325 28.5975 25.185 26.9925 25.835 25.06C26.7175 25.385 27.5125 25.78 28.195 26.2275C26.86 27.8125 25.1025 29.0275 23.09 29.6875ZM28.79 25.46C28.015 24.9425 27.1175 24.49 26.12 24.12C26.4725 22.82 26.7 21.3975 26.7625 19.9025H30.805C30.64 21.96 29.9175 23.8625 28.79 25.46Z" fill="#00A3FF"/>
</g>
<rect x="1" y="0.5" width="176" height="37" rx="7.5" stroke="#A6A6A6"/>
<defs>
<clipPath id="clip0_1_885">
<rect width="25" height="25" fill="white" transform="translate(7.10001 6.5)"/>
</clipPath>
</defs>
</svg>
