<svg width="177" height="38" viewBox="0 0 177 38" fill="none" xmlns="http://www.w3.org/2000/svg">
<rect x="0.5" y="0.5" width="176" height="37" rx="7.5" fill="black"/>
<g clip-path="url(#clip0_1_891)">
<path d="M31.0383 12.9758C30.7513 11.9019 29.9056 11.0562 28.8317 10.7692C26.885 10.2476 19.0799 10.2476 19.0799 10.2476C19.0799 10.2476 11.2747 10.2476 9.32803 10.7692C8.25432 11.0562 7.40845 11.9019 7.12143 12.9758C6.59998 14.9223 6.59998 18.9836 6.59998 18.9836C6.59998 18.9836 6.59998 23.0449 7.12143 24.9912C7.40845 26.0651 8.25432 26.911 9.32803 27.198C11.2747 27.7194 19.0799 27.7194 19.0799 27.7194C19.0799 27.7194 26.885 27.7194 28.8317 27.198C29.9056 26.911 30.7513 26.0651 31.0383 24.9912C31.5599 23.0449 31.5599 18.9836 31.5599 18.9836C31.5599 18.9836 31.5599 14.9223 31.0383 12.9758Z" fill="#ED1F24"/>
<path d="M16.5838 22.7276L23.0684 18.9835L16.5838 15.2395V22.7276Z" fill="white"/>
</g>
<rect x="0.5" y="0.5" width="176" height="37" rx="7.5" stroke="#A6A6A6"/>
<defs>
<clipPath id="clip0_1_891">
<rect width="25" height="25" fill="white" transform="translate(6.59998 6.5)"/>
</clipPath>
</defs>
</svg>
